<svg xmlns="http://www.w3.org/2000/svg" width="94" height="94"><defs><radialGradient id="o" cx="46.72" cy="72.05" r="76.92" gradientUnits="userSpaceOnUse"><stop offset="0" stop-color="#ffe906"/><stop offset=".09" stop-color="#d7c405"/><stop offset=".22" stop-color="#9f9104"/><stop offset=".35" stop-color="#6e6503"/><stop offset=".49" stop-color="#464002"/><stop offset=".62" stop-color="#282401"/><stop offset=".74" stop-color="#121000"/><stop offset=".86" stop-color="#040400"/><stop offset=".97"/></radialGradient><radialGradient id="p" cx="45.81" cy="57.05" r="61.86" gradientUnits="userSpaceOnUse"><stop offset="0" stop-color="#ffe906"/><stop offset=".03" stop-color="#f2dd06"/><stop offset=".18" stop-color="#b3a304"/><stop offset=".34" stop-color="#7c7103"/><stop offset=".48" stop-color="#504902"/><stop offset=".62" stop-color="#2d2901"/><stop offset=".75" stop-color="#141200"/><stop offset=".88" stop-color="#050500"/><stop offset=".97"/></radialGradient><radialGradient id="q" cx="46.43" cy="59.43" r="30.04" gradientUnits="userSpaceOnUse"><stop offset="0" stop-color="#ffed00"/><stop offset=".13" stop-color="#cdbf00"/><stop offset=".31" stop-color="#908600"/><stop offset=".48" stop-color="#5c5600"/><stop offset=".64" stop-color="#343100"/><stop offset=".78" stop-color="#181600"/><stop offset=".91" stop-color="#060600"/><stop offset="1"/></radialGradient><radialGradient id="x" cx="24.07" cy="38.71" r="5.86" gradientUnits="userSpaceOnUse"><stop offset="0" stop-color="#fc0"/><stop offset=".08" stop-color="#d9ae00"/><stop offset=".22" stop-color="#a08000"/><stop offset=".36" stop-color="#6f5900"/><stop offset=".5" stop-color="#473900"/><stop offset=".63" stop-color="#282000"/><stop offset=".76" stop-color="#120e00"/><stop offset=".89" stop-color="#050400"/><stop offset="1"/></radialGradient><radialGradient id="y" cx="65.95" cy="45.7" r="5.09" gradientUnits="userSpaceOnUse"><stop offset="0" stop-color="#fc0"/><stop offset=".08" stop-color="#d9ae00"/><stop offset=".22" stop-color="#a08000"/><stop offset=".36" stop-color="#6f5900"/><stop offset=".5" stop-color="#473900"/><stop offset=".63" stop-color="#282000"/><stop offset=".76" stop-color="#120e00"/><stop offset=".89" stop-color="#050400"/><stop offset="1"/></radialGradient><radialGradient id="z" cx="24.54" cy="53.97" r="3.55" gradientUnits="userSpaceOnUse"><stop offset="0" stop-color="#fc0"/><stop offset=".08" stop-color="#d9ae00"/><stop offset=".22" stop-color="#a08000"/><stop offset=".36" stop-color="#6f5900"/><stop offset=".5" stop-color="#473900"/><stop offset=".63" stop-color="#282000"/><stop offset=".76" stop-color="#120e00"/><stop offset=".89" stop-color="#050400"/><stop offset="1"/></radialGradient><radialGradient id="A" cx="62.17" cy="51.06" r="3.56" gradientUnits="userSpaceOnUse"><stop offset="0" stop-color="#fc0"/><stop offset=".08" stop-color="#d9ae00"/><stop offset=".22" stop-color="#a08000"/><stop offset=".36" stop-color="#6f5900"/><stop offset=".5" stop-color="#473900"/><stop offset=".63" stop-color="#282000"/><stop offset=".76" stop-color="#120e00"/><stop offset=".89" stop-color="#050400"/><stop offset="1"/></radialGradient><radialGradient id="B" cx="34.85" cy="49.92" r="2.2" gradientUnits="userSpaceOnUse"><stop offset=".03" stop-color="#ff7300"/><stop offset=".3" stop-color="#fc7000"/><stop offset=".52" stop-color="#f26500"/><stop offset=".73" stop-color="#e15400"/><stop offset=".8" stop-color="#832d00"/><stop offset=".81" stop-color="#622100"/><stop offset=".82" stop-color="#591e00"/><stop offset=".83" stop-color="#561d00"/><stop offset=".84" stop-color="#3b1400"/><stop offset=".85" stop-color="#250c00"/><stop offset=".87" stop-color="#140700"/><stop offset=".89" stop-color="#fff"/><stop offset=".92" stop-color="#020100"/><stop offset="1"/></radialGradient><radialGradient id="C" cx="51" cy="53.05" r="1.67" gradientUnits="userSpaceOnUse"><stop offset=".03" stop-color="#ff7300"/><stop offset=".3" stop-color="#fc7000"/><stop offset=".52" stop-color="#f26500"/><stop offset=".73" stop-color="#e15400"/><stop offset=".8" stop-color="#832d00"/><stop offset=".81" stop-color="#622100"/><stop offset=".82" stop-color="#591e00"/><stop offset=".83" stop-color="#561d00"/><stop offset=".84" stop-color="#3b1400"/><stop offset=".85" stop-color="#250c00"/><stop offset=".87" stop-color="#140700"/><stop offset=".89" stop-color="#fff"/><stop offset=".92" stop-color="#020100"/><stop offset="1"/></radialGradient><radialGradient id="D" cx="36.98" cy="35.11" r="1.36" gradientUnits="userSpaceOnUse"><stop offset=".03" stop-color="#ff7300"/><stop offset=".3" stop-color="#fc7000"/><stop offset=".52" stop-color="#f26500"/><stop offset=".73" stop-color="#e15400"/><stop offset=".8" stop-color="#832d00"/><stop offset=".81" stop-color="#622100"/><stop offset=".82" stop-color="#591e00"/><stop offset=".83" stop-color="#561d00"/><stop offset=".84" stop-color="#3b1400"/><stop offset=".85" stop-color="#250c00"/><stop offset=".87" stop-color="#140700"/><stop offset=".89" stop-color="#fff"/><stop offset=".92" stop-color="#020100"/><stop offset="1"/></radialGradient><radialGradient id="E" cx="56.47" cy="42.1" r="1.68" gradientUnits="userSpaceOnUse"><stop offset=".03" stop-color="#ff7300"/><stop offset=".3" stop-color="#fc7000"/><stop offset=".52" stop-color="#f26500"/><stop offset=".73" stop-color="#e15400"/><stop offset=".8" stop-color="#832d00"/><stop offset=".81" stop-color="#622100"/><stop offset=".82" stop-color="#591e00"/><stop offset=".83" stop-color="#561d00"/><stop offset=".84" stop-color="#3b1400"/><stop offset=".85" stop-color="#250c00"/><stop offset=".87" stop-color="#140700"/><stop offset=".89" stop-color="#fff"/><stop offset=".92" stop-color="#020100"/><stop offset="1"/></radialGradient><radialGradient id="F" cx="48.16" cy="34.44" r="1.62" gradientUnits="userSpaceOnUse"><stop offset=".03" stop-color="#ff7300"/><stop offset=".3" stop-color="#fc7000"/><stop offset=".52" stop-color="#f26500"/><stop offset=".73" stop-color="#e15400"/><stop offset=".8" stop-color="#832d00"/><stop offset=".81" stop-color="#622100"/><stop offset=".82" stop-color="#591e00"/><stop offset=".83" stop-color="#561d00"/><stop offset=".84" stop-color="#3b1400"/><stop offset=".85" stop-color="#250c00"/><stop offset=".87" stop-color="#140700"/><stop offset=".89" stop-color="#fff"/><stop offset=".92" stop-color="#020100"/><stop offset="1"/></radialGradient><radialGradient id="G" cx="46.13" cy="50.26" r="3.9" gradientUnits="userSpaceOnUse"><stop offset=".03" stop-color="#ff4a84"/><stop offset=".16" stop-color="#fc4882"/><stop offset=".28" stop-color="#f1407d"/><stop offset=".38" stop-color="#df3373"/><stop offset=".48" stop-color="#c72166"/><stop offset=".58" stop-color="#a70a55"/><stop offset=".62" stop-color="#99004d"/><stop offset=".64" stop-color="#8b0046"/><stop offset=".71" stop-color="#5a002d"/><stop offset=".78" stop-color="#33001a"/><stop offset=".85" stop-color="#17000c"/><stop offset=".91" stop-color="#060003"/><stop offset=".95"/></radialGradient><radialGradient id="H" cx="57.17" cy="48.96" r="2.88" gradientUnits="userSpaceOnUse"><stop offset=".03" stop-color="#ff4a84"/><stop offset=".16" stop-color="#fc4882"/><stop offset=".28" stop-color="#f1407d"/><stop offset=".38" stop-color="#df3373"/><stop offset=".48" stop-color="#c72166"/><stop offset=".58" stop-color="#a70a55"/><stop offset=".62" stop-color="#99004d"/><stop offset=".64" stop-color="#8b0046"/><stop offset=".71" stop-color="#5a002d"/><stop offset=".78" stop-color="#33001a"/><stop offset=".85" stop-color="#17000c"/><stop offset=".91" stop-color="#060003"/><stop offset=".95"/></radialGradient><radialGradient id="I" cx="64.13" cy="35.87" r="2.07" gradientUnits="userSpaceOnUse"><stop offset=".03" stop-color="#ff4a84"/><stop offset=".16" stop-color="#fc4882"/><stop offset=".28" stop-color="#f1407d"/><stop offset=".38" stop-color="#df3373"/><stop offset=".48" stop-color="#c72166"/><stop offset=".58" stop-color="#a70a55"/><stop offset=".62" stop-color="#99004d"/><stop offset=".64" stop-color="#8b0046"/><stop offset=".71" stop-color="#5a002d"/><stop offset=".78" stop-color="#33001a"/><stop offset=".85" stop-color="#17000c"/><stop offset=".91" stop-color="#060003"/><stop offset=".95"/></radialGradient><radialGradient id="J" cx="24.66" cy="49.01" r="3.43" gradientUnits="userSpaceOnUse"><stop offset=".03" stop-color="#ff4a84"/><stop offset=".16" stop-color="#fc4882"/><stop offset=".28" stop-color="#f1407d"/><stop offset=".38" stop-color="#df3373"/><stop offset=".48" stop-color="#c72166"/><stop offset=".58" stop-color="#a70a55"/><stop offset=".62" stop-color="#99004d"/><stop offset=".64" stop-color="#8b0046"/><stop offset=".71" stop-color="#5a002d"/><stop offset=".78" stop-color="#33001a"/><stop offset=".85" stop-color="#17000c"/><stop offset=".91" stop-color="#060003"/><stop offset=".95"/></radialGradient><radialGradient id="K" cx="65.89" cy="45.49" r="2.12" gradientUnits="userSpaceOnUse"><stop offset=".03" stop-color="#ff4a84"/><stop offset=".16" stop-color="#fc4882"/><stop offset=".28" stop-color="#f1407d"/><stop offset=".38" stop-color="#df3373"/><stop offset=".48" stop-color="#c72166"/><stop offset=".58" stop-color="#a70a55"/><stop offset=".62" stop-color="#99004d"/><stop offset=".64" stop-color="#8b0046"/><stop offset=".71" stop-color="#5a002d"/><stop offset=".78" stop-color="#33001a"/><stop offset=".85" stop-color="#17000c"/><stop offset=".91" stop-color="#060003"/><stop offset=".95"/></radialGradient><radialGradient id="L" cx="45.7" cy="47.36" r="1.49" gradientUnits="userSpaceOnUse"><stop offset=".03" stop-color="#ff7300"/><stop offset=".3" stop-color="#fc7000"/><stop offset=".52" stop-color="#f26500"/><stop offset=".73" stop-color="#e15400"/><stop offset=".8" stop-color="#832d00"/><stop offset=".81" stop-color="#622100"/><stop offset=".82" stop-color="#591e00"/><stop offset=".83" stop-color="#561d00"/><stop offset=".84" stop-color="#3b1400"/><stop offset=".85" stop-color="#250c00"/><stop offset=".87" stop-color="#140700"/><stop offset=".89" stop-color="#fff"/><stop offset=".92" stop-color="#020100"/><stop offset="1"/></radialGradient><radialGradient id="M" cx="50.83" cy="43.16" r="2.2" gradientUnits="userSpaceOnUse"><stop offset=".03" stop-color="#ff7300"/><stop offset=".3" stop-color="#fc7000"/><stop offset=".52" stop-color="#f26500"/><stop offset=".73" stop-color="#e15400"/><stop offset=".8" stop-color="#832d00"/><stop offset=".81" stop-color="#622100"/><stop offset=".82" stop-color="#591e00"/><stop offset=".83" stop-color="#561d00"/><stop offset=".84" stop-color="#3b1400"/><stop offset=".85" stop-color="#250c00"/><stop offset=".87" stop-color="#140700"/><stop offset=".89" stop-color="#fff"/><stop offset=".92" stop-color="#020100"/><stop offset="1"/></radialGradient><radialGradient id="N" cx="71.48" cy="43.58" r="1.49" gradientUnits="userSpaceOnUse"><stop offset=".03" stop-color="#ff7300"/><stop offset=".3" stop-color="#fc7000"/><stop offset=".52" stop-color="#f26500"/><stop offset=".73" stop-color="#e15400"/><stop offset=".8" stop-color="#832d00"/><stop offset=".81" stop-color="#622100"/><stop offset=".82" stop-color="#591e00"/><stop offset=".83" stop-color="#561d00"/><stop offset=".84" stop-color="#3b1400"/><stop offset=".85" stop-color="#250c00"/><stop offset=".87" stop-color="#140700"/><stop offset=".89" stop-color="#fff"/><stop offset=".92" stop-color="#020100"/><stop offset="1"/></radialGradient><radialGradient id="O" cx="41.67" cy="40.58" r="2.67" gradientUnits="userSpaceOnUse"><stop offset=".03" stop-color="#ff9100"/><stop offset=".22" stop-color="#ff8e00"/><stop offset=".38" stop-color="#ff8300"/><stop offset=".53" stop-color="#ff7100"/><stop offset=".67" stop-color="#ff5900"/><stop offset=".8" stop-color="#9d2a00"/><stop offset=".81" stop-color="#621f00"/><stop offset=".82" stop-color="#591d00"/><stop offset=".83" stop-color="#561d00"/><stop offset=".84" stop-color="#3b1400"/><stop offset=".85" stop-color="#250c00"/><stop offset=".87" stop-color="#140700"/><stop offset=".89" stop-color="#fff"/><stop offset=".92" stop-color="#020100"/><stop offset="1"/></radialGradient><radialGradient id="P" cx="49.38" cy="53.11" r=".68" gradientUnits="userSpaceOnUse"><stop offset=".03" stop-color="#ff7300"/><stop offset=".3" stop-color="#fc7000"/><stop offset=".52" stop-color="#f26500"/><stop offset=".73" stop-color="#e15400"/><stop offset=".8" stop-color="#832d00"/><stop offset=".81" stop-color="#622100"/><stop offset=".82" stop-color="#591e00"/><stop offset=".83" stop-color="#561d00"/><stop offset=".84" stop-color="#3b1400"/><stop offset=".85" stop-color="#250c00"/><stop offset=".87" stop-color="#140700"/><stop offset=".89" stop-color="#fff"/><stop offset=".92" stop-color="#020100"/><stop offset="1"/></radialGradient><radialGradient id="Q" cx="59.86" cy="54.24" r=".68" gradientUnits="userSpaceOnUse"><stop offset=".03" stop-color="#ff7300"/><stop offset=".3" stop-color="#fc7000"/><stop offset=".52" stop-color="#f26500"/><stop offset=".73" stop-color="#e15400"/><stop offset=".8" stop-color="#832d00"/><stop offset=".81" stop-color="#622100"/><stop offset=".82" stop-color="#591e00"/><stop offset=".83" stop-color="#561d00"/><stop offset=".84" stop-color="#3b1400"/><stop offset=".85" stop-color="#250c00"/><stop offset=".87" stop-color="#140700"/><stop offset=".89" stop-color="#fff"/><stop offset=".92" stop-color="#020100"/><stop offset="1"/></radialGradient><radialGradient id="R" cx="66.05" cy="47.42" r=".94" gradientUnits="userSpaceOnUse"><stop offset=".03" stop-color="#ff7300"/><stop offset=".3" stop-color="#fc7000"/><stop offset=".52" stop-color="#f26500"/><stop offset=".73" stop-color="#e15400"/><stop offset=".8" stop-color="#832d00"/><stop offset=".81" stop-color="#622100"/><stop offset=".82" stop-color="#591e00"/><stop offset=".83" stop-color="#561d00"/><stop offset=".84" stop-color="#3b1400"/><stop offset=".85" stop-color="#250c00"/><stop offset=".87" stop-color="#140700"/><stop offset=".89" stop-color="#fff"/><stop offset=".92" stop-color="#020100"/><stop offset="1"/></radialGradient><radialGradient id="S" cx="50.03" cy="41.44" r=".68" gradientUnits="userSpaceOnUse"><stop offset=".03" stop-color="#ff7300"/><stop offset=".3" stop-color="#fc7000"/><stop offset=".52" stop-color="#f26500"/><stop offset=".73" stop-color="#e15400"/><stop offset=".8" stop-color="#832d00"/><stop offset=".81" stop-color="#622100"/><stop offset=".82" stop-color="#591e00"/><stop offset=".83" stop-color="#561d00"/><stop offset=".84" stop-color="#3b1400"/><stop offset=".85" stop-color="#250c00"/><stop offset=".87" stop-color="#140700"/><stop offset=".89" stop-color="#fff"/><stop offset=".92" stop-color="#020100"/><stop offset="1"/></radialGradient><radialGradient id="T" cx="47.42" cy="27.58" r=".68" gradientUnits="userSpaceOnUse"><stop offset=".03" stop-color="#ff7300"/><stop offset=".3" stop-color="#fc7000"/><stop offset=".52" stop-color="#f26500"/><stop offset=".73" stop-color="#e15400"/><stop offset=".8" stop-color="#832d00"/><stop offset=".81" stop-color="#622100"/><stop offset=".82" stop-color="#591e00"/><stop offset=".83" stop-color="#561d00"/><stop offset=".84" stop-color="#3b1400"/><stop offset=".85" stop-color="#250c00"/><stop offset=".87" stop-color="#140700"/><stop offset=".89" stop-color="#fff"/><stop offset=".92" stop-color="#020100"/><stop offset="1"/></radialGradient><radialGradient id="U" cx="32.21" cy="44.37" r=".68" gradientUnits="userSpaceOnUse"><stop offset=".03" stop-color="#ff7300"/><stop offset=".3" stop-color="#fc7000"/><stop offset=".52" stop-color="#f26500"/><stop offset=".73" stop-color="#e15400"/><stop offset=".8" stop-color="#832d00"/><stop offset=".81" stop-color="#622100"/><stop offset=".82" stop-color="#591e00"/><stop offset=".83" stop-color="#561d00"/><stop offset=".84" stop-color="#3b1400"/><stop offset=".85" stop-color="#250c00"/><stop offset=".87" stop-color="#140700"/><stop offset=".89" stop-color="#fff"/><stop offset=".92" stop-color="#020100"/><stop offset="1"/></radialGradient><radialGradient id="V" cx="50.04" cy="21.39" r="1.28" gradientUnits="userSpaceOnUse"><stop offset=".03" stop-color="#ff7300"/><stop offset=".3" stop-color="#fc7000"/><stop offset=".52" stop-color="#f26500"/><stop offset=".73" stop-color="#e15400"/><stop offset=".8" stop-color="#832d00"/><stop offset=".81" stop-color="#622100"/><stop offset=".82" stop-color="#591e00"/><stop offset=".83" stop-color="#561d00"/><stop offset=".84" stop-color="#3b1400"/><stop offset=".85" stop-color="#250c00"/><stop offset=".87" stop-color="#140700"/><stop offset=".89" stop-color="#fff"/><stop offset=".92" stop-color="#020100"/><stop offset="1"/></radialGradient><radialGradient id="W" cx="29.4" cy="37.22" r="2.17" gradientUnits="userSpaceOnUse"><stop offset=".03" stop-color="#ff7300"/><stop offset=".3" stop-color="#fc7000"/><stop offset=".52" stop-color="#f26500"/><stop offset=".73" stop-color="#e15400"/><stop offset=".8" stop-color="#832d00"/><stop offset=".81" stop-color="#622100"/><stop offset=".82" stop-color="#591e00"/><stop offset=".83" stop-color="#561d00"/><stop offset=".84" stop-color="#3b1400"/><stop offset=".85" stop-color="#250c00"/><stop offset=".87" stop-color="#140700"/><stop offset=".89" stop-color="#fff"/><stop offset=".92" stop-color="#020100"/><stop offset="1"/></radialGradient><radialGradient id="X" cx="29.95" cy="39.36" r="1.47" gradientUnits="userSpaceOnUse"><stop offset=".03" stop-color="#ff7300"/><stop offset=".3" stop-color="#fc7000"/><stop offset=".52" stop-color="#f26500"/><stop offset=".73" stop-color="#e15400"/><stop offset=".8" stop-color="#832d00"/><stop offset=".81" stop-color="#622100"/><stop offset=".82" stop-color="#591e00"/><stop offset=".83" stop-color="#561d00"/><stop offset=".84" stop-color="#3b1400"/><stop offset=".85" stop-color="#250c00"/><stop offset=".87" stop-color="#140700"/><stop offset=".89" stop-color="#fff"/><stop offset=".92" stop-color="#020100"/><stop offset="1"/></radialGradient><radialGradient id="Y" cx="55.93" cy="31.42" r="1.15" gradientUnits="userSpaceOnUse"><stop offset=".03" stop-color="#ff7300"/><stop offset=".3" stop-color="#fc7000"/><stop offset=".52" stop-color="#f26500"/><stop offset=".73" stop-color="#e15400"/><stop offset=".8" stop-color="#832d00"/><stop offset=".81" stop-color="#622100"/><stop offset=".82" stop-color="#591e00"/><stop offset=".83" stop-color="#561d00"/><stop offset=".84" stop-color="#3b1400"/><stop offset=".85" stop-color="#250c00"/><stop offset=".87" stop-color="#140700"/><stop offset=".89" stop-color="#fff"/><stop offset=".92" stop-color="#020100"/><stop offset="1"/></radialGradient><radialGradient id="Z" cx="65.22" cy="42.03" r=".78" gradientUnits="userSpaceOnUse"><stop offset=".03" stop-color="#ff7300"/><stop offset=".3" stop-color="#fc7000"/><stop offset=".52" stop-color="#f26500"/><stop offset=".73" stop-color="#e15400"/><stop offset=".8" stop-color="#832d00"/><stop offset=".81" stop-color="#622100"/><stop offset=".82" stop-color="#591e00"/><stop offset=".83" stop-color="#561d00"/><stop offset=".84" stop-color="#3b1400"/><stop offset=".85" stop-color="#250c00"/><stop offset=".87" stop-color="#140700"/><stop offset=".89" stop-color="#fff"/><stop offset=".92" stop-color="#020100"/><stop offset="1"/></radialGradient><radialGradient id="aa" cx="27.3" cy="47.54" r="2.09" gradientUnits="userSpaceOnUse"><stop offset=".03" stop-color="#ff4a84"/><stop offset=".16" stop-color="#fc4882"/><stop offset=".28" stop-color="#f1407d"/><stop offset=".38" stop-color="#df3373"/><stop offset=".48" stop-color="#c72166"/><stop offset=".58" stop-color="#a70a55"/><stop offset=".62" stop-color="#99004d"/><stop offset=".64" stop-color="#8b0046"/><stop offset=".71" stop-color="#5a002d"/><stop offset=".78" stop-color="#33001a"/><stop offset=".85" stop-color="#17000c"/><stop offset=".91" stop-color="#060003"/><stop offset=".95"/></radialGradient><radialGradient id="ab" cx="43.56" cy="40.66" r="1.12" gradientUnits="userSpaceOnUse"><stop offset=".03" stop-color="#ff7300"/><stop offset=".3" stop-color="#fc7000"/><stop offset=".52" stop-color="#f26500"/><stop offset=".73" stop-color="#e15400"/><stop offset=".8" stop-color="#832d00"/><stop offset=".81" stop-color="#622100"/><stop offset=".82" stop-color="#591e00"/><stop offset=".83" stop-color="#561d00"/><stop offset=".84" stop-color="#3b1400"/><stop offset=".85" stop-color="#250c00"/><stop offset=".87" stop-color="#140700"/><stop offset=".89" stop-color="#fff"/><stop offset=".92" stop-color="#020100"/><stop offset="1"/></radialGradient><radialGradient id="ac" cx="54.92" cy="50.43" r="1.34" gradientUnits="userSpaceOnUse"><stop offset=".03" stop-color="#ff7300"/><stop offset=".3" stop-color="#fc7000"/><stop offset=".52" stop-color="#f26500"/><stop offset=".73" stop-color="#e15400"/><stop offset=".8" stop-color="#832d00"/><stop offset=".81" stop-color="#622100"/><stop offset=".82" stop-color="#591e00"/><stop offset=".83" stop-color="#561d00"/><stop offset=".84" stop-color="#3b1400"/><stop offset=".85" stop-color="#250c00"/><stop offset=".87" stop-color="#140700"/><stop offset=".89" stop-color="#fff"/><stop offset=".92" stop-color="#020100"/><stop offset="1"/></radialGradient><radialGradient id="ad" cx="52.68" cy="38.89" r="1.02" gradientUnits="userSpaceOnUse"><stop offset=".03" stop-color="#ff7300"/><stop offset=".3" stop-color="#fc7000"/><stop offset=".52" stop-color="#f26500"/><stop offset=".73" stop-color="#e15400"/><stop offset=".8" stop-color="#832d00"/><stop offset=".81" stop-color="#622100"/><stop offset=".82" stop-color="#591e00"/><stop offset=".83" stop-color="#561d00"/><stop offset=".84" stop-color="#3b1400"/><stop offset=".85" stop-color="#250c00"/><stop offset=".87" stop-color="#140700"/><stop offset=".89" stop-color="#fff"/><stop offset=".92" stop-color="#020100"/><stop offset="1"/></radialGradient><radialGradient id="ae" cx="72.55" cy="42.45" r=".76" gradientUnits="userSpaceOnUse"><stop offset=".03" stop-color="#ff7300"/><stop offset=".3" stop-color="#fc7000"/><stop offset=".52" stop-color="#f26500"/><stop offset=".73" stop-color="#e15400"/><stop offset=".8" stop-color="#832d00"/><stop offset=".81" stop-color="#622100"/><stop offset=".82" stop-color="#591e00"/><stop offset=".83" stop-color="#561d00"/><stop offset=".84" stop-color="#3b1400"/><stop offset=".85" stop-color="#250c00"/><stop offset=".87" stop-color="#140700"/><stop offset=".89" stop-color="#fff"/><stop offset=".92" stop-color="#020100"/><stop offset="1"/></radialGradient><radialGradient id="af" cx="33.93" cy="45.79" r="3.43" gradientUnits="userSpaceOnUse"><stop offset=".03" stop-color="#ff4a84"/><stop offset=".16" stop-color="#fc4882"/><stop offset=".28" stop-color="#f1407d"/><stop offset=".38" stop-color="#df3373"/><stop offset=".48" stop-color="#c72166"/><stop offset=".58" stop-color="#a70a55"/><stop offset=".62" stop-color="#99004d"/><stop offset=".64" stop-color="#8b0046"/><stop offset=".71" stop-color="#5a002d"/><stop offset=".78" stop-color="#33001a"/><stop offset=".85" stop-color="#17000c"/><stop offset=".91" stop-color="#060003"/><stop offset=".95"/></radialGradient><radialGradient id="ag" cx="35.24" cy="43.01" r="1.26" gradientUnits="userSpaceOnUse"><stop offset=".03" stop-color="#ff7300"/><stop offset=".3" stop-color="#fc7000"/><stop offset=".52" stop-color="#f26500"/><stop offset=".73" stop-color="#e15400"/><stop offset=".8" stop-color="#832d00"/><stop offset=".81" stop-color="#622100"/><stop offset=".82" stop-color="#591e00"/><stop offset=".83" stop-color="#561d00"/><stop offset=".84" stop-color="#3b1400"/><stop offset=".85" stop-color="#250c00"/><stop offset=".87" stop-color="#140700"/><stop offset=".89" stop-color="#fff"/><stop offset=".92" stop-color="#020100"/><stop offset="1"/></radialGradient><linearGradient id="a" x1=".16" x2="14.05" y1="57.6" y2="57.6" gradientUnits="userSpaceOnUse"><stop offset="0" stop-color="#a87f4a"/><stop offset="1" stop-color="#99682a"/></linearGradient><linearGradient id="b" x1="13.96" x2="79.03" y1="48.79" y2="48.79" gradientUnits="userSpaceOnUse"><stop offset="0" stop-color="#ffe7c9"/><stop offset="1" stop-color="#f5ca95"/></linearGradient><linearGradient id="c" x1="15.69" x2="77.44" y1="48.8" y2="48.8" gradientUnits="userSpaceOnUse"><stop offset="0" stop-color="#a37033"/><stop offset="1" stop-color="#a3753e"/></linearGradient><linearGradient id="d" x1="56.72" x2="14.19" y1="93.11" y2="50.65" gradientUnits="userSpaceOnUse"><stop offset="0" stop-color="#d49546"/><stop offset="1" stop-color="#f0c692"/></linearGradient><linearGradient id="e" x1="77.52" x2="56.35" y1="79.66" y2="58.54" gradientUnits="userSpaceOnUse"><stop offset="0" stop-color="#a37033"/><stop offset="1" stop-color="#d4a05f"/></linearGradient><linearGradient id="f" x1="34.61" x2="35.76" y1="90.03" y2="83.57" gradientUnits="userSpaceOnUse"><stop offset="0" stop-color="#a48a7b"/><stop offset="1" stop-color="#e3ddd3"/></linearGradient><linearGradient id="g" x1="68.9" x2="65.77" y1="86.36" y2="80.94" gradientUnits="userSpaceOnUse"><stop offset="0" stop-color="#a48a7b"/><stop offset=".15" stop-color="#beaca1"/><stop offset=".31" stop-color="#d6cac3"/><stop offset=".47" stop-color="#e8e1dd"/><stop offset=".64" stop-color="#f5f2f0"/><stop offset=".81" stop-color="#fcfcfb"/><stop offset="1" stop-color="#fff"/></linearGradient><linearGradient id="h" x1="38.73" x2="77.44" y1="48.8" y2="48.8" gradientUnits="userSpaceOnUse"><stop offset="0" stop-color="#b38246"/><stop offset="1" stop-color="#e3ac68"/></linearGradient><linearGradient id="i" x1="35.08" x2="35.08" y1="86.88" y2="50.88" gradientUnits="userSpaceOnUse"><stop offset="0" stop-color="#e3ddd3"/><stop offset="1" stop-color="#a48a7b"/></linearGradient><linearGradient id="j" x1="67.63" x2="67.63" y1="86.38" y2="45.59" gradientUnits="userSpaceOnUse"><stop offset="0" stop-color="#e3ddd3"/><stop offset="1" stop-color="#a48a7b"/></linearGradient><linearGradient id="k" x1="4.65" x2="56.22" y1="65.86" y2="65.86" gradientUnits="userSpaceOnUse"><stop offset="0" stop-color="#f0d0a8"/><stop offset="1" stop-color="#e6b06c"/></linearGradient><linearGradient id="l" x1="56.22" x2="93.8" y1="62.05" y2="62.05" gradientUnits="userSpaceOnUse"><stop offset="0" stop-color="#deb27a"/><stop offset="1" stop-color="#d49546"/></linearGradient><linearGradient id="m" x1="26.94" x2="28.74" y1="77.26" y2="67.02" gradientUnits="userSpaceOnUse"><stop offset="0" stop-color="#a48a7b"/><stop offset="1"/></linearGradient><linearGradient id="n" x1="63.74" x2="93.81" y1="69.76" y2="69.76" gradientUnits="userSpaceOnUse"><stop offset="0" stop-color="#a48a7b"/><stop offset="1"/></linearGradient><linearGradient id="r" x1="18.35" x2="18.35" y1="75.15" y2="5.39" gradientUnits="userSpaceOnUse"><stop offset="0" stop-color="#ffe906"/><stop offset=".04" stop-color="#edd806"/><stop offset=".19" stop-color="#afa004"/><stop offset=".34" stop-color="#7a6f03"/><stop offset=".48" stop-color="#4e4702"/><stop offset=".62" stop-color="#2c2801"/><stop offset=".75" stop-color="#141200"/><stop offset=".87" stop-color="#050500"/><stop offset=".97"/></linearGradient><linearGradient id="s" x1="61.05" x2="61.05" y1="82.08" y2="5.89" gradientUnits="userSpaceOnUse"><stop offset="0" stop-color="#ffe906"/><stop offset=".03" stop-color="#f2dd06"/><stop offset=".18" stop-color="#b3a304"/><stop offset=".34" stop-color="#7c7103"/><stop offset=".48" stop-color="#504902"/><stop offset=".62" stop-color="#2d2901"/><stop offset=".75" stop-color="#141200"/><stop offset=".88" stop-color="#050500"/><stop offset=".97"/></linearGradient><linearGradient id="t" x1="37.01" x2="37.01" y1="78.54" y2="5.63" gradientUnits="userSpaceOnUse"><stop offset="0" stop-color="#ffe906"/><stop offset=".07" stop-color="#d0be05"/><stop offset=".16" stop-color="#9f9204"/><stop offset=".25" stop-color="#756b03"/><stop offset=".35" stop-color="#514a02"/><stop offset=".45" stop-color="#332f01"/><stop offset=".56" stop-color="#1d1a01"/><stop offset=".67" stop-color="#0c0b00"/><stop offset=".8" stop-color="#030300"/><stop offset=".97"/></linearGradient><linearGradient id="u" x1="77.68" x2="77.68" y1="70.6" y2="5.05" gradientUnits="userSpaceOnUse"><stop offset="0" stop-color="#ffe906"/><stop offset=".09" stop-color="#d7c405"/><stop offset=".22" stop-color="#9f9104"/><stop offset=".35" stop-color="#6e6503"/><stop offset=".49" stop-color="#464002"/><stop offset=".62" stop-color="#282401"/><stop offset=".74" stop-color="#121000"/><stop offset=".86" stop-color="#040400"/><stop offset=".97"/></linearGradient><linearGradient id="v" x1="82.53" x2="82.53" y1="63.67" y2="12.84" gradientUnits="userSpaceOnUse"><stop offset="0" stop-color="#ffe906"/><stop offset=".09" stop-color="#d7c405"/><stop offset=".22" stop-color="#9f9104"/><stop offset=".35" stop-color="#6e6503"/><stop offset=".49" stop-color="#464002"/><stop offset=".62" stop-color="#282401"/><stop offset=".74" stop-color="#121000"/><stop offset=".86" stop-color="#040400"/><stop offset=".97"/></linearGradient><linearGradient id="w" x1="10.07" x2="10.07" y1="66.48" y2="17.43" gradientUnits="userSpaceOnUse"><stop offset="0" stop-color="#ffe906"/><stop offset=".09" stop-color="#d7c405"/><stop offset=".22" stop-color="#9f9104"/><stop offset=".35" stop-color="#6e6503"/><stop offset=".49" stop-color="#464002"/><stop offset=".62" stop-color="#282401"/><stop offset=".74" stop-color="#121000"/><stop offset=".86" stop-color="#040400"/><stop offset=".97"/></linearGradient></defs><path fill="url(#a)" d="M13.967 50.88L.16 64.296l13.886-7.06z"/><path fill="#999" d="M13.96 50.877l.47 33.97 41.604 8.96 22.577-15.239.418-32.98-40.3-6.668z"/><path fill="url(#b)" d="M13.96 50.877l42.257 7.789 22.812-13.077-40.3-6.669z"/><path fill="url(#c)" d="M15.69 50.645l40.43 7.45 21.324-12.217-38.629-6.408z"/><path fill="url(#d)" d="M56.034 93.81l.183-35.141L13.96 50.88l.47 33.97z"/><path fill="url(#e)" d="M56.223 58.667l-.183 35.141L78.617 78.57l.418-32.979z"/><path fill="url(#f)" d="M14.357 79.79v5.028l41.604 8.96v-4.506c-3.706 2.762-38.707-3.334-41.761-9.482z" opacity=".5"/><path fill="url(#g)" d="M78.663 73.49v5.054L56.06 93.783V89.25c6.03 1.459 21.48-11.019 22.681-15.63z"/><path fill="url(#h)" d="M38.808 39.47l-.078 15.422 17.383 3.204 21.324-12.218z"/><path fill="url(#i)" d="M13.96 50.88l.392 28.733 35.47 7.268 6.395-28.212z" opacity=".75"/><path fill="url(#j)" d="M56.22 58.667L67 86.384l11.614-7.815.418-32.979z"/><path fill="url(#k)" d="M13.968 50.88L4.65 72.085l42.648 8.753 8.927-22.17z"/><path fill="url(#l)" d="M56.22 58.667l15.66 19.824L93.805 64.06 79.032 45.59z"/><path fill="url(#m)" d="M7.26 65.98l-2.61 6.096 42.648 8.753 3.968-9.847c-7.83 4.897-40.822.65-43.928-5.002z" opacity=".6"/><path fill="url(#n)" d="M63.74 68.204c5.403 3.517 21.48 2.917 27.667-7.164l2.401 2.996-21.95 14.457-8.118-10.42z" opacity=".5"/><path fill="url(#o)" d="M92.605 0H0l15.687 50.641 40.43 7.45L77.44 45.874z"/><path fill="url(#p)" d="M73.529 0H19.37l6.656 52.543L56.12 58.09l11.406-6.538z"/><path fill="url(#q)" d="M46.432 89.407c16.592 0 30.042-13.424 30.042-29.983 0-16.56-13.45-29.984-30.042-29.984-16.592 0-30.042 13.424-30.042 29.983 0 16.56 13.45 29.984 30.042 29.984z"/><path fill="url(#r)" d="M23.439 0H7.23l12.085 51.318 10.153 1.876z" opacity=".5"/><path fill="url(#s)" d="M57.11 0h11.928l-5.769 54.002-7.151 4.09-3.028-.522z" opacity=".5"/><path fill="url(#t)" d="M44.16 0H29.83l3.263 53.845 9.396 1.746z"/><path fill="url(#u)" d="M85.009 0h-5.82L70.34 49.938l3.028-1.72z"/><path fill="url(#v)" d="M90.725 8.91L74.36 47.646l3.08-1.771z"/><path fill="url(#w)" d="M2.27 13.65l15.634 37.382-2.218-.391z" opacity=".35"/><path fill="url(#x)" d="M32.239 36.909c3.21 19.511 3.21 35.766 0 36.287-3.21.521-8.43-14.848-11.641-34.386-3.21-19.537-3.21-35.766 0-36.287 3.21-.521 8.43 14.874 11.64 34.386z" opacity=".15"/><path fill="url(#y)" d="M70.401 46.234c2.998-18.516 3.185-33.888.416-34.335-2.768-.446-7.443 14.202-10.442 32.718-2.998 18.516-3.184 33.888-.416 34.335 2.769.446 7.444-14.202 10.442-32.718z" opacity=".5"/><path fill="url(#z)" d="M22.755 45.536c4.855 16.463 7.282 30.244 5.403 30.79-1.88.548-7.334-12.347-12.19-28.81-4.854-16.464-7.281-30.245-5.402-30.818 1.88-.573 7.334 12.374 12.19 28.838z" opacity=".25"/><path fill="url(#A)" d="M61.411 52.853c-1.905 18.235-5.011 32.875-6.943 32.693-1.931-.183-1.983-15.161 0-33.422 1.984-18.261 4.985-32.823 6.865-32.693 1.879.13 1.983 15.16.078 33.422z" opacity=".5"/><path fill="url(#B)" d="M33.933 51.163a2.195 2.195 0 01-3.054-.625 2.237 2.237 0 01.627-3.048 2.222 2.222 0 013.053.652 2.16 2.16 0 01-.626 3.021z"/><path fill="url(#C)" d="M49.726 53.822a1.646 1.646 0 01-2.296-.468 1.665 1.665 0 01.47-2.293 1.7 1.7 0 012.322.469 1.64 1.64 0 01-.496 2.292z" opacity=".8"/><path fill="url(#D)" d="M35.573 35.742a1.359 1.359 0 01-2.075-1.422 1.38 1.38 0 01.588-.87 1.37 1.37 0 011.892.403 1.363 1.363 0 01-.405 1.889z" opacity=".8"/><path fill="url(#E)" d="M55.177 42.93a1.673 1.673 0 01-2.297-.468 1.614 1.614 0 01.47-2.293 1.646 1.646 0 012.297.469 1.664 1.664 0 01-.47 2.292z" opacity=".8"/><path fill="url(#F)" d="M46.85 35.246a1.594 1.594 0 01-2.218-.469 1.587 1.587 0 01.443-2.214 1.62 1.62 0 012.245.443 1.613 1.613 0 01-.47 2.24z"/><path fill="url(#G)" d="M46.091 52.934a3.895 3.895 0 01-5.729-1.8 3.874 3.874 0 01.878-4.218 3.892 3.892 0 016.548 2.034 3.874 3.874 0 01-1.697 3.984z" opacity=".5"/><path fill="url(#H)" d="M56.533 50.772a2.876 2.876 0 01-3.967-.833 2.887 2.887 0 01.835-3.986 2.876 2.876 0 013.967.834 2.887 2.887 0 01-.835 3.985z" opacity=".5"/><path fill="url(#I)" d="M63.005 37.065a2.065 2.065 0 01-2.845-.573 2.057 2.057 0 011.333-3.155 2.067 2.067 0 012.417 1.632 2.028 2.028 0 01-.905 2.096z" opacity=".5"/><path fill="url(#J)" d="M24.481 51.295a3.424 3.424 0 01-5.034-1.59A3.406 3.406 0 0120.222 46a3.421 3.421 0 015.251.554 3.459 3.459 0 01-.992 4.742z" opacity=".75"/><path fill="url(#K)" d="M60.577 44.646a2.118 2.118 0 012.924.6 2.133 2.133 0 01-.957 3.176 2.144 2.144 0 01-2.342-.48 2.135 2.135 0 01.375-3.296z" opacity=".75"/><path fill="url(#L)" d="M44.345 47.963a1.516 1.516 0 01-2.088-.443 1.538 1.538 0 011.045-2.338 1.545 1.545 0 011.565.697 1.509 1.509 0 01-.522 2.084z"/><path fill="url(#M)" d="M49.85 44.441a2.196 2.196 0 01-3.23-1.01 2.184 2.184 0 01.49-2.377 2.194 2.194 0 013.366.34 2.21 2.21 0 01-.626 3.047z"/><path fill="url(#N)" d="M70.03 44.257a1.49 1.49 0 01-2.063-.417 1.538 1.538 0 011.045-2.338 1.545 1.545 0 011.565.697 1.483 1.483 0 01-.548 2.058z"/><path fill="url(#O)" d="M40.98 42.28a2.67 2.67 0 01-4.083-1.732 2.657 2.657 0 011.159-2.723 2.672 2.672 0 013.693.769 2.658 2.658 0 01-.77 3.686z"/><path fill="url(#P)" d="M47.552 53.165a.68.68 0 01-.947-.706.677.677 0 01.216-.414.68.68 0 01.94.182.702.702 0 01-.21.938z"/><path fill="url(#Q)" d="M57.992 54.215a.68.68 0 01-.947-.706.677.677 0 01.216-.414.68.68 0 01.94.182.702.702 0 01-.21.938z"/><path fill="url(#R)" d="M61.36 47.54a.967.967 0 011.305.287.91.91 0 01-.287 1.277.941.941 0 01-1.279-.26.962.962 0 01.261-1.303z"/><path fill="url(#S)" d="M48.207 41.45a.68.68 0 01-1.009-.692.677.677 0 01.252-.428.68.68 0 011.008.693.677.677 0 01-.251.427z"/><path fill="url(#T)" d="M42.958 28.007a.68.68 0 011.035.45.65.65 0 01-.304.67.653.653 0 01-.914-.182.676.676 0 01.183-.938z"/><path fill="url(#U)" d="M30.485 44.384a.68.68 0 01-.94-.208.676.676 0 01.21-.912.627.627 0 01.913.182.676.676 0 01-.183.938z"/><path fill="url(#V)" d="M48.552 21.906a1.28 1.28 0 01-1.898-.579 1.274 1.274 0 01.955-1.736 1.281 1.281 0 011.309.57 1.25 1.25 0 01-.366 1.745z" opacity=".5"/><path fill="url(#W)" d="M28.506 38.503a2.169 2.169 0 01-3.31-2.252 2.16 2.16 0 01.935-1.369 2.143 2.143 0 012.976.625 2.134 2.134 0 01-.6 2.996z"/><path fill="url(#X)" d="M28.662 40.143a1.464 1.464 0 01-2.165-.665 1.456 1.456 0 011.087-1.983 1.464 1.464 0 011.495.642 1.456 1.456 0 01-.417 2.006z" opacity=".75"/><path fill="url(#Y)" d="M54.24 31.857a1.15 1.15 0 01-1.768-1.172 1.146 1.146 0 01.9-.903 1.15 1.15 0 011.18.486 1.144 1.144 0 01-.313 1.59z"/><path fill="url(#Z)" d="M63.402 42.094a.758.758 0 01-1.144-.804.755.755 0 011.046-.525c.137.06.253.16.333.287a.729.729 0 01-.235 1.042z"/><path fill="url(#aa)" d="M26.36 48.715a2.094 2.094 0 01-3.203-1.354 2.084 2.084 0 01.907-2.136 2.064 2.064 0 012.897.599 2.082 2.082 0 01-.6 2.891z"/><path fill="url(#ab)" d="M42.026 41.055a1.13 1.13 0 01-1.734-1.159 1.126 1.126 0 011.329-.884 1.13 1.13 0 01.886 1.326 1.13 1.13 0 01-.481.717z"/><path fill="url(#ac)" d="M53.43 50.953a1.333 1.333 0 01-1.77-.424 1.326 1.326 0 01.797-2.022 1.334 1.334 0 011.625 1.062 1.326 1.326 0 01-.651 1.384z"/><path fill="url(#ad)" d="M51.057 39.205a1.046 1.046 0 01-1.41-.312.963.963 0 01.288-1.381 1.019 1.019 0 011.588 1.047 1.015 1.015 0 01-.466.646z"/><path fill="url(#ae)" d="M70.681 42.543a.765.765 0 01-1.165-.795.762.762 0 01.33-.481.784.784 0 011.07.208.754.754 0 01-.235 1.068z" opacity=".5"/><path fill="url(#af)" d="M33.666 48.09a3.423 3.423 0 01-4.75-.99 3.459 3.459 0 01.991-4.74 3.435 3.435 0 015.251 2.228 3.418 3.418 0 01-1.492 3.502z" opacity=".75"/><path fill="url(#ag)" d="M33.775 43.506a1.265 1.265 0 01-1.749-.365 1.259 1.259 0 01.366-1.745 1.265 1.265 0 011.748.364 1.259 1.259 0 01-.365 1.746z"/></svg>