<svg xmlns="http://www.w3.org/2000/svg" width="30" height="30"><path fill="#c5fcda" d="M13.479 3.854c-.767-1.42.074-3.248 1.62-3.719 1.336-.407 2.273.153 3.097 1.067.858.952 1.568 2.005 2 3.222.074.207.182.24.376.17 1.446-.525 2.943-.627 4.466-.525 1.565.107 2.726 1.815 2.233 3.297-.398 1.196-1.283 1.868-2.555 1.941a1.41 1.41 0 00-.158.044c.346.16.628.296.915.424 1.28.57 2.564 1.136 3.843 1.708.16.07.308.161.441.273.249.213.306.48.166.788-.633 1.397-1.258 2.794-1.899 4.191-.18.394-.444.479-.864.336-.062-.022-.128-.034-.233-.059-.012.13-.03.24-.03.35v11.876c-.012.575-.203.764-.78.764H5.874c-.623 0-.801-.167-.802-.794a6030.08 6030.08 0 010-12.459c0-.609.224-.815.84-.815h18.296l.015-.081c-.203-.096-.405-.194-.61-.286l-6.745-3.02a6356.609 6356.609 0 01-8.471-3.81l-1.944-.874c-.555-.26-.667-.574-.415-1.132.577-1.272 1.152-2.546 1.726-3.82.28-.622.64-.77 1.258-.496l4.614 2.058c.085.038.171.07.257.106l.029-.054c-.15-.223-.318-.436-.444-.671zm5.057 24.504c0 .408 0 .412.422.412 2.095 0 4.191-.002 6.287.007.273 0 .372-.07.372-.358-.01-3.618-.01-7.236 0-10.854 0-.284-.092-.36-.37-.359-2.106.01-4.212.005-6.318.004-.393 0-.394 0-.394.381l.001 5.382zm-12.195-.234c0 .136.005.272 0 .408-.004.155.059.236.223.233.117-.004.234.006.35.006h6.112c.395 0 .398 0 .398-.41 0-3.6.002-7.199.006-10.797 0-.257-.067-.358-.347-.357-2.125.01-4.25.01-6.376 0-.305 0-.377.1-.375.386.015 1.791.01 3.586.01 5.38zm8.366-5.15v5.468c0 .175-.016.335.241.331a87.5 87.5 0 012.017-.003c.215 0 .29-.083.288-.291a6683.17 6683.17 0 010-10.968c0-.228-.083-.305-.31-.3-.623.01-1.247.019-1.872 0-.303-.01-.376.095-.375.384.016 1.789.01 3.583.01 5.378zM28.26 12.378a3481.419 3481.419 0 00-6.956-3.118c-.148-.066-.27-.105-.357.09-.412.92-.828 1.84-1.248 2.759-.075.163-.028.249.133.313.19.074.373.165.56.249 2.15.963 4.3 1.928 6.447 2.895.226.102.321.058.418-.16.387-.879.791-1.75 1.189-2.626.024-.054.044-.107.091-.221a2.038 2.038 0 00-.277-.181zM14.829 10.23c.056-.066.106-.138.149-.214.392-.853.78-1.71 1.167-2.57.166-.367.158-.372-.204-.534-1.342-.6-2.683-1.2-4.023-1.804-.95-.427-1.902-.85-2.85-1.281-.199-.09-.308-.068-.404.15-.387.88-.789 1.751-1.192 2.623-.092.196-.075.311.144.407 2.34 1.04 4.677 2.084 7.013 3.132zm1.026-8.967c-.662-.013-1.192.392-1.368 1.048-.145.542.162 1.29.678 1.542.734.358 1.478.696 2.231 1.015.45.182.911.341 1.378.476.317.095.42-.015.302-.317a8.936 8.936 0 00-2.296-3.393c-.235-.215-.59-.301-.888-.446zm8.354 3.938c-1.122.035-2.154.163-3.155.469-.201.062-.377.2-.565.304.153.141.283.328.462.416 1.064.524 2.134 1.033 3.217 1.521.522.233 1.033.103 1.44-.263.423-.38.538-.89.372-1.438-.154-.512-.486-.861-1.03-.953-.27-.045-.545-.041-.741-.056zM19.8 8.675a1.167 1.167 0 00-.204-.151c-.585-.27-1.176-.516-1.749-.806-.271-.138-.373-.054-.48.184a165.98 165.98 0 01-1.17 2.534c-.096.201-.035.302.151.385.596.264 1.191.53 1.78.808.214.101.31.038.4-.162.388-.856.79-1.707 1.185-2.561.027-.061.047-.126.087-.231zm.061-1.394c-.462-.649-.543-.685-1.165-.541zM6.643 2.507c.035.46-.166.856-.382 1.233-.647 1.132-1.533 2.074-2.457 2.979-.309.302-.643.305-.96.01C1.885 5.83.989 4.875.34 3.718-.332 2.522.015 1.177 1.174.56 1.805.223 2.46.235 3.11.548c.114.054.293.073.4.021 1.5-.715 3.115.282 3.132 1.938zm-4.47-.91c-.388.063-.637.223-.794.524-.164.318-.146.634.019.948.458.868 1.133 1.566 1.787 2.283.11.116.204.08.29-.028.578-.74 1.175-1.467 1.726-2.225a.937.937 0 00-.16-1.263c-.343-.28-.788-.221-1.195.158-.388.363-.702.341-1.084-.024-.165-.157-.39-.25-.589-.373z"/><path fill="#c5fcda" d="M7.275 11.54c-.082.201-.2.614-.405.978-.63 1.12-1.521 2.038-2.418 2.938-.337.338-.653.337-1 .01-.925-.876-1.772-1.822-2.437-2.92-.873-1.44-.142-2.715.679-3.18.666-.38 1.345-.386 2.047-.065a.524.524 0 00.394.015c1.513-.726 3.157.317 3.14 2.225zm-4.528-1.338c-.234.132-.449.206-.596.349-.334.329-.382.815-.064 1.254.534.736 1.123 1.433 1.69 2.146.112.142.215.128.33-.009.162-.193.353-.363.504-.564.425-.565.858-1.127 1.245-1.717a.909.909 0 00-.16-1.169.84.84 0 00-1.2.096c-.314.357-.756.437-1.125 0-.142-.168-.39-.248-.624-.387z"/></svg>