<svg xmlns="http://www.w3.org/2000/svg" width="94" height="107" viewBox="0 0 94 107"><defs><linearGradient id="mo7ia" x1="-.04" x2="13.76" y1="59" y2="59" gradientUnits="userSpaceOnUse"><stop offset="0" stop-color="#a87f4a"/><stop offset="1" stop-color="#99682a"/></linearGradient><linearGradient id="mo7ib" x1="13.63" x2="79.08" y1="50.16" y2="50.16" gradientUnits="userSpaceOnUse"><stop offset="0" stop-color="#ffe7c9"/><stop offset="1" stop-color="#f5ca95"/></linearGradient><linearGradient id="mo7ic" x1="15.45" x2="77.38" y1="50.16" y2="50.16" gradientUnits="userSpaceOnUse"><stop offset="0" stop-color="#a37033"/><stop offset="1" stop-color="#a3753e"/></linearGradient><linearGradient id="mo7id" x1="59.57" x2="11.23" y1="102.93" y2="54.54" gradientUnits="userSpaceOnUse"><stop offset="0" stop-color="#d49546"/><stop offset="1" stop-color="#f0c692"/></linearGradient><linearGradient id="mo7ie" x1="80.23" x2="53.12" y1="89.61" y2="62.49" gradientUnits="userSpaceOnUse"><stop offset="0" stop-color="#a37033"/><stop offset="1" stop-color="#d4a05f"/></linearGradient><linearGradient id="mo7if" x1="34.55" x2="35.67" y1="102.88" y2="96.46" gradientUnits="userSpaceOnUse"><stop offset="0" stop-color="#a48a7b"/><stop offset="1" stop-color="#e3ddd3"/></linearGradient><linearGradient id="mo7ig" x1="68.69" x2="65.59" y1="99.22" y2="93.85" gradientUnits="userSpaceOnUse"><stop offset="0" stop-color="#a48a7b"/><stop offset=".15" stop-color="#beaca1"/><stop offset=".31" stop-color="#d6cac3"/><stop offset=".47" stop-color="#e8e1dd"/><stop offset=".64" stop-color="#f5f2f0"/><stop offset=".81" stop-color="#fcfcfb"/><stop offset="1" stop-color="#fff"/></linearGradient><linearGradient id="mo7ih" x1="34.88" x2="34.88" y1="88.04" y2="52.17" gradientUnits="userSpaceOnUse"><stop offset="0" stop-color="#e3ddd3"/><stop offset="1" stop-color="#a48a7b"/></linearGradient><linearGradient id="mo7ii" x1="38.56" x2="77.39" y1="50.16" y2="50.16" gradientUnits="userSpaceOnUse"><stop offset="0" stop-color="#b38246"/><stop offset="1" stop-color="#e3ac68"/></linearGradient><linearGradient id="mo7ij" x1="67.59" x2="67.59" y1="97.4" y2="47.11" gradientUnits="userSpaceOnUse"><stop offset="0" stop-color="#e3ddd3"/><stop offset="1" stop-color="#a48a7b"/></linearGradient><linearGradient id="mo7ik" x1="4.33" x2="56.11" y1="66.85" y2="66.85" gradientUnits="userSpaceOnUse"><stop offset="0" stop-color="#f0d0a8"/><stop offset="1" stop-color="#e6b06c"/></linearGradient><linearGradient id="mo7il" x1="56.11" x2="93.77" y1="63.25" y2="63.25" gradientUnits="userSpaceOnUse"><stop offset="0" stop-color="#deb27a"/><stop offset="1" stop-color="#d49546"/></linearGradient><linearGradient id="mo7im" x1="26.81" x2="28.61" y1="77.95" y2="67.71" gradientUnits="userSpaceOnUse"><stop offset="0" stop-color="#a48a7b"/><stop offset="1"/></linearGradient><linearGradient id="mo7in" x1="63.71" x2="93.76" y1="71.02" y2="71.02" gradientUnits="userSpaceOnUse"><stop offset="0" stop-color="#a48a7b"/><stop offset="1"/></linearGradient><radialGradient id="mo7io" cx="46.63" cy="72.89" r="76.75" gradientUnits="userSpaceOnUse"><stop offset="0" stop-color="#ffe906"/><stop offset=".09" stop-color="#d7c405"/><stop offset=".22" stop-color="#9f9104"/><stop offset=".35" stop-color="#6e6503"/><stop offset=".49" stop-color="#464002"/><stop offset=".62" stop-color="#282401"/><stop offset=".74" stop-color="#121000"/><stop offset=".86" stop-color="#040400"/><stop offset=".97"/></radialGradient><radialGradient id="mo7ip" cx="45.75" cy="57.88" r="61.72" gradientUnits="userSpaceOnUse"><stop offset="0" stop-color="#ffe906"/><stop offset=".03" stop-color="#f2dd06"/><stop offset=".18" stop-color="#b3a304"/><stop offset=".34" stop-color="#7c7103"/><stop offset=".48" stop-color="#504902"/><stop offset=".62" stop-color="#2d2901"/><stop offset=".75" stop-color="#141200"/><stop offset=".88" stop-color="#050500"/><stop offset=".97"/></radialGradient><radialGradient id="mo7iq" cx="46.36" cy="60.23" r="29.98" gradientUnits="userSpaceOnUse"><stop offset="0" stop-color="#ffed00"/><stop offset=".13" stop-color="#cdbf00"/><stop offset=".31" stop-color="#908600"/><stop offset=".48" stop-color="#5c5600"/><stop offset=".64" stop-color="#343100"/><stop offset=".78" stop-color="#181600"/><stop offset=".91" stop-color="#060600"/><stop offset="1"/></radialGradient><linearGradient id="mo7ir" x1="18.35" x2="18.35" y1="76.54" y2="6.2" gradientUnits="userSpaceOnUse"><stop offset="0" stop-color="#ffe906"/><stop offset=".04" stop-color="#edd806"/><stop offset=".19" stop-color="#afa004"/><stop offset=".34" stop-color="#7a6f03"/><stop offset=".48" stop-color="#4e4702"/><stop offset=".62" stop-color="#2c2801"/><stop offset=".75" stop-color="#141200"/><stop offset=".87" stop-color="#050500"/><stop offset=".97"/></linearGradient><linearGradient id="mo7is" x1="60.96" x2="60.96" y1="82.96" y2="6.67" gradientUnits="userSpaceOnUse"><stop offset="0" stop-color="#ffe906"/><stop offset=".03" stop-color="#f2dd06"/><stop offset=".18" stop-color="#b3a304"/><stop offset=".34" stop-color="#7c7103"/><stop offset=".48" stop-color="#504902"/><stop offset=".62" stop-color="#2d2901"/><stop offset=".75" stop-color="#141200"/><stop offset=".88" stop-color="#050500"/><stop offset=".97"/></linearGradient><linearGradient id="mo7it" x1="36.94" x2="36.94" y1="79.69" y2="6.44" gradientUnits="userSpaceOnUse"><stop offset="0" stop-color="#ffe906"/><stop offset=".07" stop-color="#d0be05"/><stop offset=".16" stop-color="#9f9204"/><stop offset=".25" stop-color="#756b03"/><stop offset=".35" stop-color="#514a02"/><stop offset=".45" stop-color="#332f01"/><stop offset=".56" stop-color="#1d1a01"/><stop offset=".67" stop-color="#0c0b00"/><stop offset=".8" stop-color="#030300"/><stop offset=".97"/></linearGradient><linearGradient id="mo7iu" x1="77.47" x2="77.47" y1="72.21" y2="5.92" gradientUnits="userSpaceOnUse"><stop offset="0" stop-color="#ffe906"/><stop offset=".09" stop-color="#d7c405"/><stop offset=".22" stop-color="#9f9104"/><stop offset=".35" stop-color="#6e6503"/><stop offset=".49" stop-color="#464002"/><stop offset=".62" stop-color="#282401"/><stop offset=".74" stop-color="#121000"/><stop offset=".86" stop-color="#040400"/><stop offset=".97"/></linearGradient><linearGradient id="mo7iv" x1="82.5" x2="82.5" y1="65" y2="14.34" gradientUnits="userSpaceOnUse"><stop offset="0" stop-color="#ffe906"/><stop offset=".09" stop-color="#d7c405"/><stop offset=".22" stop-color="#9f9104"/><stop offset=".35" stop-color="#6e6503"/><stop offset=".49" stop-color="#464002"/><stop offset=".62" stop-color="#282401"/><stop offset=".74" stop-color="#121000"/><stop offset=".86" stop-color="#040400"/><stop offset=".97"/></linearGradient><linearGradient id="mo7iw" x1="9.86" x2="9.86" y1="67.79" y2="18.7" gradientUnits="userSpaceOnUse"><stop offset="0" stop-color="#ffe906"/><stop offset=".09" stop-color="#d7c405"/><stop offset=".22" stop-color="#9f9104"/><stop offset=".35" stop-color="#6e6503"/><stop offset=".49" stop-color="#464002"/><stop offset=".62" stop-color="#282401"/><stop offset=".74" stop-color="#121000"/><stop offset=".86" stop-color="#040400"/><stop offset=".97"/></linearGradient><radialGradient id="mo7ix" cx="24.67" cy="39.36" r="5.84" gradientUnits="userSpaceOnUse"><stop offset="0" stop-color="#fc0"/><stop offset=".08" stop-color="#d9ae00"/><stop offset=".22" stop-color="#a08000"/><stop offset=".36" stop-color="#6f5900"/><stop offset=".5" stop-color="#473900"/><stop offset=".63" stop-color="#282000"/><stop offset=".76" stop-color="#120e00"/><stop offset=".89" stop-color="#050400"/><stop offset="1"/></radialGradient><radialGradient id="mo7iy" cx="64.68" cy="48.72" r="5.03" gradientUnits="userSpaceOnUse"><stop offset="0" stop-color="#fc0"/><stop offset=".08" stop-color="#d9ae00"/><stop offset=".22" stop-color="#a08000"/><stop offset=".36" stop-color="#6f5900"/><stop offset=".5" stop-color="#473900"/><stop offset=".63" stop-color="#282000"/><stop offset=".76" stop-color="#120e00"/><stop offset=".89" stop-color="#050400"/><stop offset="1"/></radialGradient><radialGradient id="mo7iz" cx="23.45" cy="53.25" r="3.54" gradientUnits="userSpaceOnUse"><stop offset="0" stop-color="#fc0"/><stop offset=".08" stop-color="#d9ae00"/><stop offset=".22" stop-color="#a08000"/><stop offset=".36" stop-color="#6f5900"/><stop offset=".5" stop-color="#473900"/><stop offset=".63" stop-color="#282000"/><stop offset=".76" stop-color="#120e00"/><stop offset=".89" stop-color="#050400"/><stop offset="1"/></radialGradient><radialGradient id="mo7iA" cx="61.18" cy="52.26" r="3.55" gradientUnits="userSpaceOnUse"><stop offset="0" stop-color="#fc0"/><stop offset=".08" stop-color="#d9ae00"/><stop offset=".22" stop-color="#a08000"/><stop offset=".36" stop-color="#6f5900"/><stop offset=".5" stop-color="#473900"/><stop offset=".63" stop-color="#282000"/><stop offset=".76" stop-color="#120e00"/><stop offset=".89" stop-color="#050400"/><stop offset="1"/></radialGradient><radialGradient id="mo7iB" cx="34.33" cy="50.67" r="2.2" gradientUnits="userSpaceOnUse"><stop offset=".03" stop-color="#ff7300"/><stop offset=".3" stop-color="#fc7000"/><stop offset=".52" stop-color="#f26500"/><stop offset=".73" stop-color="#e15400"/><stop offset=".8" stop-color="#832d00"/><stop offset=".81" stop-color="#622100"/><stop offset=".82" stop-color="#591e00"/><stop offset=".83" stop-color="#561d00"/><stop offset=".84" stop-color="#3b1400"/><stop offset=".85" stop-color="#250c00"/><stop offset=".87" stop-color="#140700"/><stop offset=".89" stop-color="#090300"/><stop offset=".92" stop-color="#020100"/><stop offset="1"/></radialGradient><radialGradient id="mo7iC" cx="50.47" cy="53.8" r="1.68" gradientUnits="userSpaceOnUse"><stop offset=".03" stop-color="#ff7300"/><stop offset=".3" stop-color="#fc7000"/><stop offset=".52" stop-color="#f26500"/><stop offset=".73" stop-color="#e15400"/><stop offset=".8" stop-color="#832d00"/><stop offset=".81" stop-color="#622100"/><stop offset=".82" stop-color="#591e00"/><stop offset=".83" stop-color="#561d00"/><stop offset=".84" stop-color="#3b1400"/><stop offset=".85" stop-color="#250c00"/><stop offset=".87" stop-color="#140700"/><stop offset=".89" stop-color="#090300"/><stop offset=".92" stop-color="#020100"/><stop offset="1"/></radialGradient><radialGradient id="mo7iD" cx="36.45" cy="35.85" r="1.36" gradientUnits="userSpaceOnUse"><stop offset=".03" stop-color="#ff7300"/><stop offset=".3" stop-color="#fc7000"/><stop offset=".52" stop-color="#f26500"/><stop offset=".73" stop-color="#e15400"/><stop offset=".8" stop-color="#832d00"/><stop offset=".81" stop-color="#622100"/><stop offset=".82" stop-color="#591e00"/><stop offset=".83" stop-color="#561d00"/><stop offset=".84" stop-color="#3b1400"/><stop offset=".85" stop-color="#250c00"/><stop offset=".87" stop-color="#140700"/><stop offset=".89" stop-color="#090300"/><stop offset=".92" stop-color="#020100"/><stop offset="1"/></radialGradient><radialGradient id="mo7iE" cx="55.9" cy="42.85" r="1.67" gradientUnits="userSpaceOnUse"><stop offset=".03" stop-color="#ff7300"/><stop offset=".3" stop-color="#fc7000"/><stop offset=".52" stop-color="#f26500"/><stop offset=".73" stop-color="#e15400"/><stop offset=".8" stop-color="#832d00"/><stop offset=".81" stop-color="#622100"/><stop offset=".82" stop-color="#591e00"/><stop offset=".83" stop-color="#561d00"/><stop offset=".84" stop-color="#3b1400"/><stop offset=".85" stop-color="#250c00"/><stop offset=".87" stop-color="#140700"/><stop offset=".89" stop-color="#090300"/><stop offset=".92" stop-color="#020100"/><stop offset="1"/></radialGradient><radialGradient id="mo7iF" cx="47.61" cy="35.18" r="1.62" gradientUnits="userSpaceOnUse"><stop offset=".03" stop-color="#ff7300"/><stop offset=".3" stop-color="#fc7000"/><stop offset=".52" stop-color="#f26500"/><stop offset=".73" stop-color="#e15400"/><stop offset=".8" stop-color="#832d00"/><stop offset=".81" stop-color="#622100"/><stop offset=".82" stop-color="#591e00"/><stop offset=".83" stop-color="#561d00"/><stop offset=".84" stop-color="#3b1400"/><stop offset=".85" stop-color="#250c00"/><stop offset=".87" stop-color="#140700"/><stop offset=".89" stop-color="#090300"/><stop offset=".92" stop-color="#020100"/><stop offset="1"/></radialGradient><radialGradient id="mo7iG" cx="45.59" cy="51.03" r="3.9" gradientUnits="userSpaceOnUse"><stop offset=".03" stop-color="#ff4a84"/><stop offset=".16" stop-color="#fc4882"/><stop offset=".28" stop-color="#f1407d"/><stop offset=".38" stop-color="#df3373"/><stop offset=".48" stop-color="#c72166"/><stop offset=".58" stop-color="#a70a55"/><stop offset=".62" stop-color="#99004d"/><stop offset=".64" stop-color="#8b0046"/><stop offset=".71" stop-color="#5a002d"/><stop offset=".78" stop-color="#33001a"/><stop offset=".85" stop-color="#17000c"/><stop offset=".91" stop-color="#060003"/><stop offset=".95"/></radialGradient><radialGradient id="mo7iH" cx="56.61" cy="49.72" r="2.88" gradientUnits="userSpaceOnUse"><stop offset=".03" stop-color="#ff4a84"/><stop offset=".16" stop-color="#fc4882"/><stop offset=".28" stop-color="#f1407d"/><stop offset=".38" stop-color="#df3373"/><stop offset=".48" stop-color="#c72166"/><stop offset=".58" stop-color="#a70a55"/><stop offset=".62" stop-color="#99004d"/><stop offset=".64" stop-color="#8b0046"/><stop offset=".71" stop-color="#5a002d"/><stop offset=".78" stop-color="#33001a"/><stop offset=".85" stop-color="#17000c"/><stop offset=".91" stop-color="#060003"/><stop offset=".95"/></radialGradient><radialGradient id="mo7iI" cx="63.56" cy="36.64" r="2.07" gradientUnits="userSpaceOnUse"><stop offset=".03" stop-color="#ff4a84"/><stop offset=".16" stop-color="#fc4882"/><stop offset=".28" stop-color="#f1407d"/><stop offset=".38" stop-color="#df3373"/><stop offset=".48" stop-color="#c72166"/><stop offset=".58" stop-color="#a70a55"/><stop offset=".62" stop-color="#99004d"/><stop offset=".64" stop-color="#8b0046"/><stop offset=".71" stop-color="#5a002d"/><stop offset=".78" stop-color="#33001a"/><stop offset=".85" stop-color="#17000c"/><stop offset=".91" stop-color="#060003"/><stop offset=".95"/></radialGradient><radialGradient id="mo7iJ" cx="24.2" cy="49.76" r="3.43" gradientUnits="userSpaceOnUse"><stop offset=".03" stop-color="#ff4a84"/><stop offset=".16" stop-color="#fc4882"/><stop offset=".28" stop-color="#f1407d"/><stop offset=".38" stop-color="#df3373"/><stop offset=".48" stop-color="#c72166"/><stop offset=".58" stop-color="#a70a55"/><stop offset=".62" stop-color="#99004d"/><stop offset=".64" stop-color="#8b0046"/><stop offset=".71" stop-color="#5a002d"/><stop offset=".78" stop-color="#33001a"/><stop offset=".85" stop-color="#17000c"/><stop offset=".91" stop-color="#060003"/><stop offset=".95"/></radialGradient><radialGradient id="mo7iK" cx="65.32" cy="46.25" r="2.12" gradientUnits="userSpaceOnUse"><stop offset=".03" stop-color="#ff4a84"/><stop offset=".16" stop-color="#fc4882"/><stop offset=".28" stop-color="#f1407d"/><stop offset=".38" stop-color="#df3373"/><stop offset=".48" stop-color="#c72166"/><stop offset=".58" stop-color="#a70a55"/><stop offset=".62" stop-color="#99004d"/><stop offset=".64" stop-color="#8b0046"/><stop offset=".71" stop-color="#5a002d"/><stop offset=".78" stop-color="#33001a"/><stop offset=".85" stop-color="#17000c"/><stop offset=".91" stop-color="#060003"/><stop offset=".95"/></radialGradient><radialGradient id="mo7iL" cx="45.16" cy="48.12" r="1.49" gradientUnits="userSpaceOnUse"><stop offset=".03" stop-color="#ff7300"/><stop offset=".3" stop-color="#fc7000"/><stop offset=".52" stop-color="#f26500"/><stop offset=".73" stop-color="#e15400"/><stop offset=".8" stop-color="#832d00"/><stop offset=".81" stop-color="#622100"/><stop offset=".82" stop-color="#591e00"/><stop offset=".83" stop-color="#561d00"/><stop offset=".84" stop-color="#3b1400"/><stop offset=".85" stop-color="#250c00"/><stop offset=".87" stop-color="#140700"/><stop offset=".89" stop-color="#090300"/><stop offset=".92" stop-color="#020100"/><stop offset="1"/></radialGradient><radialGradient id="mo7iM" cx="50.28" cy="43.9" r="2.2" gradientUnits="userSpaceOnUse"><stop offset=".03" stop-color="#ff7300"/><stop offset=".3" stop-color="#fc7000"/><stop offset=".52" stop-color="#f26500"/><stop offset=".73" stop-color="#e15400"/><stop offset=".8" stop-color="#832d00"/><stop offset=".81" stop-color="#622100"/><stop offset=".82" stop-color="#591e00"/><stop offset=".83" stop-color="#561d00"/><stop offset=".84" stop-color="#3b1400"/><stop offset=".85" stop-color="#250c00"/><stop offset=".87" stop-color="#140700"/><stop offset=".89" stop-color="#090300"/><stop offset=".92" stop-color="#020100"/><stop offset="1"/></radialGradient><radialGradient id="mo7iN" cx="70.9" cy="44.32" r="1.49" gradientUnits="userSpaceOnUse"><stop offset=".03" stop-color="#ff7300"/><stop offset=".3" stop-color="#fc7000"/><stop offset=".52" stop-color="#f26500"/><stop offset=".73" stop-color="#e15400"/><stop offset=".8" stop-color="#832d00"/><stop offset=".81" stop-color="#622100"/><stop offset=".82" stop-color="#591e00"/><stop offset=".83" stop-color="#561d00"/><stop offset=".84" stop-color="#3b1400"/><stop offset=".85" stop-color="#250c00"/><stop offset=".87" stop-color="#140700"/><stop offset=".89" stop-color="#090300"/><stop offset=".92" stop-color="#020100"/><stop offset="1"/></radialGradient><radialGradient id="mo7iO" cx="41.14" cy="41.36" r="2.67" gradientUnits="userSpaceOnUse"><stop offset=".03" stop-color="#ff9100"/><stop offset=".22" stop-color="#ff8e00"/><stop offset=".38" stop-color="#ff8300"/><stop offset=".53" stop-color="#ff7100"/><stop offset=".67" stop-color="#ff5900"/><stop offset=".8" stop-color="#9d2a00"/><stop offset=".81" stop-color="#621f00"/><stop offset=".82" stop-color="#591d00"/><stop offset=".83" stop-color="#561d00"/><stop offset=".84" stop-color="#3b1400"/><stop offset=".85" stop-color="#250c00"/><stop offset=".87" stop-color="#140700"/><stop offset=".89" stop-color="#090300"/><stop offset=".92" stop-color="#020100"/><stop offset="1"/></radialGradient><radialGradient id="mo7iP" cx="48.85" cy="53.89" r=".68" gradientUnits="userSpaceOnUse"><stop offset=".03" stop-color="#ff7300"/><stop offset=".3" stop-color="#fc7000"/><stop offset=".52" stop-color="#f26500"/><stop offset=".73" stop-color="#e15400"/><stop offset=".8" stop-color="#832d00"/><stop offset=".81" stop-color="#622100"/><stop offset=".82" stop-color="#591e00"/><stop offset=".83" stop-color="#561d00"/><stop offset=".84" stop-color="#3b1400"/><stop offset=".85" stop-color="#250c00"/><stop offset=".87" stop-color="#140700"/><stop offset=".89" stop-color="#090300"/><stop offset=".92" stop-color="#020100"/><stop offset="1"/></radialGradient><radialGradient id="mo7iQ" cx="59.3" cy="55.02" r=".68" gradientUnits="userSpaceOnUse"><stop offset=".03" stop-color="#ff7300"/><stop offset=".3" stop-color="#fc7000"/><stop offset=".52" stop-color="#f26500"/><stop offset=".73" stop-color="#e15400"/><stop offset=".8" stop-color="#832d00"/><stop offset=".81" stop-color="#622100"/><stop offset=".82" stop-color="#591e00"/><stop offset=".83" stop-color="#561d00"/><stop offset=".84" stop-color="#3b1400"/><stop offset=".85" stop-color="#250c00"/><stop offset=".87" stop-color="#140700"/><stop offset=".89" stop-color="#090300"/><stop offset=".92" stop-color="#020100"/><stop offset="1"/></radialGradient><radialGradient id="mo7iR" cx="65.47" cy="48.18" r=".94" gradientUnits="userSpaceOnUse"><stop offset=".03" stop-color="#ff7300"/><stop offset=".3" stop-color="#fc7000"/><stop offset=".52" stop-color="#f26500"/><stop offset=".73" stop-color="#e15400"/><stop offset=".8" stop-color="#832d00"/><stop offset=".81" stop-color="#622100"/><stop offset=".82" stop-color="#591e00"/><stop offset=".83" stop-color="#561d00"/><stop offset=".84" stop-color="#3b1400"/><stop offset=".85" stop-color="#250c00"/><stop offset=".87" stop-color="#140700"/><stop offset=".89" stop-color="#090300"/><stop offset=".92" stop-color="#020100"/><stop offset="1"/></radialGradient><radialGradient id="mo7iS" cx="49.47" cy="42.19" r=".68" gradientUnits="userSpaceOnUse"><stop offset=".03" stop-color="#ff7300"/><stop offset=".3" stop-color="#fc7000"/><stop offset=".52" stop-color="#f26500"/><stop offset=".73" stop-color="#e15400"/><stop offset=".8" stop-color="#832d00"/><stop offset=".81" stop-color="#622100"/><stop offset=".82" stop-color="#591e00"/><stop offset=".83" stop-color="#561d00"/><stop offset=".84" stop-color="#3b1400"/><stop offset=".85" stop-color="#250c00"/><stop offset=".87" stop-color="#140700"/><stop offset=".89" stop-color="#090300"/><stop offset=".92" stop-color="#020100"/><stop offset="1"/></radialGradient><radialGradient id="mo7iT" cx="46.89" cy="28.32" r=".68" gradientUnits="userSpaceOnUse"><stop offset=".03" stop-color="#ff7300"/><stop offset=".3" stop-color="#fc7000"/><stop offset=".52" stop-color="#f26500"/><stop offset=".73" stop-color="#e15400"/><stop offset=".8" stop-color="#832d00"/><stop offset=".81" stop-color="#622100"/><stop offset=".82" stop-color="#591e00"/><stop offset=".83" stop-color="#561d00"/><stop offset=".84" stop-color="#3b1400"/><stop offset=".85" stop-color="#250c00"/><stop offset=".87" stop-color="#140700"/><stop offset=".89" stop-color="#090300"/><stop offset=".92" stop-color="#020100"/><stop offset="1"/></radialGradient><radialGradient id="mo7iU" cx="31.75" cy="45.14" r=".68" gradientUnits="userSpaceOnUse"><stop offset=".03" stop-color="#ff7300"/><stop offset=".3" stop-color="#fc7000"/><stop offset=".52" stop-color="#f26500"/><stop offset=".73" stop-color="#e15400"/><stop offset=".8" stop-color="#832d00"/><stop offset=".81" stop-color="#622100"/><stop offset=".82" stop-color="#591e00"/><stop offset=".83" stop-color="#561d00"/><stop offset=".84" stop-color="#3b1400"/><stop offset=".85" stop-color="#250c00"/><stop offset=".87" stop-color="#140700"/><stop offset=".89" stop-color="#090300"/><stop offset=".92" stop-color="#020100"/><stop offset="1"/></radialGradient><radialGradient id="mo7iV" cx="49.51" cy="22.14" r="1.28" gradientUnits="userSpaceOnUse"><stop offset=".03" stop-color="#ff7300"/><stop offset=".3" stop-color="#fc7000"/><stop offset=".52" stop-color="#f26500"/><stop offset=".73" stop-color="#e15400"/><stop offset=".8" stop-color="#832d00"/><stop offset=".81" stop-color="#622100"/><stop offset=".82" stop-color="#591e00"/><stop offset=".83" stop-color="#561d00"/><stop offset=".84" stop-color="#3b1400"/><stop offset=".85" stop-color="#250c00"/><stop offset=".87" stop-color="#140700"/><stop offset=".89" stop-color="#090300"/><stop offset=".92" stop-color="#020100"/><stop offset="1"/></radialGradient><radialGradient id="mo7iW" cx="28.92" cy="37.95" r="2.17" gradientUnits="userSpaceOnUse"><stop offset=".03" stop-color="#ff7300"/><stop offset=".3" stop-color="#fc7000"/><stop offset=".52" stop-color="#f26500"/><stop offset=".73" stop-color="#e15400"/><stop offset=".8" stop-color="#832d00"/><stop offset=".81" stop-color="#622100"/><stop offset=".82" stop-color="#591e00"/><stop offset=".83" stop-color="#561d00"/><stop offset=".84" stop-color="#3b1400"/><stop offset=".85" stop-color="#250c00"/><stop offset=".87" stop-color="#140700"/><stop offset=".89" stop-color="#090300"/><stop offset=".92" stop-color="#020100"/><stop offset="1"/></radialGradient><radialGradient id="mo7iX" cx="29.45" cy="40.11" r="1.47" gradientUnits="userSpaceOnUse"><stop offset=".03" stop-color="#ff7300"/><stop offset=".3" stop-color="#fc7000"/><stop offset=".52" stop-color="#f26500"/><stop offset=".73" stop-color="#e15400"/><stop offset=".8" stop-color="#832d00"/><stop offset=".81" stop-color="#622100"/><stop offset=".82" stop-color="#591e00"/><stop offset=".83" stop-color="#561d00"/><stop offset=".84" stop-color="#3b1400"/><stop offset=".85" stop-color="#250c00"/><stop offset=".87" stop-color="#140700"/><stop offset=".89" stop-color="#090300"/><stop offset=".92" stop-color="#020100"/><stop offset="1"/></radialGradient><radialGradient id="mo7iY" cx="55.36" cy="32.16" r="1.15" gradientUnits="userSpaceOnUse"><stop offset=".03" stop-color="#ff7300"/><stop offset=".3" stop-color="#fc7000"/><stop offset=".52" stop-color="#f26500"/><stop offset=".73" stop-color="#e15400"/><stop offset=".8" stop-color="#832d00"/><stop offset=".81" stop-color="#622100"/><stop offset=".82" stop-color="#591e00"/><stop offset=".83" stop-color="#561d00"/><stop offset=".84" stop-color="#3b1400"/><stop offset=".85" stop-color="#250c00"/><stop offset=".87" stop-color="#140700"/><stop offset=".89" stop-color="#090300"/><stop offset=".92" stop-color="#020100"/><stop offset="1"/></radialGradient><radialGradient id="mo7iZ" cx="64.64" cy="42.78" r=".78" gradientUnits="userSpaceOnUse"><stop offset=".03" stop-color="#ff7300"/><stop offset=".3" stop-color="#fc7000"/><stop offset=".52" stop-color="#f26500"/><stop offset=".73" stop-color="#e15400"/><stop offset=".8" stop-color="#832d00"/><stop offset=".81" stop-color="#622100"/><stop offset=".82" stop-color="#591e00"/><stop offset=".83" stop-color="#561d00"/><stop offset=".84" stop-color="#3b1400"/><stop offset=".85" stop-color="#250c00"/><stop offset=".87" stop-color="#140700"/><stop offset=".89" stop-color="#090300"/><stop offset=".92" stop-color="#020100"/><stop offset="1"/></radialGradient><radialGradient id="mo7iaa" cx="26.81" cy="48.29" r="2.09" gradientUnits="userSpaceOnUse"><stop offset=".03" stop-color="#ff4a84"/><stop offset=".16" stop-color="#fc4882"/><stop offset=".28" stop-color="#f1407d"/><stop offset=".38" stop-color="#df3373"/><stop offset=".48" stop-color="#c72166"/><stop offset=".58" stop-color="#a70a55"/><stop offset=".62" stop-color="#99004d"/><stop offset=".64" stop-color="#8b0046"/><stop offset=".71" stop-color="#5a002d"/><stop offset=".78" stop-color="#33001a"/><stop offset=".85" stop-color="#17000c"/><stop offset=".91" stop-color="#060003"/><stop offset=".95"/></radialGradient><radialGradient id="mo7iab" cx="43.04" cy="41.43" r="1.13" gradientUnits="userSpaceOnUse"><stop offset=".03" stop-color="#ff7300"/><stop offset=".3" stop-color="#fc7000"/><stop offset=".52" stop-color="#f26500"/><stop offset=".73" stop-color="#e15400"/><stop offset=".8" stop-color="#832d00"/><stop offset=".81" stop-color="#622100"/><stop offset=".82" stop-color="#591e00"/><stop offset=".83" stop-color="#561d00"/><stop offset=".84" stop-color="#3b1400"/><stop offset=".85" stop-color="#250c00"/><stop offset=".87" stop-color="#140700"/><stop offset=".89" stop-color="#090300"/><stop offset=".92" stop-color="#020100"/><stop offset="1"/></radialGradient><radialGradient id="mo7iac" cx="54.36" cy="51.19" r="1.33" gradientUnits="userSpaceOnUse"><stop offset=".03" stop-color="#ff7300"/><stop offset=".3" stop-color="#fc7000"/><stop offset=".52" stop-color="#f26500"/><stop offset=".73" stop-color="#e15400"/><stop offset=".8" stop-color="#832d00"/><stop offset=".81" stop-color="#622100"/><stop offset=".82" stop-color="#591e00"/><stop offset=".83" stop-color="#561d00"/><stop offset=".84" stop-color="#3b1400"/><stop offset=".85" stop-color="#250c00"/><stop offset=".87" stop-color="#140700"/><stop offset=".89" stop-color="#090300"/><stop offset=".92" stop-color="#020100"/><stop offset="1"/></radialGradient><radialGradient id="mo7iad" cx="52.13" cy="39.63" r="1.02" gradientUnits="userSpaceOnUse"><stop offset=".03" stop-color="#ff7300"/><stop offset=".3" stop-color="#fc7000"/><stop offset=".52" stop-color="#f26500"/><stop offset=".73" stop-color="#e15400"/><stop offset=".8" stop-color="#832d00"/><stop offset=".81" stop-color="#622100"/><stop offset=".82" stop-color="#591e00"/><stop offset=".83" stop-color="#561d00"/><stop offset=".84" stop-color="#3b1400"/><stop offset=".85" stop-color="#250c00"/><stop offset=".87" stop-color="#140700"/><stop offset=".89" stop-color="#090300"/><stop offset=".92" stop-color="#020100"/><stop offset="1"/></radialGradient><radialGradient id="mo7iae" cx="71.95" cy="43.22" r=".76" gradientUnits="userSpaceOnUse"><stop offset=".03" stop-color="#ff7300"/><stop offset=".3" stop-color="#fc7000"/><stop offset=".52" stop-color="#f26500"/><stop offset=".73" stop-color="#e15400"/><stop offset=".8" stop-color="#832d00"/><stop offset=".81" stop-color="#622100"/><stop offset=".82" stop-color="#591e00"/><stop offset=".83" stop-color="#561d00"/><stop offset=".84" stop-color="#3b1400"/><stop offset=".85" stop-color="#250c00"/><stop offset=".87" stop-color="#140700"/><stop offset=".89" stop-color="#090300"/><stop offset=".92" stop-color="#020100"/><stop offset="1"/></radialGradient><radialGradient id="mo7iaf" cx="33.41" cy="46.55" r="3.43" gradientUnits="userSpaceOnUse"><stop offset=".03" stop-color="#ff4a84"/><stop offset=".16" stop-color="#fc4882"/><stop offset=".28" stop-color="#f1407d"/><stop offset=".38" stop-color="#df3373"/><stop offset=".48" stop-color="#c72166"/><stop offset=".58" stop-color="#a70a55"/><stop offset=".62" stop-color="#99004d"/><stop offset=".64" stop-color="#8b0046"/><stop offset=".71" stop-color="#5a002d"/><stop offset=".78" stop-color="#33001a"/><stop offset=".85" stop-color="#17000c"/><stop offset=".91" stop-color="#060003"/><stop offset=".95"/></radialGradient><radialGradient id="mo7iag" cx="34.71" cy="43.76" r="1.26" gradientUnits="userSpaceOnUse"><stop offset=".03" stop-color="#ff7300"/><stop offset=".3" stop-color="#fc7000"/><stop offset=".52" stop-color="#f26500"/><stop offset=".73" stop-color="#e15400"/><stop offset=".8" stop-color="#832d00"/><stop offset=".81" stop-color="#622100"/><stop offset=".82" stop-color="#591e00"/><stop offset=".83" stop-color="#561d00"/><stop offset=".84" stop-color="#3b1400"/><stop offset=".85" stop-color="#250c00"/><stop offset=".87" stop-color="#140700"/><stop offset=".89" stop-color="#090300"/><stop offset=".92" stop-color="#020100"/><stop offset="1"/></radialGradient></defs><g><g><g><path fill="url(#mo7ia)" d="M13.632 52.17l.13 7.065L-.04 65.831z"/></g><g><path fill="#999" d="M38.553 40.83L13.63 52.17l.781 45.547 41.46 8.916 22.475-15.147.73-44.373z"/></g><g><path fill="url(#mo7ib)" d="M13.63 52.17l42.476 7.327 22.97-12.384-40.523-6.283z"/></g><g><path fill="url(#mo7ic)" d="M15.48 51.933l40.523 6.987 21.38-11.524L38.633 41.4z"/></g><g><path fill="url(#mo7id)" d="M55.871 106.632l.235-47.136L13.63 52.17l.781 45.546z"/></g><g><path fill="url(#mo7ie)" d="M56.114 59.494l-.234 47.136 22.475-15.147.73-44.373z"/></g><g opacity=".5"><path fill="url(#mo7if)" d="M14.338 92.68v5.032l41.46 8.916v-4.484c-3.724 2.763-38.569-3.285-41.668-9.464z"/></g><g><path fill="url(#mo7ig)" d="M78.535 86.42v5.058L56.06 106.625v-4.484c6.016 1.46 21.329-11.002 22.527-15.643z"/></g><g opacity=".75"><path fill="url(#mo7ih)" d="M13.63 52.17l.52 29.278 34.117 6.596 7.839-28.548z"/></g><g><path fill="url(#mo7ii)" d="M38.634 41.4l-.104 14.495 17.475 3.025 21.38-11.524z"/></g><g><path fill="url(#mo7ij)" d="M56.11 59.494L69.574 97.4l8.777-5.918.729-44.373z"/></g><g><path fill="url(#mo7ik)" d="M13.631 52.17L4.36 73.235l42.892 8.317 8.855-22.056z"/></g><g><path fill="url(#mo7il)" d="M56.11 59.494L79.08 47.11l14.688 18.537-21.954 13.739z"/></g><g opacity=".6"><path fill="url(#mo7im)" d="M7.024 67.16L4.42 73.235l42.866 8.395 3.959-9.855c-7.813 4.9-41.07 1.12-44.273-4.537z"/></g><g opacity=".5"><path fill="url(#mo7in)" d="M63.71 69.142c5.365 3.52 21.485 3.571 27.657-6.492l2.396 2.998L71.81 79.414z"/></g><g><path fill="url(#mo7io)" d="M92.436.78H.01l15.47 51.151 40.522 6.988 21.38-11.524z"/></g><g><path fill="url(#mo7ip)" d="M73.379.78H19.34l6.693 52.95 29.975 5.189 11.329-6.101z"/></g><g><g><path fill="url(#mo7iq)" d="M75.533 67.163c3.823-16.125-6.136-32.299-22.244-36.125-16.107-3.827-32.264 6.143-36.086 22.268C13.38 69.43 23.339 85.605 39.447 89.43c16.107 3.827 32.264-6.143 36.086-22.268z"/></g></g><g opacity=".5"><path fill="url(#mo7ir)" d="M23.402.78H7.23l12.162 51.803 10.052 1.8z"/></g><g opacity=".5"><path fill="url(#mo7is)" d="M57 .78h11.902l-5.781 54.358-7.11 3.78-3.021-.52z"/></g><g><path fill="url(#mo7it)" d="M44.103.78H29.78l3.255 54.097 9.376 1.747z"/></g><g><path fill="url(#mo7iu)" d="M84.84.78H79.06L70.1 51.332l2.969-1.59z"/></g><g><path fill="url(#mo7iv)" d="M90.647 10.4L74.37 49.037l3.021-1.642z"/></g><g opacity=".35"><path fill="url(#mo7iw)" d="M2.07 14.89l15.6 37.412-2.188-.365z"/></g><g><g opacity=".15"><path fill="url(#mo7ix)" d="M32.177 37.754c3.204 19.527 3.204 35.796 0 36.317-3.203.521-8.385-14.887-11.615-34.414-3.23-19.527-3.203-35.795 0-36.343 3.203-.547 8.49 14.887 11.615 34.44z"/></g><g opacity=".5"><path fill="url(#mo7iy)" d="M71.557 50.344c3.047-18.484 3.28-33.892.52-34.257-2.76-.365-7.448 14.13-10.417 32.615-2.969 18.484-3.281 33.892-.52 34.257 2.76.365 7.396-14.209 10.417-32.615z"/></g><g opacity=".25"><path fill="url(#mo7iz)" d="M22.72 46.381c4.844 16.451 7.266 30.269 5.39 30.816-1.874.548-7.291-12.357-12.161-28.834-4.87-16.477-7.266-30.269-5.391-30.816 1.875-.548 7.318 12.358 12.162 28.834z"/></g><g opacity=".5"><path fill="url(#mo7iA)" d="M61.293 53.68c-1.875 18.25-4.974 32.929-6.928 32.72-1.953-.208-1.875-15.2-.078-33.45 1.797-18.249 5-32.9 6.928-32.718 1.927.182 1.979 15.173.078 33.449z"/></g></g><g><path fill="url(#mo7iB)" d="M33.867 52.013a2.238 2.238 0 0 1-3.047-.626 2.218 2.218 0 0 1 .651-3.05 2.16 2.16 0 0 1 3.021.625 2.191 2.191 0 0 1-.625 3.05z"/></g><g opacity=".8"><path fill="url(#mo7iC)" d="M49.63 54.67a1.666 1.666 0 0 1-2.652-1.737 1.67 1.67 0 0 1 2.044-1.175 1.667 1.667 0 0 1 1.21 1.878c-.066.407-.28.776-.602 1.034z"/></g><g opacity=".8"><path fill="url(#mo7iD)" d="M35.535 36.547a1.379 1.379 0 0 1-1.901-.39 1.357 1.357 0 0 1 1.413-2.06 1.354 1.354 0 0 1 .98 1.843 1.355 1.355 0 0 1-.492.607z"/></g><g opacity=".8"><path fill="url(#mo7iE)" d="M55.094 43.771a1.665 1.665 0 0 1-2.486-1.74c.078-.422.315-.798.663-1.05a1.665 1.665 0 0 1 2.486 1.741 1.669 1.669 0 0 1-.663 1.05z"/></g><g><path fill="url(#mo7iF)" d="M46.763 36.08a1.613 1.613 0 0 1-2.483-1.373 1.618 1.618 0 0 1 1.95-1.572 1.614 1.614 0 0 1 1.144 2.228 1.616 1.616 0 0 1-.611.716z"/></g><g opacity=".5"><path fill="url(#mo7iG)" d="M46.01 53.762a3.877 3.877 0 0 1-5.728-1.794 3.889 3.889 0 0 1 .881-4.227 3.88 3.88 0 0 1 6.516 3.567 3.885 3.885 0 0 1-1.67 2.454z"/></g><g opacity=".5"><path fill="url(#mo7iH)" d="M56.423 51.598a2.862 2.862 0 0 1-4.227-1.331 2.87 2.87 0 0 1 2.133-3.888 2.862 2.862 0 0 1 2.927 1.256 2.87 2.87 0 0 1-.833 3.963z"/></g><g opacity=".5"><path fill="url(#mo7iI)" d="M62.902 37.905a2.068 2.068 0 0 1-2.864-.6 2.074 2.074 0 0 1 1.348-3.169 2.067 2.067 0 0 1 2.417 1.651 2.074 2.074 0 0 1-.9 2.118z"/></g><g opacity=".75"><path fill="url(#mo7iJ)" d="M24.44 52.136a3.46 3.46 0 0 1-4.74-.99 3.418 3.418 0 0 1 1.589-5.03 3.408 3.408 0 0 1 4.624 2.529 3.419 3.419 0 0 1-1.473 3.491z"/></g><g opacity=".75"><path fill="url(#mo7iK)" d="M60.464 45.497a2.082 2.082 0 0 1 2.917.6 2.113 2.113 0 0 1-.469 2.945 2.134 2.134 0 0 1-2.943-.625 2.114 2.114 0 0 1 .495-2.92z"/></g><g><path fill="url(#mo7iL)" d="M44.264 48.86a1.483 1.483 0 0 1-2.057-.418 1.541 1.541 0 0 1 1.643-2.324 1.538 1.538 0 0 1 .961.681 1.487 1.487 0 0 1-.547 2.06z"/></g><g><path fill="url(#mo7iM)" d="M49.887 45.255a2.16 2.16 0 0 1-3.021-.625 2.192 2.192 0 0 1 .625-3.024 2.187 2.187 0 0 1 3.46 2.258 2.191 2.191 0 0 1-1.064 1.392z"/></g><g><path fill="url(#mo7iN)" d="M69.91 45.125a1.51 1.51 0 0 1-2.083-.443 1.542 1.542 0 0 1 1.643-2.324c.398.09.744.336.961.681a1.513 1.513 0 0 1-.52 2.086z"/></g><g><path fill="url(#mo7iO)" d="M40.9 43.124a2.66 2.66 0 0 1-3.685-.769 2.667 2.667 0 0 1 .768-3.689 2.603 2.603 0 0 1 3.672.756 2.609 2.609 0 0 1-.755 3.702z"/></g><g><path fill="url(#mo7iP)" d="M47.466 53.909a.65.65 0 0 1-.911-.183.678.678 0 0 1 .182-.938.702.702 0 0 1 .938.208.652.652 0 0 1-.209.913z"/></g><g><path fill="url(#mo7iQ)" d="M57.876 55.039a.65.65 0 0 1-.911-.183.678.678 0 0 1 .182-.938.702.702 0 0 1 .938.208.652.652 0 0 1-.209.913z"/></g><g><path fill="url(#mo7iR)" d="M61.266 48.387a.937.937 0 0 1 1.276.26.966.966 0 0 1-.26 1.304.937.937 0 1 1-1.016-1.564z"/></g><g><path fill="url(#mo7iS)" d="M48.113 42.284a.677.677 0 0 1-1.027-.709.652.652 0 0 1 .298-.412.65.65 0 0 1 .911.182.678.678 0 0 1-.182.939z"/></g><g><path fill="url(#mo7iT)" d="M42.904 28.833a.65.65 0 0 1 .911.182.678.678 0 1 1-1.12.73.652.652 0 0 1 .209-.912z"/></g><g><path fill="url(#mo7iU)" d="M30.436 45.129a.625.625 0 0 1-.911-.183.678.678 0 0 1 .182-.938.703.703 0 0 1 .938.208.678.678 0 0 1-.209.913z"/></g><g opacity=".5"><path fill="url(#mo7iV)" d="M48.452 22.815a1.275 1.275 0 0 1-1.962-1.078 1.278 1.278 0 0 1 1.537-1.25 1.276 1.276 0 0 1 .909 1.761c-.102.233-.27.43-.484.567z"/></g><g><path fill="url(#mo7iW)" d="M28.454 39.315a2.16 2.16 0 0 1-3.187-1.002 2.166 2.166 0 0 1 1.602-2.935 2.16 2.16 0 0 1 2.526 1.723 2.166 2.166 0 0 1-.941 2.214z"/></g><g opacity=".75"><path fill="url(#mo7iX)" d="M28.607 40.855a1.457 1.457 0 0 1-2.236-1.512 1.46 1.46 0 0 1 2.004-1.044c.266.114.491.305.648.549a1.435 1.435 0 0 1-.416 2.007z"/></g><g><path fill="url(#mo7iY)" d="M54.237 32.691a1.145 1.145 0 0 1-1.742-1.203 1.148 1.148 0 0 1 1.572-.815c.208.089.385.238.509.428a1.174 1.174 0 0 1-.339 1.59z"/></g><g><path fill="url(#mo7iZ)" d="M63.295 42.935a.78.78 0 0 1-1.189-.486.757.757 0 0 1 .33-.792.78.78 0 0 1 1.093.797.783.783 0 0 1-.234.48z"/></g><g><path fill="url(#mo7iaa)" d="M26.45 49.537a2.056 2.056 0 0 1-2.89-.6 2.087 2.087 0 0 1 .962-3.075 2.081 2.081 0 0 1 2.828 1.541 2.088 2.088 0 0 1-.9 2.134z"/></g><g><path fill="url(#mo7iab)" d="M42.073 41.894a1.145 1.145 0 0 1-1.563-.34 1.122 1.122 0 0 1 1.17-1.692 1.12 1.12 0 0 1 .875.874 1.122 1.122 0 0 1-.482 1.158z"/></g><g><path fill="url(#mo7iac)" d="M53.321 51.776a1.302 1.302 0 0 1-1.823-.365 1.33 1.33 0 0 1 1.37-2.094 1.327 1.327 0 0 1 .844.634 1.304 1.304 0 0 1-.39 1.825z"/></g><g><path fill="url(#mo7iad)" d="M50.95 39.915a1.015 1.015 0 1 1-1.12-1.695 1.067 1.067 0 0 1 1.406.287 1.018 1.018 0 0 1-.286 1.408z"/></g><g opacity=".5"><path fill="url(#mo7iae)" d="M70.562 43.359a.78.78 0 0 1-1.068-.209.763.763 0 1 1 1.386-.27.756.756 0 0 1-.318.479z"/></g><g opacity=".75"><path fill="url(#mo7iaf)" d="M33.609 48.938a3.414 3.414 0 0 1-4.727-1.004 3.423 3.423 0 0 1 1.003-4.731 3.384 3.384 0 0 1 4.713.99 3.417 3.417 0 0 1-.99 4.745z"/></g><g><path fill="url(#mo7iag)" d="M33.712 44.32a1.249 1.249 0 0 1-1.797-1.31 1.252 1.252 0 0 1 1.914-.86 1.25 1.25 0 0 1-.117 2.17z"/></g></g></g></svg>