<svg xmlns="http://www.w3.org/2000/svg" width="94" height="125"><defs><radialGradient id="o" cx="47.14" cy="71.71" r="75.78" gradientUnits="userSpaceOnUse"><stop offset="0" stop-color="#ffe906"/><stop offset=".09" stop-color="#d7c405"/><stop offset=".22" stop-color="#9f9104"/><stop offset=".35" stop-color="#6e6503"/><stop offset=".49" stop-color="#464002"/><stop offset=".62" stop-color="#282401"/><stop offset=".74" stop-color="#121000"/><stop offset=".86" stop-color="#040400"/><stop offset=".97"/></radialGradient><radialGradient id="p" cx="46.25" cy="56.96" r="60.95" gradientUnits="userSpaceOnUse"><stop offset="0" stop-color="#ffe906"/><stop offset=".03" stop-color="#f2dd06"/><stop offset=".18" stop-color="#b3a304"/><stop offset=".34" stop-color="#7c7103"/><stop offset=".48" stop-color="#504902"/><stop offset=".62" stop-color="#2d2901"/><stop offset=".75" stop-color="#141200"/><stop offset=".88" stop-color="#050500"/><stop offset=".97"/></radialGradient><radialGradient id="q" cx="46.86" cy="59.28" r="29.59" gradientUnits="userSpaceOnUse"><stop offset="0" stop-color="#ffed00"/><stop offset=".13" stop-color="#cdbf00"/><stop offset=".31" stop-color="#908600"/><stop offset=".48" stop-color="#5c5600"/><stop offset=".64" stop-color="#343100"/><stop offset=".78" stop-color="#181600"/><stop offset=".91" stop-color="#060600"/><stop offset="1"/></radialGradient><radialGradient id="x" cx="27.33" cy="38.09" r="5.81" gradientUnits="userSpaceOnUse"><stop offset="0" stop-color="#fc0"/><stop offset=".08" stop-color="#d9ae00"/><stop offset=".22" stop-color="#a08000"/><stop offset=".36" stop-color="#6f5900"/><stop offset=".5" stop-color="#473900"/><stop offset=".63" stop-color="#282000"/><stop offset=".76" stop-color="#120e00"/><stop offset=".89" stop-color="#050400"/><stop offset="1"/></radialGradient><radialGradient id="y" cx="65.57" cy="48.22" r="4.96" gradientUnits="userSpaceOnUse"><stop offset="0" stop-color="#fc0"/><stop offset=".08" stop-color="#d9ae00"/><stop offset=".22" stop-color="#a08000"/><stop offset=".36" stop-color="#6f5900"/><stop offset=".5" stop-color="#473900"/><stop offset=".63" stop-color="#282000"/><stop offset=".76" stop-color="#120e00"/><stop offset=".89" stop-color="#050400"/><stop offset="1"/></radialGradient><radialGradient id="z" cx="23.16" cy="50.78" r="3.49" gradientUnits="userSpaceOnUse"><stop offset="0" stop-color="#fc0"/><stop offset=".08" stop-color="#d9ae00"/><stop offset=".22" stop-color="#a08000"/><stop offset=".36" stop-color="#6f5900"/><stop offset=".5" stop-color="#473900"/><stop offset=".63" stop-color="#282000"/><stop offset=".76" stop-color="#120e00"/><stop offset=".89" stop-color="#050400"/><stop offset="1"/></radialGradient><radialGradient id="A" cx="60.63" cy="51.7" r="3.5" gradientUnits="userSpaceOnUse"><stop offset="0" stop-color="#fc0"/><stop offset=".08" stop-color="#d9ae00"/><stop offset=".22" stop-color="#a08000"/><stop offset=".36" stop-color="#6f5900"/><stop offset=".5" stop-color="#473900"/><stop offset=".63" stop-color="#282000"/><stop offset=".76" stop-color="#120e00"/><stop offset=".89" stop-color="#050400"/><stop offset="1"/></radialGradient><radialGradient id="B" cx="34.54" cy="49.76" r="2.16" gradientUnits="userSpaceOnUse"><stop offset=".03" stop-color="#ff7300"/><stop offset=".3" stop-color="#fc7000"/><stop offset=".52" stop-color="#f26500"/><stop offset=".73" stop-color="#e15400"/><stop offset=".8" stop-color="#832d00"/><stop offset=".81" stop-color="#622100"/><stop offset=".82" stop-color="#591e00"/><stop offset=".83" stop-color="#561d00"/><stop offset=".84" stop-color="#3b1400"/><stop offset=".85" stop-color="#250c00"/><stop offset=".87" stop-color="#140700"/><stop offset=".89" stop-color="#090300"/><stop offset=".92" stop-color="#020100"/><stop offset="1"/></radialGradient><radialGradient id="C" cx="50.49" cy="52.83" r="1.65" gradientUnits="userSpaceOnUse"><stop offset=".03" stop-color="#ff7300"/><stop offset=".3" stop-color="#fc7000"/><stop offset=".52" stop-color="#f26500"/><stop offset=".73" stop-color="#e15400"/><stop offset=".8" stop-color="#832d00"/><stop offset=".81" stop-color="#622100"/><stop offset=".82" stop-color="#591e00"/><stop offset=".83" stop-color="#561d00"/><stop offset=".84" stop-color="#3b1400"/><stop offset=".85" stop-color="#250c00"/><stop offset=".87" stop-color="#140700"/><stop offset=".89" stop-color="#090300"/><stop offset=".92" stop-color="#020100"/><stop offset="1"/></radialGradient><radialGradient id="D" cx="36.64" cy="35.2" r="1.34" gradientUnits="userSpaceOnUse"><stop offset=".03" stop-color="#ff7300"/><stop offset=".3" stop-color="#fc7000"/><stop offset=".52" stop-color="#f26500"/><stop offset=".73" stop-color="#e15400"/><stop offset=".8" stop-color="#832d00"/><stop offset=".81" stop-color="#622100"/><stop offset=".82" stop-color="#591e00"/><stop offset=".83" stop-color="#561d00"/><stop offset=".84" stop-color="#3b1400"/><stop offset=".85" stop-color="#250c00"/><stop offset=".87" stop-color="#140700"/><stop offset=".89" stop-color="#090300"/><stop offset=".92" stop-color="#020100"/><stop offset="1"/></radialGradient><radialGradient id="E" cx="55.86" cy="42.08" r="1.65" gradientUnits="userSpaceOnUse"><stop offset=".03" stop-color="#ff7300"/><stop offset=".3" stop-color="#fc7000"/><stop offset=".52" stop-color="#f26500"/><stop offset=".73" stop-color="#e15400"/><stop offset=".8" stop-color="#832d00"/><stop offset=".81" stop-color="#622100"/><stop offset=".82" stop-color="#591e00"/><stop offset=".83" stop-color="#561d00"/><stop offset=".84" stop-color="#3b1400"/><stop offset=".85" stop-color="#250c00"/><stop offset=".87" stop-color="#140700"/><stop offset=".89" stop-color="#090300"/><stop offset=".92" stop-color="#020100"/><stop offset="1"/></radialGradient><radialGradient id="F" cx="47.68" cy="34.52" r="1.6" gradientUnits="userSpaceOnUse"><stop offset=".03" stop-color="#ff7300"/><stop offset=".3" stop-color="#fc7000"/><stop offset=".52" stop-color="#f26500"/><stop offset=".73" stop-color="#e15400"/><stop offset=".8" stop-color="#832d00"/><stop offset=".81" stop-color="#622100"/><stop offset=".82" stop-color="#591e00"/><stop offset=".83" stop-color="#561d00"/><stop offset=".84" stop-color="#3b1400"/><stop offset=".85" stop-color="#250c00"/><stop offset=".87" stop-color="#140700"/><stop offset=".89" stop-color="#090300"/><stop offset=".92" stop-color="#020100"/><stop offset="1"/></radialGradient><radialGradient id="G" cx="45.66" cy="50.1" r="3.83" gradientUnits="userSpaceOnUse"><stop offset=".03" stop-color="#ff4a84"/><stop offset=".16" stop-color="#fc4882"/><stop offset=".28" stop-color="#f1407d"/><stop offset=".38" stop-color="#df3373"/><stop offset=".48" stop-color="#c72166"/><stop offset=".58" stop-color="#a70a55"/><stop offset=".62" stop-color="#99004d"/><stop offset=".64" stop-color="#8b0046"/><stop offset=".71" stop-color="#5a002d"/><stop offset=".78" stop-color="#33001a"/><stop offset=".85" stop-color="#17000c"/><stop offset=".91" stop-color="#060003"/><stop offset=".95"/></radialGradient><radialGradient id="H" cx="56.56" cy="48.8" r="2.83" gradientUnits="userSpaceOnUse"><stop offset=".03" stop-color="#ff4a84"/><stop offset=".16" stop-color="#fc4882"/><stop offset=".28" stop-color="#f1407d"/><stop offset=".38" stop-color="#df3373"/><stop offset=".48" stop-color="#c72166"/><stop offset=".58" stop-color="#a70a55"/><stop offset=".62" stop-color="#99004d"/><stop offset=".64" stop-color="#8b0046"/><stop offset=".71" stop-color="#5a002d"/><stop offset=".78" stop-color="#33001a"/><stop offset=".85" stop-color="#17000c"/><stop offset=".91" stop-color="#060003"/><stop offset=".95"/></radialGradient><radialGradient id="I" cx="63.4" cy="35.95" r="2.04" gradientUnits="userSpaceOnUse"><stop offset=".03" stop-color="#ff4a84"/><stop offset=".16" stop-color="#fc4882"/><stop offset=".28" stop-color="#f1407d"/><stop offset=".38" stop-color="#df3373"/><stop offset=".48" stop-color="#c72166"/><stop offset=".58" stop-color="#a70a55"/><stop offset=".62" stop-color="#99004d"/><stop offset=".64" stop-color="#8b0046"/><stop offset=".71" stop-color="#5a002d"/><stop offset=".78" stop-color="#33001a"/><stop offset=".85" stop-color="#17000c"/><stop offset=".91" stop-color="#060003"/><stop offset=".95"/></radialGradient><radialGradient id="J" cx="24.55" cy="48.87" r="3.37" gradientUnits="userSpaceOnUse"><stop offset=".03" stop-color="#ff4a84"/><stop offset=".16" stop-color="#fc4882"/><stop offset=".28" stop-color="#f1407d"/><stop offset=".38" stop-color="#df3373"/><stop offset=".48" stop-color="#c72166"/><stop offset=".58" stop-color="#a70a55"/><stop offset=".62" stop-color="#99004d"/><stop offset=".64" stop-color="#8b0046"/><stop offset=".71" stop-color="#5a002d"/><stop offset=".78" stop-color="#33001a"/><stop offset=".85" stop-color="#17000c"/><stop offset=".91" stop-color="#060003"/><stop offset=".95"/></radialGradient><radialGradient id="K" cx="65.14" cy="45.41" r="2.09" gradientUnits="userSpaceOnUse"><stop offset=".03" stop-color="#ff4a84"/><stop offset=".16" stop-color="#fc4882"/><stop offset=".28" stop-color="#f1407d"/><stop offset=".38" stop-color="#df3373"/><stop offset=".48" stop-color="#c72166"/><stop offset=".58" stop-color="#a70a55"/><stop offset=".62" stop-color="#99004d"/><stop offset=".64" stop-color="#8b0046"/><stop offset=".71" stop-color="#5a002d"/><stop offset=".78" stop-color="#33001a"/><stop offset=".85" stop-color="#17000c"/><stop offset=".91" stop-color="#060003"/><stop offset=".95"/></radialGradient><radialGradient id="L" cx="45.23" cy="47.25" r="1.47" gradientUnits="userSpaceOnUse"><stop offset=".03" stop-color="#ff7300"/><stop offset=".3" stop-color="#fc7000"/><stop offset=".52" stop-color="#f26500"/><stop offset=".73" stop-color="#e15400"/><stop offset=".8" stop-color="#832d00"/><stop offset=".81" stop-color="#622100"/><stop offset=".82" stop-color="#591e00"/><stop offset=".83" stop-color="#561d00"/><stop offset=".84" stop-color="#3b1400"/><stop offset=".85" stop-color="#250c00"/><stop offset=".87" stop-color="#140700"/><stop offset=".89" stop-color="#090300"/><stop offset=".92" stop-color="#020100"/><stop offset="1"/></radialGradient><radialGradient id="M" cx="50.3" cy="43.11" r="2.16" gradientUnits="userSpaceOnUse"><stop offset=".03" stop-color="#ff7300"/><stop offset=".3" stop-color="#fc7000"/><stop offset=".52" stop-color="#f26500"/><stop offset=".73" stop-color="#e15400"/><stop offset=".8" stop-color="#832d00"/><stop offset=".81" stop-color="#622100"/><stop offset=".82" stop-color="#591e00"/><stop offset=".83" stop-color="#561d00"/><stop offset=".84" stop-color="#3b1400"/><stop offset=".85" stop-color="#250c00"/><stop offset=".87" stop-color="#140700"/><stop offset=".89" stop-color="#090300"/><stop offset=".92" stop-color="#020100"/><stop offset="1"/></radialGradient><radialGradient id="N" cx="70.65" cy="43.52" r="1.47" gradientUnits="userSpaceOnUse"><stop offset=".03" stop-color="#ff7300"/><stop offset=".3" stop-color="#fc7000"/><stop offset=".52" stop-color="#f26500"/><stop offset=".73" stop-color="#e15400"/><stop offset=".8" stop-color="#832d00"/><stop offset=".81" stop-color="#622100"/><stop offset=".82" stop-color="#591e00"/><stop offset=".83" stop-color="#561d00"/><stop offset=".84" stop-color="#3b1400"/><stop offset=".85" stop-color="#250c00"/><stop offset=".87" stop-color="#140700"/><stop offset=".89" stop-color="#090300"/><stop offset=".92" stop-color="#020100"/><stop offset="1"/></radialGradient><radialGradient id="O" cx="41.28" cy="40.61" r="2.63" gradientUnits="userSpaceOnUse"><stop offset=".03" stop-color="#ff9100"/><stop offset=".22" stop-color="#ff8e00"/><stop offset=".38" stop-color="#ff8300"/><stop offset=".53" stop-color="#ff7100"/><stop offset=".67" stop-color="#ff5900"/><stop offset=".8" stop-color="#9d2a00"/><stop offset=".81" stop-color="#621f00"/><stop offset=".82" stop-color="#591d00"/><stop offset=".83" stop-color="#561d00"/><stop offset=".84" stop-color="#3b1400"/><stop offset=".85" stop-color="#250c00"/><stop offset=".87" stop-color="#140700"/><stop offset=".89" stop-color="#090300"/><stop offset=".92" stop-color="#020100"/><stop offset="1"/></radialGradient><radialGradient id="P" cx="48.87" cy="52.9" r=".67" gradientUnits="userSpaceOnUse"><stop offset=".03" stop-color="#ff7300"/><stop offset=".3" stop-color="#fc7000"/><stop offset=".52" stop-color="#f26500"/><stop offset=".73" stop-color="#e15400"/><stop offset=".8" stop-color="#832d00"/><stop offset=".81" stop-color="#622100"/><stop offset=".82" stop-color="#591e00"/><stop offset=".83" stop-color="#561d00"/><stop offset=".84" stop-color="#3b1400"/><stop offset=".85" stop-color="#250c00"/><stop offset=".87" stop-color="#140700"/><stop offset=".89" stop-color="#090300"/><stop offset=".92" stop-color="#020100"/><stop offset="1"/></radialGradient><radialGradient id="Q" cx="59.2" cy="54.03" r=".67" gradientUnits="userSpaceOnUse"><stop offset=".03" stop-color="#ff7300"/><stop offset=".3" stop-color="#fc7000"/><stop offset=".52" stop-color="#f26500"/><stop offset=".73" stop-color="#e15400"/><stop offset=".8" stop-color="#832d00"/><stop offset=".81" stop-color="#622100"/><stop offset=".82" stop-color="#591e00"/><stop offset=".83" stop-color="#561d00"/><stop offset=".84" stop-color="#3b1400"/><stop offset=".85" stop-color="#250c00"/><stop offset=".87" stop-color="#140700"/><stop offset=".89" stop-color="#090300"/><stop offset=".92" stop-color="#020100"/><stop offset="1"/></radialGradient><radialGradient id="R" cx="65.29" cy="47.31" r=".93" gradientUnits="userSpaceOnUse"><stop offset=".03" stop-color="#ff7300"/><stop offset=".3" stop-color="#fc7000"/><stop offset=".52" stop-color="#f26500"/><stop offset=".73" stop-color="#e15400"/><stop offset=".8" stop-color="#832d00"/><stop offset=".81" stop-color="#622100"/><stop offset=".82" stop-color="#591e00"/><stop offset=".83" stop-color="#561d00"/><stop offset=".84" stop-color="#3b1400"/><stop offset=".85" stop-color="#250c00"/><stop offset=".87" stop-color="#140700"/><stop offset=".89" stop-color="#090300"/><stop offset=".92" stop-color="#020100"/><stop offset="1"/></radialGradient><radialGradient id="S" cx="49.5" cy="41.42" r=".67" gradientUnits="userSpaceOnUse"><stop offset=".03" stop-color="#ff7300"/><stop offset=".3" stop-color="#fc7000"/><stop offset=".52" stop-color="#f26500"/><stop offset=".73" stop-color="#e15400"/><stop offset=".8" stop-color="#832d00"/><stop offset=".81" stop-color="#622100"/><stop offset=".82" stop-color="#591e00"/><stop offset=".83" stop-color="#561d00"/><stop offset=".84" stop-color="#3b1400"/><stop offset=".85" stop-color="#250c00"/><stop offset=".87" stop-color="#140700"/><stop offset=".89" stop-color="#090300"/><stop offset=".92" stop-color="#020100"/><stop offset="1"/></radialGradient><radialGradient id="T" cx="46.96" cy="27.8" r=".67" gradientUnits="userSpaceOnUse"><stop offset=".03" stop-color="#ff7300"/><stop offset=".3" stop-color="#fc7000"/><stop offset=".52" stop-color="#f26500"/><stop offset=".73" stop-color="#e15400"/><stop offset=".8" stop-color="#832d00"/><stop offset=".81" stop-color="#622100"/><stop offset=".82" stop-color="#591e00"/><stop offset=".83" stop-color="#561d00"/><stop offset=".84" stop-color="#3b1400"/><stop offset=".85" stop-color="#250c00"/><stop offset=".87" stop-color="#140700"/><stop offset=".89" stop-color="#090300"/><stop offset=".92" stop-color="#020100"/><stop offset="1"/></radialGradient><radialGradient id="U" cx="31.99" cy="44.32" r=".67" gradientUnits="userSpaceOnUse"><stop offset=".03" stop-color="#ff7300"/><stop offset=".3" stop-color="#fc7000"/><stop offset=".52" stop-color="#f26500"/><stop offset=".73" stop-color="#e15400"/><stop offset=".8" stop-color="#832d00"/><stop offset=".81" stop-color="#622100"/><stop offset=".82" stop-color="#591e00"/><stop offset=".83" stop-color="#561d00"/><stop offset=".84" stop-color="#3b1400"/><stop offset=".85" stop-color="#250c00"/><stop offset=".87" stop-color="#140700"/><stop offset=".89" stop-color="#090300"/><stop offset=".92" stop-color="#020100"/><stop offset="1"/></radialGradient><radialGradient id="V" cx="49.54" cy="21.72" r="1.26" gradientUnits="userSpaceOnUse"><stop offset=".03" stop-color="#ff7300"/><stop offset=".3" stop-color="#fc7000"/><stop offset=".52" stop-color="#f26500"/><stop offset=".73" stop-color="#e15400"/><stop offset=".8" stop-color="#832d00"/><stop offset=".81" stop-color="#622100"/><stop offset=".82" stop-color="#591e00"/><stop offset=".83" stop-color="#561d00"/><stop offset=".84" stop-color="#3b1400"/><stop offset=".85" stop-color="#250c00"/><stop offset=".87" stop-color="#140700"/><stop offset=".89" stop-color="#090300"/><stop offset=".92" stop-color="#020100"/><stop offset="1"/></radialGradient><radialGradient id="W" cx="29.2" cy="37.27" r="2.14" gradientUnits="userSpaceOnUse"><stop offset=".03" stop-color="#ff7300"/><stop offset=".3" stop-color="#fc7000"/><stop offset=".52" stop-color="#f26500"/><stop offset=".73" stop-color="#e15400"/><stop offset=".8" stop-color="#832d00"/><stop offset=".81" stop-color="#622100"/><stop offset=".82" stop-color="#591e00"/><stop offset=".83" stop-color="#561d00"/><stop offset=".84" stop-color="#3b1400"/><stop offset=".85" stop-color="#250c00"/><stop offset=".87" stop-color="#140700"/><stop offset=".89" stop-color="#090300"/><stop offset=".92" stop-color="#020100"/><stop offset="1"/></radialGradient><radialGradient id="X" cx="29.75" cy="39.36" r="1.44" gradientUnits="userSpaceOnUse"><stop offset=".03" stop-color="#ff7300"/><stop offset=".3" stop-color="#fc7000"/><stop offset=".52" stop-color="#f26500"/><stop offset=".73" stop-color="#e15400"/><stop offset=".8" stop-color="#832d00"/><stop offset=".81" stop-color="#622100"/><stop offset=".82" stop-color="#591e00"/><stop offset=".83" stop-color="#561d00"/><stop offset=".84" stop-color="#3b1400"/><stop offset=".85" stop-color="#250c00"/><stop offset=".87" stop-color="#140700"/><stop offset=".89" stop-color="#090300"/><stop offset=".92" stop-color="#020100"/><stop offset="1"/></radialGradient><radialGradient id="Y" cx="55.32" cy="31.56" r="1.13" gradientUnits="userSpaceOnUse"><stop offset=".03" stop-color="#ff7300"/><stop offset=".3" stop-color="#fc7000"/><stop offset=".52" stop-color="#f26500"/><stop offset=".73" stop-color="#e15400"/><stop offset=".8" stop-color="#832d00"/><stop offset=".81" stop-color="#622100"/><stop offset=".82" stop-color="#591e00"/><stop offset=".83" stop-color="#561d00"/><stop offset=".84" stop-color="#3b1400"/><stop offset=".85" stop-color="#250c00"/><stop offset=".87" stop-color="#140700"/><stop offset=".89" stop-color="#090300"/><stop offset=".92" stop-color="#020100"/><stop offset="1"/></radialGradient><radialGradient id="Z" cx="64.5" cy="42" r=".77" gradientUnits="userSpaceOnUse"><stop offset=".03" stop-color="#ff7300"/><stop offset=".3" stop-color="#fc7000"/><stop offset=".52" stop-color="#f26500"/><stop offset=".73" stop-color="#e15400"/><stop offset=".8" stop-color="#832d00"/><stop offset=".81" stop-color="#622100"/><stop offset=".82" stop-color="#591e00"/><stop offset=".83" stop-color="#561d00"/><stop offset=".84" stop-color="#3b1400"/><stop offset=".85" stop-color="#250c00"/><stop offset=".87" stop-color="#140700"/><stop offset=".89" stop-color="#090300"/><stop offset=".92" stop-color="#020100"/><stop offset="1"/></radialGradient><radialGradient id="aa" cx="27.13" cy="47.41" r="2.06" gradientUnits="userSpaceOnUse"><stop offset=".03" stop-color="#ff4a84"/><stop offset=".16" stop-color="#fc4882"/><stop offset=".28" stop-color="#f1407d"/><stop offset=".38" stop-color="#df3373"/><stop offset=".48" stop-color="#c72166"/><stop offset=".58" stop-color="#a70a55"/><stop offset=".62" stop-color="#99004d"/><stop offset=".64" stop-color="#8b0046"/><stop offset=".71" stop-color="#5a002d"/><stop offset=".78" stop-color="#33001a"/><stop offset=".85" stop-color="#17000c"/><stop offset=".91" stop-color="#060003"/><stop offset=".95"/></radialGradient><radialGradient id="ab" cx="43.13" cy="40.65" r="1.11" gradientUnits="userSpaceOnUse"><stop offset=".03" stop-color="#ff7300"/><stop offset=".3" stop-color="#fc7000"/><stop offset=".52" stop-color="#f26500"/><stop offset=".73" stop-color="#e15400"/><stop offset=".8" stop-color="#832d00"/><stop offset=".81" stop-color="#622100"/><stop offset=".82" stop-color="#591e00"/><stop offset=".83" stop-color="#561d00"/><stop offset=".84" stop-color="#3b1400"/><stop offset=".85" stop-color="#250c00"/><stop offset=".87" stop-color="#140700"/><stop offset=".89" stop-color="#090300"/><stop offset=".92" stop-color="#020100"/><stop offset="1"/></radialGradient><radialGradient id="ac" cx="54.32" cy="50.26" r="1.31" gradientUnits="userSpaceOnUse"><stop offset=".03" stop-color="#ff7300"/><stop offset=".3" stop-color="#fc7000"/><stop offset=".52" stop-color="#f26500"/><stop offset=".73" stop-color="#e15400"/><stop offset=".8" stop-color="#832d00"/><stop offset=".81" stop-color="#622100"/><stop offset=".82" stop-color="#591e00"/><stop offset=".83" stop-color="#561d00"/><stop offset=".84" stop-color="#3b1400"/><stop offset=".85" stop-color="#250c00"/><stop offset=".87" stop-color="#140700"/><stop offset=".89" stop-color="#090300"/><stop offset=".92" stop-color="#020100"/><stop offset="1"/></radialGradient><radialGradient id="ad" cx="52.14" cy="38.9" r="1" gradientUnits="userSpaceOnUse"><stop offset=".03" stop-color="#ff7300"/><stop offset=".3" stop-color="#fc7000"/><stop offset=".52" stop-color="#f26500"/><stop offset=".73" stop-color="#e15400"/><stop offset=".8" stop-color="#832d00"/><stop offset=".81" stop-color="#622100"/><stop offset=".82" stop-color="#591e00"/><stop offset=".83" stop-color="#561d00"/><stop offset=".84" stop-color="#3b1400"/><stop offset=".85" stop-color="#250c00"/><stop offset=".87" stop-color="#140700"/><stop offset=".89" stop-color="#090300"/><stop offset=".92" stop-color="#020100"/><stop offset="1"/></radialGradient><radialGradient id="ae" cx="71.69" cy="42.42" r=".75" gradientUnits="userSpaceOnUse"><stop offset=".03" stop-color="#ff7300"/><stop offset=".3" stop-color="#fc7000"/><stop offset=".52" stop-color="#f26500"/><stop offset=".73" stop-color="#e15400"/><stop offset=".8" stop-color="#832d00"/><stop offset=".81" stop-color="#622100"/><stop offset=".82" stop-color="#591e00"/><stop offset=".83" stop-color="#561d00"/><stop offset=".84" stop-color="#3b1400"/><stop offset=".85" stop-color="#250c00"/><stop offset=".87" stop-color="#140700"/><stop offset=".89" stop-color="#090300"/><stop offset=".92" stop-color="#020100"/><stop offset="1"/></radialGradient><radialGradient id="af" cx="33.64" cy="45.7" r="3.37" gradientUnits="userSpaceOnUse"><stop offset=".03" stop-color="#ff4a84"/><stop offset=".16" stop-color="#fc4882"/><stop offset=".28" stop-color="#f1407d"/><stop offset=".38" stop-color="#df3373"/><stop offset=".48" stop-color="#c72166"/><stop offset=".58" stop-color="#a70a55"/><stop offset=".62" stop-color="#99004d"/><stop offset=".64" stop-color="#8b0046"/><stop offset=".71" stop-color="#5a002d"/><stop offset=".78" stop-color="#33001a"/><stop offset=".85" stop-color="#17000c"/><stop offset=".91" stop-color="#060003"/><stop offset=".95"/></radialGradient><radialGradient id="ag" cx="34.93" cy="42.97" r="1.24" gradientUnits="userSpaceOnUse"><stop offset=".03" stop-color="#ff7300"/><stop offset=".3" stop-color="#fc7000"/><stop offset=".52" stop-color="#f26500"/><stop offset=".73" stop-color="#e15400"/><stop offset=".8" stop-color="#832d00"/><stop offset=".81" stop-color="#622100"/><stop offset=".82" stop-color="#591e00"/><stop offset=".83" stop-color="#561d00"/><stop offset=".84" stop-color="#3b1400"/><stop offset=".85" stop-color="#250c00"/><stop offset=".87" stop-color="#140700"/><stop offset=".89" stop-color="#090300"/><stop offset=".92" stop-color="#020100"/><stop offset="1"/></radialGradient><linearGradient id="a" x1=".19" x2="14.23" y1="59.13" y2="59.13" gradientUnits="userSpaceOnUse"><stop offset="0" stop-color="#a87f4a"/><stop offset="1" stop-color="#99682a"/></linearGradient><linearGradient id="b" x1="14.09" x2="79.31" y1="50.32" y2="50.32" gradientUnits="userSpaceOnUse"><stop offset="0" stop-color="#ffe7c9"/><stop offset="1" stop-color="#f5ca95"/></linearGradient><linearGradient id="c" x1="16.13" x2="77.46" y1="50.29" y2="50.29" gradientUnits="userSpaceOnUse"><stop offset="0" stop-color="#a37033"/><stop offset="1" stop-color="#a3753e"/></linearGradient><linearGradient id="d" x1="64.83" x2="7.25" y1="116.22" y2="58.87" gradientUnits="userSpaceOnUse"><stop offset="0" stop-color="#d49546"/><stop offset="1" stop-color="#f0c692"/></linearGradient><linearGradient id="e" x1="84.89" x2="48.15" y1="103.42" y2="66.82" gradientUnits="userSpaceOnUse"><stop offset="0" stop-color="#a37033"/><stop offset="1" stop-color="#d4a05f"/></linearGradient><linearGradient id="f" x1="35.03" x2="36.14" y1="121.18" y2="114.81" gradientUnits="userSpaceOnUse"><stop offset="0" stop-color="#a48a7b"/><stop offset="1" stop-color="#e3ddd3"/></linearGradient><linearGradient id="g" x1="68.77" x2="65.7" y1="117.61" y2="112.3" gradientUnits="userSpaceOnUse"><stop offset="0" stop-color="#a48a7b"/><stop offset=".15" stop-color="#beaca1"/><stop offset=".31" stop-color="#d6cac3"/><stop offset=".47" stop-color="#e8e1dd"/><stop offset=".64" stop-color="#f5f2f0"/><stop offset=".81" stop-color="#fcfcfb"/><stop offset="1" stop-color="#fff"/></linearGradient><linearGradient id="h" x1="38.84" x2="77.46" y1="50.29" y2="50.29" gradientUnits="userSpaceOnUse"><stop offset="0" stop-color="#b38246"/><stop offset="1" stop-color="#e3ac68"/></linearGradient><linearGradient id="i" x1="35.28" x2="35.28" y1="88.4" y2="52.06" gradientUnits="userSpaceOnUse"><stop offset="0" stop-color="#e3ddd3"/><stop offset="1" stop-color="#a48a7b"/></linearGradient><linearGradient id="j" x1="67.89" x2="67.89" y1="91.07" y2="47.71" gradientUnits="userSpaceOnUse"><stop offset="0" stop-color="#e3ddd3"/><stop offset="1" stop-color="#a48a7b"/></linearGradient><linearGradient id="k" x1="4.74" x2="56.48" y1="66.12" y2="66.12" gradientUnits="userSpaceOnUse"><stop offset="0" stop-color="#f0d0a8"/><stop offset="1" stop-color="#e6b06c"/></linearGradient><linearGradient id="l" x1="56.48" x2="94" y1="62.97" y2="62.97" gradientUnits="userSpaceOnUse"><stop offset="0" stop-color="#deb27a"/><stop offset="1" stop-color="#d49546"/></linearGradient><linearGradient id="m" x1="27.24" x2="29.04" y1="76.7" y2="66.53" gradientUnits="userSpaceOnUse"><stop offset="0" stop-color="#a48a7b"/><stop offset="1"/></linearGradient><linearGradient id="n" x1="64.06" x2="93.99" y1="70.61" y2="70.61" gradientUnits="userSpaceOnUse"><stop offset="0" stop-color="#a48a7b"/><stop offset="1"/></linearGradient><linearGradient id="r" x1="19.22" x2="19.22" y1="75.93" y2="6.24" gradientUnits="userSpaceOnUse"><stop offset="0" stop-color="#ffe906"/><stop offset=".04" stop-color="#edd806"/><stop offset=".19" stop-color="#afa004"/><stop offset=".34" stop-color="#7a6f03"/><stop offset=".48" stop-color="#4e4702"/><stop offset=".62" stop-color="#2c2801"/><stop offset=".75" stop-color="#141200"/><stop offset=".87" stop-color="#050500"/><stop offset=".97"/></linearGradient><linearGradient id="s" x1="61.24" x2="61.24" y1="81.57" y2="6.65" gradientUnits="userSpaceOnUse"><stop offset="0" stop-color="#ffe906"/><stop offset=".03" stop-color="#f2dd06"/><stop offset=".18" stop-color="#b3a304"/><stop offset=".34" stop-color="#7c7103"/><stop offset=".48" stop-color="#504902"/><stop offset=".62" stop-color="#2d2901"/><stop offset=".75" stop-color="#141200"/><stop offset=".88" stop-color="#050500"/><stop offset=".97"/></linearGradient><linearGradient id="t" x1="37.55" x2="37.55" y1="78.68" y2="6.44" gradientUnits="userSpaceOnUse"><stop offset="0" stop-color="#ffe906"/><stop offset=".07" stop-color="#d0be05"/><stop offset=".16" stop-color="#9f9204"/><stop offset=".25" stop-color="#756b03"/><stop offset=".35" stop-color="#514a02"/><stop offset=".45" stop-color="#332f01"/><stop offset=".56" stop-color="#1d1a01"/><stop offset=".67" stop-color="#0c0b00"/><stop offset=".8" stop-color="#030300"/><stop offset=".97"/></linearGradient><linearGradient id="u" x1="77.48" x2="77.48" y1="72.36" y2="5.98" gradientUnits="userSpaceOnUse"><stop offset="0" stop-color="#ffe906"/><stop offset=".09" stop-color="#d7c405"/><stop offset=".22" stop-color="#9f9104"/><stop offset=".35" stop-color="#6e6503"/><stop offset=".49" stop-color="#464002"/><stop offset=".62" stop-color="#282401"/><stop offset=".74" stop-color="#121000"/><stop offset=".86" stop-color="#040400"/><stop offset=".97"/></linearGradient><linearGradient id="v" x1="82.25" x2="82.25" y1="65.91" y2="14.31" gradientUnits="userSpaceOnUse"><stop offset="0" stop-color="#ffe906"/><stop offset=".09" stop-color="#d7c405"/><stop offset=".22" stop-color="#9f9104"/><stop offset=".35" stop-color="#6e6503"/><stop offset=".49" stop-color="#464002"/><stop offset=".62" stop-color="#282401"/><stop offset=".74" stop-color="#121000"/><stop offset=".86" stop-color="#040400"/><stop offset=".97"/></linearGradient><linearGradient id="w" x1="10.6" x2="10.6" y1="67.32" y2="19.17" gradientUnits="userSpaceOnUse"><stop offset="0" stop-color="#ffe906"/><stop offset=".09" stop-color="#d7c405"/><stop offset=".22" stop-color="#9f9104"/><stop offset=".35" stop-color="#6e6503"/><stop offset=".49" stop-color="#464002"/><stop offset=".62" stop-color="#282401"/><stop offset=".74" stop-color="#121000"/><stop offset=".86" stop-color="#040400"/><stop offset=".97"/></linearGradient></defs><path fill="url(#a)" d="M14.127 52.06L.19 66.172l14.04-5.967z"/><path fill="#b3b3b3" d="M38.831 42.1L14.12 52.063l1.003 64.031 40.988 8.785L78.251 110l1.055-62.29z"/><path fill="url(#b)" d="M14.12 52.063l42.352 6.48L79.305 47.71 38.83 42.1z"/><path fill="url(#c)" d="M16.13 51.825l40.269 6.147 21.06-9.989-38.572-5.353z"/><path fill="url(#d)" d="M56.111 124.876l.36-66.336-42.351-6.48 1.003 64.031z"/><path fill="url(#e)" d="M56.48 58.544l-.36 66.336L78.26 110l1.054-62.29z"/><path fill="url(#f)" d="M15.054 111.12v4.969l40.989 8.785v-4.457c-3.677 2.715-38.134-3.252-41.143-9.297z" opacity=".5"/><path fill="url(#g)" d="M78.356 105.03v4.969l-22.166 14.88v-4.456c5.94 1.434 21.086-10.757 22.269-15.367z"/><path fill="url(#h)" d="M38.84 55.282l17.563 2.69 21.06-9.989L38.89 42.63z"/><path fill="url(#i)" d="M14.583 82.103l34.714 6.301 7.175-29.864-42.352-6.48z" opacity=".75"/><path fill="url(#j)" d="M56.48 58.544l12.78 32.528 9.411-5.276.643-38.086z"/><path fill="url(#k)" d="M14.126 52.06L4.74 72.755l42.814 7.402 8.923-21.617z"/><path fill="url(#l)" d="M56.48 58.544L79.314 47.71l14.683 18.21-21.934 12.32z"/><path fill="url(#m)" d="M7.491 66.79L4.92 72.732l42.814 7.428 3.986-9.682c-7.714 4.815-41.143 1.896-44.1-3.688z" opacity=".6"/><path fill="url(#n)" d="M64.06 68.122C69.357 71.58 85.531 72.886 91.626 63l2.365 2.92-21.934 12.32z" opacity=".5"/><path fill="url(#o)" d="M92.344.86H1.11l15.017 50.969 40.269 6.147 21.06-9.99z"/><path fill="url(#p)" d="M73.527.86H20.17l6.686 52.608L56.4 57.976 67.51 52.7z"/><path fill="url(#q)" d="M46.857 88.76c16.346 0 29.597-13.199 29.597-29.48S63.204 29.8 46.857 29.8c-16.346 0-29.597 13.199-29.597 29.48s13.251 29.48 29.597 29.48z"/><path fill="url(#r)" d="M24.209.86H8.24l12.163 51.635 9.823 1.485z" opacity=".5"/><path fill="url(#s)" d="M57.354.86h11.752l-5.76 53.812-6.943 3.304-2.983-.513z" opacity=".5"/><path fill="url(#t)" d="M44.617.86H30.5l3.24 53.658 9.206 1.409z"/><path fill="url(#u)" d="M84.839.86H79.13l-9 50.584 2.803-1.306z"/><path fill="url(#v)" d="M90.577 10.31L73.94 49.65l3.523-1.664z"/><path fill="url(#w)" d="M2.89 15.46l15.403 36.703-2.16-.333z" opacity=".35"/><path fill="url(#x)" d="M32.865 72.866c3.167-.519 3.166-16.498-.004-35.69-3.169-19.192-8.305-34.33-11.472-33.81-3.167.518-3.165 16.497.004 35.69 3.169 19.191 8.305 34.329 11.472 33.81z" opacity=".15"/><path fill="url(#y)" d="M71.777 49.471c3.009-18.133 3.24-33.296.514-33.654-2.725-.359-7.354 13.907-10.285 32.04-2.932 18.134-3.215 33.297-.489 33.655 2.726.359 7.251-13.907 10.26-32.04z" opacity=".5"/><path fill="url(#z)" d="M23.535 45.634c4.783 16.264 7.097 29.736 5.323 30.274-1.774.538-7.226-12.14-12.008-28.328-4.783-16.187-7.175-29.736-5.323-30.273 1.851-.538 7.225 12.14 12.008 28.327z" opacity=".25"/><path fill="url(#A)" d="M61.617 52.833c-1.878 17.929-4.938 32.323-6.84 32.143-1.903-.179-1.955-14.906 0-32.86 1.954-17.955 4.91-32.349 6.84-32.144 1.928.205 1.877 14.907 0 32.86z" opacity=".5"/><path fill="url(#B)" d="M34.544 51.164a2.165 2.165 0 01-3.008-.615 2.17 2.17 0 01.643-2.996 2.167 2.167 0 012.982.64 2.121 2.121 0 01-.617 2.97z"/><path fill="url(#C)" d="M50.103 53.78a1.63 1.63 0 01-2.485-1.061 1.614 1.614 0 01.711-1.654 1.651 1.651 0 012.263.46 1.61 1.61 0 01-.489 2.254z" opacity=".8"/><path fill="url(#D)" d="M36.158 35.997a1.34 1.34 0 01-1.851-.385 1.354 1.354 0 01.61-2.02 1.368 1.368 0 011.493.309 1.356 1.356 0 01-.252 2.096z" opacity=".8"/><path fill="url(#E)" d="M55.477 43.075a1.651 1.651 0 01-2.263-.461 1.637 1.637 0 01.99-2.683 1.652 1.652 0 011.736.89 1.634 1.634 0 01-.463 2.254z" opacity=".8"/><path fill="url(#F)" d="M47.268 35.515a1.574 1.574 0 01-1.953-.553 1.558 1.558 0 01.81-2.353 1.574 1.574 0 011.797.614 1.559 1.559 0 01-.654 2.292z"/><path fill="url(#G)" d="M46.522 52.904a3.843 3.843 0 01-4.251-.046 3.802 3.802 0 01-.528-5.87 3.836 3.836 0 014.176-.799 3.828 3.828 0 012.275 2.798 3.801 3.801 0 01-.599 2.871 3.83 3.83 0 01-1.073 1.046z" opacity=".5"/><path fill="url(#H)" d="M56.808 50.784a2.838 2.838 0 01-3.909-.82 2.834 2.834 0 01.823-3.919 2.838 2.838 0 013.908.82 2.834 2.834 0 01-.822 3.919z" opacity=".5"/><path fill="url(#I)" d="M63.211 37.305a2.04 2.04 0 01-2.816-.576 2.018 2.018 0 01.579-2.805 2.037 2.037 0 013.115 1.308 2.016 2.016 0 01-.878 2.073z" opacity=".5"/><path fill="url(#J)" d="M25.233 51.29a3.379 3.379 0 01-3.737-.046 3.343 3.343 0 01-.458-5.161 3.373 3.373 0 013.67-.699 3.365 3.365 0 012 2.462 3.342 3.342 0 01-.53 2.525 3.362 3.362 0 01-.945.918z" opacity=".75"/><path fill="url(#K)" d="M60.793 44.76a2.09 2.09 0 012.88.59 2.094 2.094 0 01-.943 3.122A2.116 2.116 0 0160.423 48a2.097 2.097 0 01.37-3.24z" opacity=".75"/><path fill="url(#L)" d="M44.804 48.092a1.496 1.496 0 01-2.058-.436 1.457 1.457 0 01.438-2.023 1.525 1.525 0 012.095.474 1.509 1.509 0 01-.475 2.087z"/><path fill="url(#M)" d="M50.23 44.554a2.166 2.166 0 01-3.182-.994 2.144 2.144 0 01.482-2.337 2.163 2.163 0 013.64 1.116 2.143 2.143 0 01-.94 2.215z"/><path fill="url(#N)" d="M70.105 44.38a1.47 1.47 0 01-2.031-.41 1.508 1.508 0 01.476-2.087 1.525 1.525 0 012.095.474 1.456 1.456 0 01-.54 2.023z"/><path fill="url(#O)" d="M41.488 42.428a2.634 2.634 0 01-4.022-1.703 2.608 2.608 0 011.142-2.677 2.637 2.637 0 013.639.755 2.61 2.61 0 01-.759 3.625z"/><path fill="url(#P)" d="M47.968 53.054a.671.671 0 01-.83-.246.664.664 0 01.11-.855.67.67 0 01.926.18.69.69 0 01-.206.921z"/><path fill="url(#Q)" d="M58.248 54.214a.671.671 0 01-.83-.246.664.664 0 01.11-.855.67.67 0 01.926.18.69.69 0 01-.206.921z"/><path fill="url(#R)" d="M61.491 47.608a.929.929 0 011.192.322.92.92 0 01-.189 1.215.955.955 0 01-1.285-.256.92.92 0 01.282-1.28z"/><path fill="url(#S)" d="M48.638 41.606a.67.67 0 01-.925-.179.665.665 0 01.677-1.06.67.67 0 01.428.317.664.664 0 01-.18.922z"/><path fill="url(#T)" d="M43.488 28.395a.67.67 0 011.029.577.664.664 0 01-.427.605.671.671 0 01-.9-.505.663.663 0 01.298-.677z"/><path fill="url(#U)" d="M31.148 44.504a.671.671 0 01-.83-.246.664.664 0 01.11-.855.67.67 0 01.926.18.69.69 0 01-.206.921z"/><path fill="url(#V)" d="M48.943 22.477a1.263 1.263 0 01-1.87-.57 1.25 1.25 0 01.287-1.37 1.262 1.262 0 011.943.224 1.227 1.227 0 01-.36 1.716z" opacity=".5"/><path fill="url(#W)" d="M29.196 38.848a2.14 2.14 0 01-2.957-.615 2.12 2.12 0 01.617-2.945 2.143 2.143 0 012.957.614 2.144 2.144 0 01-.617 2.946z"/><path fill="url(#X)" d="M29.346 40.203a1.442 1.442 0 01-2.348-.873 1.429 1.429 0 01.78-1.51 1.445 1.445 0 011.846.498 1.43 1.43 0 01-.278 1.885z" opacity=".75"/><path fill="url(#Y)" d="M54.652 32.188a1.133 1.133 0 01-1.823-1.155 1.125 1.125 0 01.588-.715 1.136 1.136 0 011.45.39 1.123 1.123 0 01-.215 1.48z"/><path fill="url(#Z)" d="M63.575 42.25a.748.748 0 01-1.095-.36.74.74 0 01.569-1 .748.748 0 01.757.336.716.716 0 01-.231 1.024z"/><path fill="url(#aa)" d="M27.083 48.76a2.066 2.066 0 01-3.157-1.33 2.045 2.045 0 01.894-2.101 2.036 2.036 0 012.854.589 2.044 2.044 0 01-.591 2.843z"/><path fill="url(#ab)" d="M42.515 41.221a1.135 1.135 0 01-1.543-.307 1.123 1.123 0 01.334-1.537 1.11 1.11 0 011.512.332 1.098 1.098 0 01-.303 1.512z"/><path fill="url(#ac)" d="M53.775 50.959a1.289 1.289 0 01-1.8-.384 1.278 1.278 0 01.386-1.793 1.288 1.288 0 011.8.359 1.327 1.327 0 01-.386 1.818z"/><path fill="url(#ad)" d="M51.413 39.404a1.032 1.032 0 01-1.388-.308.946.946 0 01.283-1.357 1.005 1.005 0 011.573.63.995.995 0 01-.468 1.035z"/><path fill="url(#ae)" d="M70.752 42.664a.722.722 0 01-1.029-.205.74.74 0 01.206-1.024.774.774 0 011.054.204.715.715 0 01-.231 1.025z" opacity=".5"/><path fill="url(#af)" d="M34.285 48.138a3.35 3.35 0 01-4.654-.974 3.346 3.346 0 01.035-3.73 3.381 3.381 0 015.19-.455 3.35 3.35 0 01.69 3.667 3.37 3.37 0 01-1.26 1.492z" opacity=".75"/><path fill="url(#ag)" d="M34.391 43.634a1.238 1.238 0 01-1.813-.577 1.225 1.225 0 01.28-1.333 1.236 1.236 0 012.075 1.127 1.227 1.227 0 01-.542.783z"/></svg>