<svg xmlns="http://www.w3.org/2000/svg" width="94" height="92"><defs><radialGradient id="a" cx="33.29" cy="33.31" r="33.32" gradientUnits="userSpaceOnUse"><stop offset="0" stop-color="#ff6a00"/><stop offset=".13" stop-color="#cd5500"/><stop offset=".31" stop-color="#903c00"/><stop offset=".48" stop-color="#5c2600"/><stop offset=".64" stop-color="#341600"/><stop offset=".78" stop-color="#180a00"/><stop offset=".91" stop-color="#060300"/><stop offset="1"/></radialGradient><radialGradient id="b" cx="15.53" cy="45.99" r="54.55" gradientUnits="userSpaceOnUse"><stop offset="0" stop-color="#ffed44"/><stop offset="1" stop-color="#ffae00"/></radialGradient><radialGradient id="c" cx="26.46" cy="6.01" r="97.28" gradientUnits="userSpaceOnUse"><stop offset="0" stop-color="#fc0"/><stop offset="1" stop-color="#ed8e00"/></radialGradient><radialGradient id="d" cx="17.43" cy="39.7" r="64.81" gradientUnits="userSpaceOnUse"><stop offset="0" stop-color="#fff"/><stop offset="1" stop-color="#ffecba"/></radialGradient><radialGradient id="e" cx="44.24" cy="49.99" r="56.27" gradientUnits="userSpaceOnUse"><stop offset="0" stop-color="#fff"/><stop offset="1" stop-color="#ffecba"/></radialGradient><radialGradient id="f" cx="8.62" cy="83.73" r="50.33" gradientUnits="userSpaceOnUse"><stop offset=".54" stop-color="#fff"/><stop offset=".58" stop-color="#fef7f5"/><stop offset=".66" stop-color="#fbe2da"/><stop offset=".75" stop-color="#f7c0ad"/><stop offset=".86" stop-color="#f19070"/><stop offset=".99" stop-color="#ea5422"/><stop offset="1" stop-color="#e94e1b"/></radialGradient><radialGradient id="g" cx="73.24" cy="82.69" r="45.68" gradientUnits="userSpaceOnUse"><stop offset=".54" stop-color="#fff"/><stop offset=".6" stop-color="#fbf6f5"/><stop offset=".7" stop-color="#f0dfda"/><stop offset=".83" stop-color="#dfb9ad"/><stop offset=".98" stop-color="#c78671"/><stop offset="1" stop-color="#c4806a"/></radialGradient><radialGradient id="h" cx="20.78" cy="26.09" r="60.42" gradientUnits="userSpaceOnUse"><stop offset="0" stop-color="#ffed44"/><stop offset="1" stop-color="#ffae00"/></radialGradient><radialGradient id="i" cx="52.86" cy="-18.64" r="78.13" gradientUnits="userSpaceOnUse"><stop offset="0" stop-color="#fc0"/><stop offset="1" stop-color="#ed8e00"/></radialGradient><radialGradient id="j" cx="34.67" cy="50.2" r="84.03" gradientUnits="userSpaceOnUse"><stop offset="0" stop-color="#ffec70"/><stop offset="1" stop-color="#fc9c0d"/></radialGradient><radialGradient id="k" cx="90.35" cy="52.9" r="71.54" gradientUnits="userSpaceOnUse"><stop offset="0"/><stop offset="1" stop-color="#ffed44"/></radialGradient><radialGradient id="l" cx="33.18" cy="74.6" r="83.89" gradientUnits="userSpaceOnUse"><stop offset="0"/><stop offset="1" stop-color="#fcea10"/></radialGradient><radialGradient id="m" cx="62.97" cy="-10.91" r="66.65" gradientUnits="userSpaceOnUse"><stop offset="0"/><stop offset="1" stop-color="#ca9e67"/></radialGradient><radialGradient id="n" cx="40.38" cy="39.95" r="59.84" gradientUnits="userSpaceOnUse"><stop offset="0" stop-color="#fff"/><stop offset="1" stop-color="#ffecba"/></radialGradient><radialGradient id="o" cx="48.64" cy="33.66" r="46.12" gradientUnits="userSpaceOnUse"><stop offset="0" stop-color="#fff"/><stop offset="1" stop-color="#ffecba"/></radialGradient><radialGradient id="p" cx="17.02" cy="20.84" r="47.31" gradientUnits="userSpaceOnUse"><stop offset="0" stop-color="#fff"/><stop offset="1" stop-color="#ffecba"/></radialGradient><radialGradient id="q" cx="58.12" cy="41.23" r="24.54" gradientUnits="userSpaceOnUse"><stop offset="0" stop-color="#fff"/><stop offset="1" stop-color="#ffecba"/></radialGradient><radialGradient id="r" cx="40.29" cy="61.66" r="31.89" gradientUnits="userSpaceOnUse"><stop offset=".54" stop-color="#fff"/><stop offset=".58" stop-color="#fef7f5"/><stop offset=".66" stop-color="#fbe2da"/><stop offset=".75" stop-color="#f7c0ad"/><stop offset=".86" stop-color="#f19070"/><stop offset=".99" stop-color="#ea5422"/><stop offset="1" stop-color="#e94e1b"/></radialGradient><radialGradient id="s" cx="49.17" cy="42.46" r="64.92" gradientUnits="userSpaceOnUse"><stop offset=".54" stop-color="#fff"/><stop offset=".6" stop-color="#fbf6f5"/><stop offset=".7" stop-color="#f0dfda"/><stop offset=".83" stop-color="#dfb9ad"/><stop offset=".98" stop-color="#c78671"/><stop offset="1" stop-color="#c4806a"/></radialGradient><filter id="t" width="65" height="96" x="22" y="-9" filterUnits="userSpaceOnUse"><feOffset in="SourceGraphic" result="FeOffset4143Out"/><feGaussianBlur in="FeOffset4143Out" result="FeGaussianBlur4144Out" stdDeviation="2.4 2.4"/></filter><mask id="u" width="2" height="2" x="-1" y="-1"><path fill="#fff" d="M38 7h33v64H38z"/><path d="M61.226 64.17a4.38 4.38 0 010 .648c-.044.413-.152.82-.32 1.212a6.787 6.787 0 01-2.398 3.042 9.192 9.192 0 01-1.179.693 7.007 7.007 0 01-2.163.693c-.284.035-.57.055-.856.062h-.561l-.155.013a6.566 6.566 0 01-.909 0 8.33 8.33 0 01-.78-.108 6.391 6.391 0 01-1.307-.39l-.081-.036-.191-.042a5.822 5.822 0 01-1.26-.461 4.205 4.205 0 01-1.08-.775 4.512 4.512 0 01-.716-.916 5.552 5.552 0 01-.474-1.124 5.798 5.798 0 01-.236-1.123 7.02 7.02 0 01.155-2.466 4.92 4.92 0 01.435-1.218 5 5 0 01.735-.99 8.438 8.438 0 012.14-1.575 9.768 9.768 0 012.658-1.04 5.321 5.321 0 011.388-.07l.172.013c.492.041.98.11 1.459.207.48.097.95.227 1.403.387a5.09 5.09 0 012.241 1.489c.27.318.517.645.747.98.252.35.469.716.648 1.093.171.375.3.762.387 1.154.042.215.073.429.098.647zm-7.314 4.489c.07-.029.103-.035.207-.09.104-.056.22-.082.303-.173a7.83 7.83 0 00.242-.276 5.557 5.557 0 01-.483 0c-.13-.002-.26-.01-.39-.024l-.034.016-.207.09v.064c.025.152.039.307.067.46l.16-.038zm.036-7.788c-.244.078-.48.171-.704.279l-.034.017a4.208 4.208 0 011.594.051 8.954 8.954 0 00-.856-.347zm-1.857 7.931c.1.014.19.036.28.036-.008-.12-.036-.239-.036-.358-.301.006-.6-.035-.881-.121a2.478 2.478 0 01-.873-.442c-.567-.545-.886-1.224-.906-1.929a4.038 4.038 0 01.067-1.117c-.042.124-.081.228-.115.345-.064.242-.11.488-.137.735.05.289.129.574.235.854.126.278.286.547.477.801.189.218.404.42.643.605.252.167.523.315.81.441.142.057.287.107.436.15zm3.493-4.138c.029-.134.042-.269.04-.404a2.663 2.663 0 00-.141-.62 4.138 4.138 0 00-.21-.398h-.015l-.028-.015a2.571 2.571 0 00-.297.207c-.266.233-.5.488-.699.76a4.763 4.763 0 00-.56 1.205c-.12.443-.193.893-.217 1.346.162-.014.322-.038.48-.07a4.705 4.705 0 01.856-.656 5 5 0 00.791-1.355zm-3.255 1.152c.055-.322.135-.642.241-.956a.679.679 0 01-.381 0 .486.486 0 01-.101-.042v.144c.02.228.07.454.146.675.028.06.061.12.095.179zm-.188 1.792a3.454 3.454 0 01-1.097-.55c.02.03.04.06.062.089.069.078.146.152.23.22.075.05.156.095.241.133.125.045.253.083.385.113.076.01.153.017.23.022zm-3.535-4.85c.213-.348.443-.695.701-1.03.237-.348.507-.682.808-.998l.115-.112a8.65 8.65 0 00-.841.609 5.326 5.326 0 00-.792.859c-.19.313-.336.641-.434.98a6.753 6.753 0 00-.222 1.324 5.356 5.356 0 01.665-1.638zm8.162-1.14c.76.306 1.422.746 1.933 1.284-.095-.13-.185-.256-.28-.38a6.36 6.36 0 00-.985-.924 7.098 7.098 0 00-1.08-.62 4.448 4.448 0 00-.511-.164.886.886 0 01-.41.044l.887.424a.287.287 0 01.108.096.21.21 0 01.035.125c.1.033.205.068.303.108zm13.249-47.206c.272.98.256 2.356.241 2.982-.013.565-.084 1.127-.137 1.689-.086.905-.252 1.9-.528 2.741-.182.557-.44 1.09-.718 1.605-.26.482-.624.901-.89 1.38-.35.633-.564 1.342-.956 1.95a14.027 14.027 0 01-1.684 2.149c-.832.862-2.255 1.68-3.268 2.302-.092.056-.197.09-.281.157-.12.095-.213.221-.326.326-.464.435-.933.865-1.402 1.294-.233.212-.473.415-.705.629-.263.243-.52.492-.78.74-.175.167-.356.33-.524.505-.294.306-1.74 1.95-1.805 2.028-.535.645-1.131 1.25-1.565 1.967-.446.735-1.02 2.066-1.232 3.075-.078.372-.153.747-.19 1.125-.037.36-.083.726-.032 1.084.128.883.34 1.753.564 2.616.078.3.225.577.34.865.156.392.319.782.474 1.174.103.261.196.526.3.786.132.326.249.454.27.832a.366.366 0 01-.07.243c-.143.18-.293.375-.5.472-.234.11-.518.047-.766.12-.142.042-.24.196-.387.22-.77.13-1.454.172-1.964-.558-.422-.603-.59-1.352-.963-1.987-.089-.152-.272-.224-.404-.342-.01-.01-.008-.046-.02-.037a.59.59 0 00-.16.172c-.01.02.018.043.023.066.003.013-.004.027 0 .04.153.464.292.934.472 1.388.075.192.365.559.379.823.015.272-.15.51-.372.655a1.25 1.25 0 01-1.008.136c-.158-.045-.322-.116-.433-.239-.743-.818-.945-1.312-1.333-2.302-.102-.26-.184-.529-.266-.797a13.85 13.85 0 01-.225-.805 21.292 21.292 0 01-.342-1.784 85.81 85.81 0 01-.23-1.68c-.026-.204-.027-.412-.062-.615-.003-.016-.032-.003-.045-.011-.204-.126-.454-.202-.604-.389a.903.903 0 01-.184-.596c.027-.512.18-1.01.297-1.51.075-.32.185-.63.28-.944.036-.117.097-.227.113-.347.037-.279.024-.563.045-.843.007-.095.025-.189.04-.283.027-.189.048-.379.083-.567.138-.74.424-1.87.682-2.452a14.99 14.99 0 011.274-2.347c.433-.637.985-1.186 1.51-1.75.207-.224 1.126-1.038 1.436-1.307 1.022-.887 1.142-.972 2.39-1.984.489-.396.984-.783 1.468-1.183.623-.515 1.485-1.325 2.006-1.823a60.385 60.385 0 002.026-2.011c.445-.466.96-1.012 1.36-1.501.375-.458.79-.89 1.09-1.4.72-1.232 1.303-2.202 1.455-3.531.091-.795-.048-1.635-.26-2.391-.103-.363-.394-.792-.649-1.09a10.394 10.394 0 00-.482-.528.68.68 0 00-.16-.128c-.757-.405-1.51-.815-2.287-1.18a9.796 9.796 0 00-1.187-.458 4.372 4.372 0 00-.69-.152 10.972 10.972 0 00-1.072-.117c-.74-.04-1.447.01-2.183.075-.793.07-2.306.3-2.797.44-.585.165-2.485.902-3.286 1.374-.867.512-1.766.986-2.561 1.605-.206.16-.686 1.475-.71 1.603-.15.8-.28 1.613-.28 2.428 0 .697.452 2.529.726 3.2.202.495.47.963.75 1.42.067.11.178.189.28.269.108.085.337.157.457.19.019.005.04-.004.059 0 .139.024.231.039.337.139a.38.38 0 01.093.134.319.319 0 01.02.152.376.376 0 01-.176.265.551.551 0 01-.17.073c-.208.05-.482-.025-.66-.077-.473-.14-.633-.31-1.032-.686-.076-.071-.093-.207-.188-.248-.092-.039-.197.044-.297.042a.614.614 0 01-.223-.05c-.066-.026-.122-.072-.179-.115-.02-.016-.063-.083-.05-.06.003.005.246.315.215.45-.009.04-.05.066-.067.104-.03.067-.031.146-.07.208-.044.067-.112.113-.17.168-.01.008-.038.007-.032.017.205.337.442.654.646.991a.358.358 0 01.05.16.374.374 0 01-.137.305.55.55 0 01-.169.098.672.672 0 01-.41.016.513.513 0 01-.305-.217c-.436-.693-.83-1.412-1.277-2.099-.12-.185-.301-.325-.418-.512-.782-1.254-1.124-2.094-1.352-3.675-.119-.82-.078-1.655-.065-2.483.005-.275.272-1.045.118-.817a7.34 7.34 0 00-.962 2.07c-.356 1.244-.313 2.672.16 3.88.218.56.593 1.045.923 1.546.221.337.472.654.73.965a5.82 5.82 0 001.116 1.059c.248.179.53.311.766.506.222.182.38.342.302.617-.023.08-.056.167-.123.217-.146.11-.31.217-.492.241-.496.067-1.013-.352-1.343-.612-1.196-.943-1.73-1.463-2.623-2.761-.36-.524-.707-1.067-.951-1.654-.214-.514-.408-1.063-.41-1.62-.003-1.184.005-2.413.396-3.531.454-1.3 1.364-2.391 2.085-3.563.143-.234.328-.44.505-.649.272-.324.52-.675.841-.951 1.679-1.448 2.884-2.274 5.006-3.022 2.093-.738 3.188-.803 5.27-.883.494-.02.99.047 1.483 0 .919-.087 1.823-.294 2.739-.4.447-.051.9-.055 1.35-.072.39-.015 2.085-.095 2.746-.011.737.093 1.488.142 2.2.353.938.277 1.866.625 2.719 1.103a10.883 10.883 0 012.27 1.691c.52.507.882 1.156 1.276 1.766.424.656.862 1.736 1.064 2.461zM58.059 29.398c.221-.17.44-.34.667-.504l.208-.148.724-.759c.216-.227.426-.468.64-.689.162-.176.333-.348.485-.53l.783-.922a15.8 15.8 0 00.926-1.212c.053-.08.103-.161.154-.243.365-.67.679-1.356.94-2.055l-.098.045a10.82 10.82 0 00-.561.317 15.03 15.03 0 01-.32.5l-1.23 1.765c-.294.428-.614.845-.925 1.267-.342.466-.674.94-1.03 1.402zm-2.938.419c-.079.1-.154.199-.23.3l-1.167 1.592-.062.092-.648 1.022c-.11.173-.239.362-.326.515-.087.152-.177.302-.266.452l1.108-.62c.39-.533.785-1.064 1.181-1.594l2.245-2.984.578-.775c-.244.219-.494.424-.747.645-.536.441-1.075.883-1.616 1.324zm4.59-21.614c.804.33 1.557.731 2.245 1.196a13.008 13.008 0 012.91 1.914c.333.295.638.609.914.938.28.326.537.665.769 1.013.444.675.76 1.397.937 2.144a6.393 6.393 0 00-.154-.916A8.89 8.89 0 0067 13.44l-.329-.733a7.86 7.86 0 00-.982-1.616 7.011 7.011 0 00-.617-.646 7.458 7.458 0 00-.614-.497 11.53 11.53 0 00-1.981-1.128 9.359 9.359 0 00-1.653-.483c-.368-.06-.738-.102-1.114-.135zm-9.733 27.073a8.45 8.45 0 01.381-.256l.37-.722.438-.835c-.216.259-.42.523-.608.793-.214.33-.407.67-.581 1.02z"/></mask></defs><path fill="url(#a)" d="M33.285 66.602c18.405 0 33.325-14.903 33.325-33.286C66.61 14.933 51.69.03 33.284.03S-.04 14.933-.04 33.316c0 18.383 14.92 33.286 33.325 33.286z"/><path fill="#ab5500" d="M14.92 37.35h78.051l-.827 43.528L42.53 91.627l-27.076-18.11z"/><path fill="url(#b)" d="M42.53 91.627V37.35H14.92l.534 36.167z"/><path fill="url(#c)" d="M42.53 37.35v54.277l49.613-10.75.828-43.527z"/><path fill="url(#d)" d="M17.297 46.365a3.387 3.387 0 011.148 2.667c0 1.12-.48 1.707-1.095 1.333a3.334 3.334 0 01-1.148-2.667c0-1.093.48-1.68 1.095-1.333zm4.592 2.667a3.442 3.442 0 011.149 2.667c0 1.12-.481 1.734-1.122 1.36a3.44 3.44 0 01-1.148-2.667c0-1.093.48-1.707 1.121-1.36zm4.593 2.667a3.465 3.465 0 011.122 2.667c0 1.12-.481 1.734-1.095 1.36a3.333 3.333 0 01-1.148-2.667c0-1.12.48-1.733 1.121-1.387zm4.566 2.667a3.363 3.363 0 011.149 2.667c0 1.147-.508 1.76-1.122 1.387a3.494 3.494 0 01-1.148-2.667c0-1.147.507-1.787 1.121-1.414zm4.593 2.667a3.493 3.493 0 011.122 2.667c0 1.147-.481 1.787-1.122 1.44a3.6 3.6 0 01-1.121-2.666c0-1.147.48-1.787 1.121-1.414zm4.593 2.667a3.547 3.547 0 011.122 2.668c0 1.173-.508 1.84-1.122 1.467a3.52 3.52 0 01-1.148-2.668c0-1.173.507-1.813 1.148-1.467zM19.7 55.886a3.548 3.548 0 011.148 2.668c0 1.093-.48 1.707-1.122 1.307a3.52 3.52 0 01-1.148-2.668c0-1.093.48-1.707 1.122-1.333zm4.566 2.668a3.441 3.441 0 011.121 2.667c0 1.12-.48 1.733-1.094 1.333a3.6 3.6 0 01-1.149-2.667c0-1.12.481-1.707 1.122-1.333zm4.566 2.667a3.495 3.495 0 011.122 2.667c0 1.147-.481 1.76-1.095 1.36a3.44 3.44 0 01-1.148-2.667c0-1.12.48-1.734 1.121-1.36zm4.54 2.667a3.44 3.44 0 011.148 2.667c0 1.147-.508 1.787-1.122 1.387a3.52 3.52 0 01-1.121-2.667c0-1.147.48-1.76 1.094-1.387zm4.592 2.667a3.602 3.602 0 011.122 2.667c0 1.174-.508 1.814-1.122 1.44a3.707 3.707 0 01-1.121-2.8c0-1.147.48-1.787 1.121-1.414zM17.51 62.208a3.547 3.547 0 011.148 2.667c0 1.093-.48 1.653-1.094 1.253a3.6 3.6 0 01-1.149-2.667c0-1.093.481-1.653 1.095-1.28zm4.54 2.88a3.44 3.44 0 011.148 2.667c0 1.12-.48 1.68-1.095 1.28a3.654 3.654 0 01-1.148-2.667c0-1.093.48-1.68 1.095-1.28zm4.592 3.2a3.52 3.52 0 011.122 2.668c0 1.12-.48 1.707-1.095 1.307a3.626 3.626 0 01-1.148-2.667c0-1.12.48-1.707 1.121-1.307zm4.54 2.668a3.628 3.628 0 011.121 2.667c0 1.147-.48 1.734-1.094 1.334a3.68 3.68 0 01-1.149-2.668c0-1.147.508-1.76 1.122-1.36zm4.54 2.854a3.653 3.653 0 011.12 2.667c0 1.147-.48 1.787-1.094 1.387a3.735 3.735 0 01-1.148-2.827c0-1.147.507-1.76 1.121-1.36zm4.539 2.853a3.575 3.575 0 011.121 2.828c0 1.173-.48 1.787-1.121 1.387a3.76 3.76 0 01-1.122-2.668c0-1.173.507-1.813 1.122-1.413zm-20.294-4.667a3.708 3.708 0 011.148 2.667c0 1.12-.48 1.68-1.095 1.28a3.812 3.812 0 01-1.148-2.667c0-1.093.48-1.653 1.095-1.253zm4.54 2.96a3.708 3.708 0 011.12 2.668c0 1.12-.48 1.707-1.094 1.28a3.707 3.707 0 01-1.148-2.667c0-1.12.48-1.68 1.121-1.28zm5.344 4.18c.193.46.291.951.29 1.448 0 1.12-.481 1.707-1.095 1.307a3.786 3.786 0 01-1.122-2.667c0-1.12.48-1.707 1.095-1.307.356.347.64.762.832 1.22zm4.554 3.02c.198.482.291 1 .275 1.522 0 1.174-.507 1.76-1.122 1.36a3.813 3.813 0 01-1.121-2.827c0-1.147.48-1.733 1.095-1.333.378.36.675.795.873 1.277zm3.666 1.682a3.76 3.76 0 011.122 2.827c0 1.174-.508 1.787-1.122 1.387a3.974 3.974 0 01-1.121-2.854c0-1.146.507-1.76 1.121-1.36zM14.947 38.95v.015l-.027-.015zm0 .015l1.121.625c0 1.094-.48 1.68-1.121 1.334v-1.96zm3.471 1.932l2.27 1.28c0 1.12-.48 1.707-1.122 1.36a3.28 3.28 0 01-1.148-2.667zm6.863 3.92c0 1.12-.481 1.761-1.122 1.388a3.36 3.36 0 01-1.148-2.667c.748.453 1.522.853 2.27 1.28zm4.592 2.641c.027 1.147-.48 1.787-1.121 1.414a3.36 3.36 0 01-1.148-2.667zm2.35 1.36l2.243 1.254c.027 1.174-.48 1.814-1.121 1.467a3.468 3.468 0 01-1.122-2.667zm4.593 2.64l2.27 1.281c0 1.147-.508 1.814-1.148 1.467a3.52 3.52 0 01-1.122-2.667zm4.593 2.641l1.121.64v2.134a3.495 3.495 0 01-1.121-2.667zm1.121 15.87v4.267a3.706 3.706 0 01-1.121-2.827c0-1.173.507-1.813 1.148-1.44zm0 17.257v4.267a3.894 3.894 0 01-1.094-2.88c0-1.174.48-1.788 1.121-1.388zM15.4 69.462v.078a3.553 3.553 0 00-.053-.051zm0 .078a3.52 3.52 0 011.069 2.616c.026 1.094-.454 1.654-1.068 1.254v-3.87zm-.24-12.133v-3.948a3.52 3.52 0 011.149 2.667c0 1.094-.481 1.654-1.095 1.28z"/><path fill="url(#e)" d="M46.669 60.126a1.683 1.683 0 012.056 1.707 2.665 2.665 0 01-2.056 2.667 1.684 1.684 0 01-2.056-1.733 2.665 2.665 0 012.056-2.508zm8.358-1.6a1.683 1.683 0 012.056 1.733A2.665 2.665 0 0155 62.74a1.658 1.658 0 01-1.924-.948 1.65 1.65 0 01-.132-.758 2.665 2.665 0 012.083-2.507zm8.358-1.574a1.684 1.684 0 012.056 1.707 2.665 2.665 0 01-2.083 2.48 1.658 1.658 0 01-1.924-.948 1.65 1.65 0 01-.132-.758 2.665 2.665 0 012.083-2.48zm8.358-1.573a1.631 1.631 0 012.029 1.68 2.665 2.665 0 01-2.083 2.48 1.63 1.63 0 01-2.03-1.707 2.665 2.665 0 012.084-2.453zm8.357-1.6a1.63 1.63 0 012.03 1.68 2.665 2.665 0 01-2.083 2.453 1.604 1.604 0 01-2.03-1.653 2.665 2.665 0 012.083-2.48zm8.358-1.574a1.63 1.63 0 012.03 1.653 2.665 2.665 0 01-2.11 2.454 1.604 1.604 0 01-2.003-1.654 2.665 2.665 0 012.083-2.453zm-37.65 15.683a1.684 1.684 0 012.056 1.707 2.665 2.665 0 01-2.056 2.533 1.657 1.657 0 01-2.056-1.707 2.665 2.665 0 012.056-2.534zm8.358-1.628a1.656 1.656 0 012.03 1.68 2.666 2.666 0 01-2.057 2.508 1.657 1.657 0 01-2.056-1.68 2.665 2.665 0 012.083-2.508zm8.33-1.653a1.658 1.658 0 011.889.939c.104.233.152.486.141.741a2.665 2.665 0 01-2.083 2.507 1.63 1.63 0 01-2.029-1.68 2.665 2.665 0 012.083-2.507zm9.088-1.655a1.577 1.577 0 011.247 1.681 2.665 2.665 0 01-2.056 2.481 1.603 1.603 0 01-2.03-1.654 2.665 2.665 0 012.083-2.48c.246-.07.505-.08.756-.028zm7.575-1.626a1.604 1.604 0 012.003 1.654 2.666 2.666 0 01-2.083 2.454 1.578 1.578 0 01-1.877-.89 1.571 1.571 0 01-.126-.737 2.665 2.665 0 012.083-2.48zM46.642 77.33a1.63 1.63 0 012.056 1.68 2.665 2.665 0 01-2.056 2.668 1.657 1.657 0 01-2.056-1.707 2.665 2.665 0 012.056-2.668zm8.305-1.707a1.605 1.605 0 011.911.924c.1.239.14.499.118.757a2.665 2.665 0 01-2.056 2.533 1.63 1.63 0 01-2.03-1.68 2.666 2.666 0 012.057-2.667zm8.304-1.707a1.632 1.632 0 011.9.932c.102.236.146.492.13.748a2.664 2.664 0 01-2.057 2.508 1.605 1.605 0 01-1.911-.924 1.61 1.61 0 01-.118-.757 2.665 2.665 0 012.056-2.507zm8.305-1.707a1.63 1.63 0 012.029 1.654 2.665 2.665 0 01-2.083 2.507 1.63 1.63 0 01-2.03-1.654 2.666 2.666 0 012.084-2.507zm8.304-1.68a1.578 1.578 0 012.03 1.627 2.666 2.666 0 01-2.083 2.48 1.605 1.605 0 01-1.892-.888 1.598 1.598 0 01-.138-.739 2.666 2.666 0 012.083-2.48zm8.305-1.707a1.576 1.576 0 012.002 1.627 2.665 2.665 0 01-2.083 2.48 1.605 1.605 0 01-1.865-.897 1.58 1.58 0 01-.137-.73 2.666 2.666 0 012.083-2.48zM50.78 85.037a1.63 1.63 0 012.056 1.68 2.665 2.665 0 01-2.056 2.668 1.63 1.63 0 01-2.03-1.68 2.665 2.665 0 012.03-2.668zm8.305-1.76a1.579 1.579 0 011.887.907c.099.236.138.492.115.747a2.665 2.665 0 01-2.03 2.533 1.577 1.577 0 01-2.029-1.653 2.666 2.666 0 012.056-2.667zm8.277-1.76a1.579 1.579 0 011.888.907c.098.235.138.492.115.746a2.665 2.665 0 01-2.056 2.507 1.578 1.578 0 01-1.905-.88 1.571 1.571 0 01-.125-.747 2.666 2.666 0 012.083-2.533zm8.278-1.76a1.605 1.605 0 011.866.896c.102.23.15.48.137.73a2.665 2.665 0 01-2.056 2.507 1.578 1.578 0 01-1.905-.88 1.571 1.571 0 01-.125-.747 2.665 2.665 0 012.083-2.507zm8.278-1.761a1.576 1.576 0 012.003 1.627 2.666 2.666 0 01-2.083 2.48 1.578 1.578 0 01-1.868-.871 1.572 1.572 0 01-.135-.729 2.665 2.665 0 012.083-2.507zM42.53 54.285l2.056-.4a2.665 2.665 0 01-2.056 2.667zm10.414-1.787a2.666 2.666 0 01-2.056 2.48 1.684 1.684 0 01-2.056-1.733zm8.385-1.547a2.665 2.665 0 01-2.056 2.48 1.658 1.658 0 01-2.057-1.733zm8.384-1.547a2.665 2.665 0 01-2.083 2.48 1.657 1.657 0 01-2.056-1.706zm8.385-1.52a2.666 2.666 0 01-2.083 2.454 1.658 1.658 0 01-2.056-1.707zm8.384-1.547a2.664 2.664 0 01-2.11 2.454 1.657 1.657 0 01-2.029-1.68zm4.22-.774l2.055-.373v2.054a1.63 1.63 0 01-2.029-1.68zM92.516 59.7a2.686 2.686 0 00-.08.019V59.7zm-.08.019v4.062a1.605 1.605 0 01-1.892-.888 1.6 1.6 0 01-.137-.739 2.666 2.666 0 012.029-2.435zm-.24 16.518a2.667 2.667 0 00-.08.019v-.02zm-.08.019v4.061a1.578 1.578 0 01-1.868-.871 1.572 1.572 0 01-.135-.729 2.665 2.665 0 012.003-2.461zM42.53 86.825a1.631 1.631 0 011.9.93c.101.237.146.493.13.75a2.665 2.665 0 01-2.03 2.667zm0-17.31a1.63 1.63 0 012.03 1.706 2.665 2.665 0 01-2.03 2.668z" opacity=".75"/><path fill="url(#f)" d="M15 42.63v-3.6l27.584 15.363v6.588c-1.843-6.242-22.27-19.844-27.53-18.35z" opacity=".4"/><path fill="url(#g)" d="M42.53 60.977c4.726-8.402 39.867-14.643 50.254-12.75V43.32L42.45 53.482v7.495z" opacity=".75"/><path fill="#ab5500" d="M14.297 38.682l27.877 15.79 51.35-9.415.24-14.003L14.11 24.92z"/><path fill="url(#h)" d="M14.11 24.92l28.064 15.123v14.43l-27.877-15.79z"/><path fill="url(#i)" d="M42.18 40.038l51.59-8.988-.241 14.002-51.349 9.416z"/><path fill="url(#j)" d="M14.11 24.915l28.064 15.123 51.59-8.989L63.51 17.02z"/><path fill="url(#k)" d="M48.105 52.28a6.609 6.609 0 01.133-7.707c3.819-4.321 37.09-12.403 42.51-10.162 2.404.986 2.884 5.68 2.67 8.001a5.172 5.172 0 01-1.281 2.907l1.442-.266.24-14.003-51.589 8.988v14.43l7.477-1.387a3.312 3.312 0 01-1.549-.72z" opacity=".2"/><path fill="url(#l)" d="M15.742 38.626c-.694-1.84-1.388-6.535 0-8.162 2.377-2.667 8.785.827 11.028 1.947 3.899 1.947 10.681 6.028 12.738 9.895a13.67 13.67 0 011.281 3.948c.267 1.494 0 5.334-1.655 5.921a2.274 2.274 0 01-.855 0l3.845 2.187V40.039L14.06 24.89l.187 13.762 2.136 1.227a4.824 4.824 0 01-.694-1.253z" opacity=".5"/><path fill="url(#m)" d="M21.8 25.367a8.014 8.014 0 014.566-2.427L14.11 24.887l28.064 15.15 51.59-9.096-7.29-3.387c.72 1.494-.374 2.667-3.124 3.6a179.101 179.101 0 01-36.075 5.975c-1.678.08-3.359 0-5.02-.24a44.94 44.94 0 01-18.372-8.001c-1.95-1.414-2.67-2.667-2.083-3.574z" opacity=".3"/><path fill="url(#n)" d="M21.774 26.112a6.335 6.335 0 013.204.293c.64.347.24.773-.881.96a6.04 6.04 0 01-3.205-.293c-.64-.347-.24-.774.882-.96zm8.277-1.334a6.336 6.336 0 013.205.293c.667.32.293.747-.855.934a6.496 6.496 0 01-3.23-.267c-.642-.346-.241-.773.88-.96zm8.278-1.333a6.496 6.496 0 013.231.266c.668.347.267.774-.854.934a6.175 6.175 0 01-3.231-.267c-.668-.32-.294-.747.854-.933zm8.278-1.334a6.496 6.496 0 013.231.267c.667.32.294.746-.828.933a6.603 6.603 0 01-3.258-.267c-.667-.32-.293-.746.855-.933zm8.251-1.334c1.1-.2 2.232-.108 3.285.267.667.32.32.72-.828.907-1.09.2-2.215.108-3.258-.267-.668-.32-.32-.72.801-.907zm8.278-1.333a6.737 6.737 0 013.284.24c.695.32.32.72-.8.907a6.79 6.79 0 01-3.285-.24c-.668-.32-.32-.72.8-.907zm-32.497 8.508a6.148 6.148 0 013.23.267c.668.346.268.773-.88.96a6.444 6.444 0 01-3.231-.267c-.641-.347-.24-.773.88-.96zm8.358-1.36a6.201 6.201 0 013.23.266c.642.32.268.747-.88.934a6.148 6.148 0 01-3.231-.267c-.668-.346-.267-.747.88-.933zm8.33-1.387a6.603 6.603 0 013.259.267c.667.32.267.746-.855.933a6.737 6.737 0 01-3.284-.24c-.641-.347-.267-.773.88-.96zm8.332-1.36a6.656 6.656 0 013.258.24c.694.346.294.746-.828.933a6.737 6.737 0 01-3.284-.24c-.668-.32-.294-.747.854-.933zm8.331-1.36a6.737 6.737 0 013.285.24c.694.32.32.72-.828.933a6.736 6.736 0 01-3.285-.267c-.694-.32-.293-.72.828-.907zm-32.79 8.64a6.148 6.148 0 013.23.294c.641.32.241.774-.934.96a6.443 6.443 0 01-3.231-.266c-.64-.347-.214-.774.935-.987zm9.399 5.148a6.202 6.202 0 013.258.267c.667.347.24.774-.935.987a6.256 6.256 0 01-3.258-.267c-.64-.346-.213-.773.935-.987zm-1.015-6.4a6.283 6.283 0 013.258.266c.64.347.24.773-.908.96a6.255 6.255 0 01-3.258-.267c-.64-.346-.24-.773.908-.96zm9.533 4.96a6.095 6.095 0 013.284.24c.668.347.24.774-.934.96a6.148 6.148 0 01-3.285-.24c-.64-.346-.213-.773.935-.96zm-1.148-6.561a6.416 6.416 0 013.284.24c.668.347.267.774-.881.96a6.38 6.38 0 01-3.284-.267c-.641-.32-.24-.746.88-.933zm9.666 4.88a6.496 6.496 0 013.311.241c.668.32.24.773-.908.96a6.227 6.227 0 01-3.31-.24c-.642-.32-.241-.773.907-.96zm-1.255-6.294a6.39 6.39 0 013.284.267c.668.32.294.747-.88.934a6.39 6.39 0 01-3.285-.267c-.641-.32-.267-.747.881-.934zm13.084 5.068c.695.32.267.747-.88.96a6.817 6.817 0 01-3.312-.24c-.668-.32-.267-.747.908-.96a6.683 6.683 0 013.284.24zm-4.7-6.321a6.843 6.843 0 013.312.24c.667.32.294.747-.855.933a6.87 6.87 0 01-3.31-.24c-.668-.32-.295-.746.854-.933zm9.907 4.774a6.629 6.629 0 013.338.213c.694.32.267.747-.881.96a6.949 6.949 0 01-3.338-.24c-.667-.32-.267-.746.881-.933zm-1.495-6.188a6.87 6.87 0 013.311.24c.694.32.32.747-.828.934a6.977 6.977 0 01-3.338-.24c-.667-.32-.293-.747.855-.934zm10.013 4.721a6.762 6.762 0 013.365.213c.668.32.294.747-.881.934a6.656 6.656 0 01-3.338-.213c-.668-.32-.294-.747.854-.934zm-43.07 4.08a6.283 6.283 0 013.257.24c.64.348.24.774-.908.988a6.229 6.229 0 01-3.258-.267c-.64-.347-.24-.773.908-.96zm8.464-1.44a6.737 6.737 0 013.284.24c.641.347.24.774-.907.96a6.095 6.095 0 01-3.285-.24c-.64-.346-.24-.773.908-.96zm8.465-1.44a6.391 6.391 0 013.284.267c.668.32.267.747-.881.934a6.228 6.228 0 01-3.311-.24c-.641-.32-.267-.747.908-.96zm8.438-1.413a6.817 6.817 0 013.31.24c.668.32.294.747-.88.933a6.148 6.148 0 01-3.285-.24c-.667-.32-.294-.747.855-.933zm8.464-1.44a6.977 6.977 0 013.338.24c.668.32.294.746-.881.933a6.55 6.55 0 01-3.311-.16c-.668-.347-.294-.747.854-.96zM41.026 39.447a6.415 6.415 0 013.284.24l-2.136.374zm11.856-1.253l-4.246.747c-.64-.347-.213-.774.962-.987a6.657 6.657 0 013.284.24zM61.48 36.7l-4.245.747c-.641-.347-.214-.773.934-.987a6.764 6.764 0 013.311.24zm8.599-1.493l-4.246.746c-.641-.32-.24-.773.934-.96a6.523 6.523 0 013.312.214zm5.287-1.814a6.63 6.63 0 013.337.213l-4.272.854c-.668-.32-.267-.774.908-.96zm11.909-1.174l-4.22.747c-.693-.32-.293-.747.882-.96a6.656 6.656 0 013.338.213zm6.489-1.12l-2.137.374c-.694-.32-.293-.747.882-.96zm-77.625-6.481c.641.347.24.774-.854.96l-1.175-.64zm8.225-1.307c.64.347.267.747-.855.934a6.041 6.041 0 01-3.204-.294zm8.224-1.307c.668.32.294.747-.828.934a6.335 6.335 0 01-3.204-.294zm8.251-1.333c.668.346.267.746-.828.933a6.442 6.442 0 01-3.23-.267zm8.225-1.307c.667.32.293.747-.828.907a6.202 6.202 0 01-3.231-.267zm8.224-1.307c.667.32.32.72-.801.907a6.603 6.603 0 01-3.258-.267zm6.195-.987l1.255.56a6.764 6.764 0 01-3.284-.24zm11.322 5.254a6.763 6.763 0 01-3.285-.24c-.694-.32-.32-.747.828-.933zm10.093 4.668a7.003 7.003 0 01-3.337-.214c-.668-.32-.294-.746.854-.933zM31.68 34.407a6.148 6.148 0 013.231.266c.641.347.214.774-.934.987zm-9.372-5.041a6.121 6.121 0 013.23.293c.615.347.214.773-.907.96z"/><path fill="url(#o)" d="M46.479 45.69a1.738 1.738 0 011.952.97c.11.24.164.5.157.763a2.665 2.665 0 01-2.136 2.48 1.712 1.712 0 01-1.954-.946 1.705 1.705 0 01-.155-.76 2.665 2.665 0 012.136-2.508zm8.572-1.52a1.711 1.711 0 012.109 1.706 2.665 2.665 0 01-2.136 2.48 1.71 1.71 0 01-2.11-1.707 2.665 2.665 0 012.136-2.48zm8.571-1.521a1.71 1.71 0 012.11 1.707 2.665 2.665 0 01-2.137 2.454 1.712 1.712 0 01-1.954-.947 1.706 1.706 0 01-.155-.76 2.666 2.666 0 012.136-2.454zm8.572-1.52a1.684 1.684 0 012.109 1.68 2.666 2.666 0 01-2.136 2.454 1.71 1.71 0 01-2.11-1.68 2.666 2.666 0 012.136-2.454zm8.598-1.547a1.684 1.684 0 012.083 1.68 2.666 2.666 0 01-2.163 2.454 1.685 1.685 0 01-1.93-.93 1.678 1.678 0 01-.153-.75 2.665 2.665 0 012.163-2.454zm8.571-1.52a1.658 1.658 0 012.083 1.68 2.665 2.665 0 01-2.163 2.427 1.659 1.659 0 01-1.94-.922 1.652 1.652 0 01-.143-.759 2.665 2.665 0 012.163-2.427zm4.406-7.122l-.053.009v-.009zm-.053.009v2.045a1.684 1.684 0 01-2.083-1.707zm-9.344 3.56a1.656 1.656 0 01-1.31-1.702l4.218-.747a2.666 2.666 0 01-2.136 2.427 1.657 1.657 0 01-.772.021zm-7.8 1.552a1.684 1.684 0 01-2.082-1.707l4.219-.747a2.665 2.665 0 01-2.163 2.4zm-9.322 1.553a1.71 1.71 0 01-1.332-1.713l4.246-.747a2.666 2.666 0 01-2.136 2.454 1.71 1.71 0 01-.778.006zm-8.596 1.508a1.71 1.71 0 01-1.307-1.727l4.219-.747a2.666 2.666 0 01-2.136 2.48 1.711 1.711 0 01-.776-.006zm-8.58 1.505a1.71 1.71 0 01-1.325-1.739l4.219-.747a2.666 2.666 0 01-2.11 2.48 1.711 1.711 0 01-.784.006zm-7.814-.619l2.136-.373a2.666 2.666 0 01-2.136 2.507z" opacity=".75"/><path fill="url(#p)" d="M17.688 30.944c0-1.093.48-1.733 1.122-1.386a3.28 3.28 0 011.175 2.667c0 1.12-.481 1.733-1.122 1.387a3.28 3.28 0 01-1.175-2.668zm4.7 6.695c0-1.12.507-1.76 1.148-1.414a3.362 3.362 0 011.148 2.668c0 1.12-.48 1.76-1.121 1.413a3.389 3.389 0 01-1.175-2.667zm4.646-1.574c0-1.147.48-1.787 1.121-1.44a3.308 3.308 0 011.175 2.667c0 1.147-.507 1.787-1.148 1.44a3.334 3.334 0 01-1.148-2.667zm9.32 5.121c0-1.173.507-1.813 1.147-1.467a3.36 3.36 0 011.175 2.667c0 1.147-.534 1.814-1.148 1.467a3.361 3.361 0 01-1.175-2.667zm-4.647 1.627c0-1.147.507-1.787 1.148-1.44a3.361 3.361 0 011.148 2.667c0 1.147-.507 1.787-1.121 1.44a3.36 3.36 0 01-1.175-2.667zm10.467 7.842a3.36 3.36 0 01-1.148-2.667c0-1.147.507-1.814 1.148-1.467zm-1.148-11.282l1.148.613v2.134a3.36 3.36 0 01-1.148-2.667zm-25.714-5.788c.026 1.12-.481 1.734-1.122 1.387v-4.027a3.228 3.228 0 011.175 2.667zm-1.202-6.748V24.81l1.175.64c0 1.094-.507 1.734-1.148 1.387zm24.566 24.084c.033.487-.11.97-.4 1.36l-1.496-.853a4.503 4.503 0 01-.4-1.813c0-1.147.507-1.814 1.148-1.44a3.36 3.36 0 011.148 2.666zm-9.292-5.36a1.95 1.95 0 01-.4 1.333l-1.496-.854a4.29 4.29 0 01-.4-1.786c-.027-1.12.48-1.76 1.12-1.414a3.416 3.416 0 011.176 2.667zm-9.372-4.684a1.787 1.787 0 01-.321.63l-1.496-.854a4.743 4.743 0 01-.427-1.76c0-1.12.508-1.734 1.148-1.387a3.361 3.361 0 011.149 2.667c.03.236.012.475-.053.704zm4.619-10.52c0 1.12-.507 1.761-1.148 1.414a3.44 3.44 0 01-1.175-2.667zm7.05 3.761l2.296 1.254c0 1.147-.508 1.787-1.148 1.44a3.28 3.28 0 01-1.149-2.667z"/><path fill="url(#q)" d="M25.04 30.78c2.964 1.734 15.568 8.935 16.262 9.708.694.774.72 3.868.881 11.176.09-3.67.412-7.332.961-10.962.721-.56 42.11-8.002 48.065-9.202-8.839 1.414-47.53 7.682-48.866 7.708-2.056-.347-13.164-6.374-17.303-8.428z" opacity=".5"/><path fill="url(#r)" d="M20.18 75.775a9.796 9.796 0 01-4.78-6.695v4.4l27.076 18.137v-5.014c-.534 1.387-2.483 1.52-4.058.827a126.697 126.697 0 01-18.292-11.655z" opacity=".5"/><path fill="url(#s)" d="M42.523 86.606v5.014l49.614-10.67v-7.28c-.748 2.907-2.19 4.588-6.382 6.481a145.29 145.29 0 01-33.752 8.322c-4.353.453-8.865.373-9.533-1.867z"/><g filter="url(#t)"><path fill="none" d="M61.226 64.17a4.38 4.38 0 010 .648c-.044.413-.152.82-.32 1.212a6.787 6.787 0 01-2.398 3.042 9.192 9.192 0 01-1.179.693 7.007 7.007 0 01-2.163.693c-.284.035-.57.055-.856.062h-.561l-.155.013a6.566 6.566 0 01-.909 0 8.33 8.33 0 01-.78-.108 6.391 6.391 0 01-1.307-.39l-.081-.036-.191-.042a5.822 5.822 0 01-1.26-.461 4.205 4.205 0 01-1.08-.775 4.512 4.512 0 01-.716-.916 5.552 5.552 0 01-.474-1.124 5.798 5.798 0 01-.236-1.123 7.02 7.02 0 01.155-2.466 4.92 4.92 0 01.435-1.218 5 5 0 01.735-.99 8.438 8.438 0 012.14-1.575 9.768 9.768 0 012.658-1.04 5.321 5.321 0 011.388-.07l.172.013c.492.041.98.11 1.459.207.48.097.95.227 1.403.387a5.09 5.09 0 012.241 1.489c.27.318.517.645.747.98.252.35.469.716.648 1.093.171.375.3.762.387 1.154.042.215.073.429.098.647zm-7.314 4.489c.07-.029.103-.035.207-.09.104-.056.22-.082.303-.173a7.83 7.83 0 00.242-.276 5.557 5.557 0 01-.483 0c-.13-.002-.26-.01-.39-.024l-.034.016-.207.09v.064c.025.152.039.307.067.46l.16-.038zm.036-7.788c-.244.078-.48.171-.704.279l-.034.017a4.208 4.208 0 011.594.051 8.954 8.954 0 00-.856-.347zm-1.857 7.931c.1.014.19.036.28.036-.008-.12-.036-.239-.036-.358-.301.006-.6-.035-.881-.121a2.478 2.478 0 01-.873-.442c-.567-.545-.886-1.224-.906-1.929a4.038 4.038 0 01.067-1.117c-.042.124-.081.228-.115.345-.064.242-.11.488-.137.735.05.289.129.574.235.854.126.278.286.547.477.801.189.218.404.42.643.605.252.167.523.315.81.441.142.057.287.107.436.15zm3.493-4.138c.029-.134.042-.269.04-.404a2.663 2.663 0 00-.141-.62 4.138 4.138 0 00-.21-.398h-.015l-.028-.015a2.571 2.571 0 00-.297.207c-.266.233-.5.488-.699.76a4.763 4.763 0 00-.56 1.205c-.12.443-.193.893-.217 1.346.162-.014.322-.038.48-.07a4.705 4.705 0 01.856-.656 5 5 0 00.791-1.355zm-3.255 1.152c.055-.322.135-.642.241-.956a.679.679 0 01-.381 0 .486.486 0 01-.101-.042v.144c.02.228.07.454.146.675.028.06.061.12.095.179zm-.188 1.792a3.454 3.454 0 01-1.097-.55c.02.03.04.06.062.089.069.078.146.152.23.22.075.05.156.095.241.133.125.045.253.083.385.113.076.01.153.017.23.022zm-3.535-4.85c.213-.348.443-.695.701-1.03.237-.348.507-.682.808-.998l.115-.112a8.65 8.65 0 00-.841.609 5.326 5.326 0 00-.792.859c-.19.313-.336.641-.434.98a6.753 6.753 0 00-.222 1.324 5.356 5.356 0 01.665-1.638zm8.162-1.14c.76.306 1.422.746 1.933 1.284-.095-.13-.185-.256-.28-.38a6.36 6.36 0 00-.985-.924 7.098 7.098 0 00-1.08-.62 4.448 4.448 0 00-.511-.164.886.886 0 01-.41.044l.887.424a.287.287 0 01.108.096.21.21 0 01.035.125c.1.033.205.068.303.108zm13.249-47.206c.272.98.256 2.356.241 2.982-.013.565-.084 1.127-.137 1.689-.086.905-.252 1.9-.528 2.741-.182.557-.44 1.09-.718 1.605-.26.482-.624.901-.89 1.38-.35.633-.564 1.342-.956 1.95a14.027 14.027 0 01-1.684 2.149c-.832.862-2.255 1.68-3.268 2.302-.092.056-.197.09-.281.157-.12.095-.213.221-.326.326-.464.435-.933.865-1.402 1.294-.233.212-.473.415-.705.629-.263.243-.52.492-.78.74-.175.167-.356.33-.524.505-.294.306-1.74 1.95-1.805 2.028-.535.645-1.131 1.25-1.565 1.967-.446.735-1.02 2.066-1.232 3.075-.078.372-.153.747-.19 1.125-.037.36-.083.726-.032 1.084.128.883.34 1.753.564 2.616.078.3.225.577.34.865.156.392.319.782.474 1.174.103.261.196.526.3.786.132.326.249.454.27.832a.366.366 0 01-.07.243c-.143.18-.293.375-.5.472-.234.11-.518.047-.766.12-.142.042-.24.196-.387.22-.77.13-1.454.172-1.964-.558-.422-.603-.59-1.352-.963-1.987-.089-.152-.272-.224-.404-.342-.01-.01-.008-.046-.02-.037a.59.59 0 00-.16.172c-.01.02.018.043.023.066.003.013-.004.027 0 .04.153.464.292.934.472 1.388.075.192.365.559.379.823.015.272-.15.51-.372.655a1.25 1.25 0 01-1.008.136c-.158-.045-.322-.116-.433-.239-.743-.818-.945-1.312-1.333-2.302-.102-.26-.184-.529-.266-.797a13.85 13.85 0 01-.225-.805 21.292 21.292 0 01-.342-1.784 85.81 85.81 0 01-.23-1.68c-.026-.204-.027-.412-.062-.615-.003-.016-.032-.003-.045-.011-.204-.126-.454-.202-.604-.389a.903.903 0 01-.184-.596c.027-.512.18-1.01.297-1.51.075-.32.185-.63.28-.944.036-.117.097-.227.113-.347.037-.279.024-.563.045-.843.007-.095.025-.189.04-.283.027-.189.048-.379.083-.567.138-.74.424-1.87.682-2.452a14.99 14.99 0 011.274-2.347c.433-.637.985-1.186 1.51-1.75.207-.224 1.126-1.038 1.436-1.307 1.022-.887 1.142-.972 2.39-1.984.489-.396.984-.783 1.468-1.183.623-.515 1.485-1.325 2.006-1.823a60.385 60.385 0 002.026-2.011c.445-.466.96-1.012 1.36-1.501.375-.458.79-.89 1.09-1.4.72-1.232 1.303-2.202 1.455-3.531.091-.795-.048-1.635-.26-2.391-.103-.363-.394-.792-.649-1.09a10.394 10.394 0 00-.482-.528.68.68 0 00-.16-.128c-.757-.405-1.51-.815-2.287-1.18a9.796 9.796 0 00-1.187-.458 4.372 4.372 0 00-.69-.152 10.972 10.972 0 00-1.072-.117c-.74-.04-1.447.01-2.183.075-.793.07-2.306.3-2.797.44-.585.165-2.485.902-3.286 1.374-.867.512-1.766.986-2.561 1.605-.206.16-.686 1.475-.71 1.603-.15.8-.28 1.613-.28 2.428 0 .697.452 2.529.726 3.2.202.495.47.963.75 1.42.067.11.178.189.28.269.108.085.337.157.457.19.019.005.04-.004.059 0 .139.024.231.039.337.139a.38.38 0 01.093.134.319.319 0 01.02.152.376.376 0 01-.176.265.551.551 0 01-.17.073c-.208.05-.482-.025-.66-.077-.473-.14-.633-.31-1.032-.686-.076-.071-.093-.207-.188-.248-.092-.039-.197.044-.297.042a.614.614 0 01-.223-.05c-.066-.026-.122-.072-.179-.115-.02-.016-.063-.083-.05-.06.003.005.246.315.215.45-.009.04-.05.066-.067.104-.03.067-.031.146-.07.208-.044.067-.112.113-.17.168-.01.008-.038.007-.032.017.205.337.442.654.646.991a.358.358 0 01.05.16.374.374 0 01-.137.305.55.55 0 01-.169.098.672.672 0 01-.41.016.513.513 0 01-.305-.217c-.436-.693-.83-1.412-1.277-2.099-.12-.185-.301-.325-.418-.512-.782-1.254-1.124-2.094-1.352-3.675-.119-.82-.078-1.655-.065-2.483.005-.275.272-1.045.118-.817a7.34 7.34 0 00-.962 2.07c-.356 1.244-.313 2.672.16 3.88.218.56.593 1.045.923 1.546.221.337.472.654.73.965a5.82 5.82 0 001.116 1.059c.248.179.53.311.766.506.222.182.38.342.302.617-.023.08-.056.167-.123.217-.146.11-.31.217-.492.241-.496.067-1.013-.352-1.343-.612-1.196-.943-1.73-1.463-2.623-2.761-.36-.524-.707-1.067-.951-1.654-.214-.514-.408-1.063-.41-1.62-.003-1.184.005-2.413.396-3.531.454-1.3 1.364-2.391 2.085-3.563.143-.234.328-.44.505-.649.272-.324.52-.675.841-.951 1.679-1.448 2.884-2.274 5.006-3.022 2.093-.738 3.188-.803 5.27-.883.494-.02.99.047 1.483 0 .919-.087 1.823-.294 2.739-.4.447-.051.9-.055 1.35-.072.39-.015 2.085-.095 2.746-.011.737.093 1.488.142 2.2.353.938.277 1.866.625 2.719 1.103a10.883 10.883 0 012.27 1.691c.52.507.882 1.156 1.276 1.766.424.656.862 1.736 1.064 2.461zM58.059 29.398c.221-.17.44-.34.667-.504l.208-.148.724-.759c.216-.227.426-.468.64-.689.162-.176.333-.348.485-.53l.783-.922a15.8 15.8 0 00.926-1.212c.053-.08.103-.161.154-.243.365-.67.679-1.356.94-2.055l-.098.045a10.82 10.82 0 00-.561.317 15.03 15.03 0 01-.32.5l-1.23 1.765c-.294.428-.614.845-.925 1.267-.342.466-.674.94-1.03 1.402zm-2.938.419c-.079.1-.154.199-.23.3l-1.167 1.592-.062.092-.648 1.022c-.11.173-.239.362-.326.515-.087.152-.177.302-.266.452l1.108-.62c.39-.533.785-1.064 1.181-1.594l2.245-2.984.578-.775c-.244.219-.494.424-.747.645-.536.441-1.075.883-1.616 1.324zm4.59-21.614c.804.33 1.557.731 2.245 1.196a13.008 13.008 0 012.91 1.914c.333.295.638.609.914.938.28.326.537.665.769 1.013.444.675.76 1.397.937 2.144a6.393 6.393 0 00-.154-.916A8.89 8.89 0 0067 13.44l-.329-.733a7.86 7.86 0 00-.982-1.616 7.011 7.011 0 00-.617-.646 7.458 7.458 0 00-.614-.497 11.53 11.53 0 00-1.981-1.128 9.359 9.359 0 00-1.653-.483c-.368-.06-.738-.102-1.114-.135zm-9.733 27.073a8.45 8.45 0 01.381-.256l.37-.722.438-.835c-.216.259-.42.523-.608.793-.214.33-.407.67-.581 1.02z" mask="url(&quot;#u&quot;)"/><path fill="#fff" d="M61.226 64.17a4.38 4.38 0 010 .648c-.044.413-.152.82-.32 1.212a6.787 6.787 0 01-2.398 3.042 9.192 9.192 0 01-1.179.693 7.007 7.007 0 01-2.163.693c-.284.035-.57.055-.856.062h-.561l-.155.013a6.566 6.566 0 01-.909 0 8.33 8.33 0 01-.78-.108 6.391 6.391 0 01-1.307-.39l-.081-.036-.191-.042a5.822 5.822 0 01-1.26-.461 4.205 4.205 0 01-1.08-.775 4.512 4.512 0 01-.716-.916 5.552 5.552 0 01-.474-1.124 5.798 5.798 0 01-.236-1.123 7.02 7.02 0 01.155-2.466 4.92 4.92 0 01.435-1.218 5 5 0 01.735-.99 8.438 8.438 0 012.14-1.575 9.768 9.768 0 012.658-1.04 5.321 5.321 0 011.388-.07l.172.013c.492.041.98.11 1.459.207.48.097.95.227 1.403.387a5.09 5.09 0 012.241 1.489c.27.318.517.645.747.98.252.35.469.716.648 1.093.171.375.3.762.387 1.154.042.215.073.429.098.647zm-7.314 4.489c.07-.029.103-.035.207-.09.104-.056.22-.082.303-.173a7.83 7.83 0 00.242-.276 5.557 5.557 0 01-.483 0c-.13-.002-.26-.01-.39-.024l-.034.016-.207.09v.064c.025.152.039.307.067.46l.16-.038zm.036-7.788c-.244.078-.48.171-.704.279l-.034.017a4.208 4.208 0 011.594.051 8.954 8.954 0 00-.856-.347zm-1.857 7.931c.1.014.19.036.28.036-.008-.12-.036-.239-.036-.358-.301.006-.6-.035-.881-.121a2.478 2.478 0 01-.873-.442c-.567-.545-.886-1.224-.906-1.929a4.038 4.038 0 01.067-1.117c-.042.124-.081.228-.115.345-.064.242-.11.488-.137.735.05.289.129.574.235.854.126.278.286.547.477.801.189.218.404.42.643.605.252.167.523.315.81.441.142.057.287.107.436.15zm3.493-4.138c.029-.134.042-.269.04-.404a2.663 2.663 0 00-.141-.62 4.138 4.138 0 00-.21-.398h-.015l-.028-.015a2.571 2.571 0 00-.297.207c-.266.233-.5.488-.699.76a4.763 4.763 0 00-.56 1.205c-.12.443-.193.893-.217 1.346.162-.014.322-.038.48-.07a4.705 4.705 0 01.856-.656 5 5 0 00.791-1.355zm-3.255 1.152c.055-.322.135-.642.241-.956a.679.679 0 01-.381 0 .486.486 0 01-.101-.042v.144c.02.228.07.454.146.675.028.06.061.12.095.179zm-.188 1.792a3.454 3.454 0 01-1.097-.55c.02.03.04.06.062.089.069.078.146.152.23.22.075.05.156.095.241.133.125.045.253.083.385.113.076.01.153.017.23.022zm-3.535-4.85c.213-.348.443-.695.701-1.03.237-.348.507-.682.808-.998l.115-.112a8.65 8.65 0 00-.841.609 5.326 5.326 0 00-.792.859c-.19.313-.336.641-.434.98a6.753 6.753 0 00-.222 1.324 5.356 5.356 0 01.665-1.638zm8.162-1.14c.76.306 1.422.746 1.933 1.284-.095-.13-.185-.256-.28-.38a6.36 6.36 0 00-.985-.924 7.098 7.098 0 00-1.08-.62 4.448 4.448 0 00-.511-.164.886.886 0 01-.41.044l.887.424a.287.287 0 01.108.096.21.21 0 01.035.125c.1.033.205.068.303.108zm13.249-47.206c.272.98.256 2.356.241 2.982-.013.565-.084 1.127-.137 1.689-.086.905-.252 1.9-.528 2.741-.182.557-.44 1.09-.718 1.605-.26.482-.624.901-.89 1.38-.35.633-.564 1.342-.956 1.95a14.027 14.027 0 01-1.684 2.149c-.832.862-2.255 1.68-3.268 2.302-.092.056-.197.09-.281.157-.12.095-.213.221-.326.326-.464.435-.933.865-1.402 1.294-.233.212-.473.415-.705.629-.263.243-.52.492-.78.74-.175.167-.356.33-.524.505-.294.306-1.74 1.95-1.805 2.028-.535.645-1.131 1.25-1.565 1.967-.446.735-1.02 2.066-1.232 3.075-.078.372-.153.747-.19 1.125-.037.36-.083.726-.032 1.084.128.883.34 1.753.564 2.616.078.3.225.577.34.865.156.392.319.782.474 1.174.103.261.196.526.3.786.132.326.249.454.27.832a.366.366 0 01-.07.243c-.143.18-.293.375-.5.472-.234.11-.518.047-.766.12-.142.042-.24.196-.387.22-.77.13-1.454.172-1.964-.558-.422-.603-.59-1.352-.963-1.987-.089-.152-.272-.224-.404-.342-.01-.01-.008-.046-.02-.037a.59.59 0 00-.16.172c-.01.02.018.043.023.066.003.013-.004.027 0 .04.153.464.292.934.472 1.388.075.192.365.559.379.823.015.272-.15.51-.372.655a1.25 1.25 0 01-1.008.136c-.158-.045-.322-.116-.433-.239-.743-.818-.945-1.312-1.333-2.302-.102-.26-.184-.529-.266-.797a13.85 13.85 0 01-.225-.805 21.292 21.292 0 01-.342-1.784 85.81 85.81 0 01-.23-1.68c-.026-.204-.027-.412-.062-.615-.003-.016-.032-.003-.045-.011-.204-.126-.454-.202-.604-.389a.903.903 0 01-.184-.596c.027-.512.18-1.01.297-1.51.075-.32.185-.63.28-.944.036-.117.097-.227.113-.347.037-.279.024-.563.045-.843.007-.095.025-.189.04-.283.027-.189.048-.379.083-.567.138-.74.424-1.87.682-2.452a14.99 14.99 0 011.274-2.347c.433-.637.985-1.186 1.51-1.75.207-.224 1.126-1.038 1.436-1.307 1.022-.887 1.142-.972 2.39-1.984.489-.396.984-.783 1.468-1.183.623-.515 1.485-1.325 2.006-1.823a60.385 60.385 0 002.026-2.011c.445-.466.96-1.012 1.36-1.501.375-.458.79-.89 1.09-1.4.72-1.232 1.303-2.202 1.455-3.531.091-.795-.048-1.635-.26-2.391-.103-.363-.394-.792-.649-1.09a10.394 10.394 0 00-.482-.528.68.68 0 00-.16-.128c-.757-.405-1.51-.815-2.287-1.18a9.796 9.796 0 00-1.187-.458 4.372 4.372 0 00-.69-.152 10.972 10.972 0 00-1.072-.117c-.74-.04-1.447.01-2.183.075-.793.07-2.306.3-2.797.44-.585.165-2.485.902-3.286 1.374-.867.512-1.766.986-2.561 1.605-.206.16-.686 1.475-.71 1.603-.15.8-.28 1.613-.28 2.428 0 .697.452 2.529.726 3.2.202.495.47.963.75 1.42.067.11.178.189.28.269.108.085.337.157.457.19.019.005.04-.004.059 0 .139.024.231.039.337.139a.38.38 0 01.093.134.319.319 0 01.02.152.376.376 0 01-.176.265.551.551 0 01-.17.073c-.208.05-.482-.025-.66-.077-.473-.14-.633-.31-1.032-.686-.076-.071-.093-.207-.188-.248-.092-.039-.197.044-.297.042a.614.614 0 01-.223-.05c-.066-.026-.122-.072-.179-.115-.02-.016-.063-.083-.05-.06.003.005.246.315.215.45-.009.04-.05.066-.067.104-.03.067-.031.146-.07.208-.044.067-.112.113-.17.168-.01.008-.038.007-.032.017.205.337.442.654.646.991a.358.358 0 01.05.16.374.374 0 01-.137.305.55.55 0 01-.169.098.672.672 0 01-.41.016.513.513 0 01-.305-.217c-.436-.693-.83-1.412-1.277-2.099-.12-.185-.301-.325-.418-.512-.782-1.254-1.124-2.094-1.352-3.675-.119-.82-.078-1.655-.065-2.483.005-.275.272-1.045.118-.817a7.34 7.34 0 00-.962 2.07c-.356 1.244-.313 2.672.16 3.88.218.56.593 1.045.923 1.546.221.337.472.654.73.965a5.82 5.82 0 001.116 1.059c.248.179.53.311.766.506.222.182.38.342.302.617-.023.08-.056.167-.123.217-.146.11-.31.217-.492.241-.496.067-1.013-.352-1.343-.612-1.196-.943-1.73-1.463-2.623-2.761-.36-.524-.707-1.067-.951-1.654-.214-.514-.408-1.063-.41-1.62-.003-1.184.005-2.413.396-3.531.454-1.3 1.364-2.391 2.085-3.563.143-.234.328-.44.505-.649.272-.324.52-.675.841-.951 1.679-1.448 2.884-2.274 5.006-3.022 2.093-.738 3.188-.803 5.27-.883.494-.02.99.047 1.483 0 .919-.087 1.823-.294 2.739-.4.447-.051.9-.055 1.35-.072.39-.015 2.085-.095 2.746-.011.737.093 1.488.142 2.2.353.938.277 1.866.625 2.719 1.103a10.883 10.883 0 012.27 1.691c.52.507.882 1.156 1.276 1.766.424.656.862 1.736 1.064 2.461zM58.059 29.398c.221-.17.44-.34.667-.504l.208-.148.724-.759c.216-.227.426-.468.64-.689.162-.176.333-.348.485-.53l.783-.922a15.8 15.8 0 00.926-1.212c.053-.08.103-.161.154-.243.365-.67.679-1.356.94-2.055l-.098.045a10.82 10.82 0 00-.561.317 15.03 15.03 0 01-.32.5l-1.23 1.765c-.294.428-.614.845-.925 1.267-.342.466-.674.94-1.03 1.402zm-2.938.419c-.079.1-.154.199-.23.3l-1.167 1.592-.062.092-.648 1.022c-.11.173-.239.362-.326.515-.087.152-.177.302-.266.452l1.108-.62c.39-.533.785-1.064 1.181-1.594l2.245-2.984.578-.775c-.244.219-.494.424-.747.645-.536.441-1.075.883-1.616 1.324zm4.59-21.614c.804.33 1.557.731 2.245 1.196a13.008 13.008 0 012.91 1.914c.333.295.638.609.914.938.28.326.537.665.769 1.013.444.675.76 1.397.937 2.144a6.393 6.393 0 00-.154-.916A8.89 8.89 0 0067 13.44l-.329-.733a7.86 7.86 0 00-.982-1.616 7.011 7.011 0 00-.617-.646 7.458 7.458 0 00-.614-.497 11.53 11.53 0 00-1.981-1.128 9.359 9.359 0 00-1.653-.483c-.368-.06-.738-.102-1.114-.135zm-9.733 27.073a8.45 8.45 0 01.381-.256l.37-.722.438-.835c-.216.259-.42.523-.608.793-.214.33-.407.67-.581 1.02z"/></g><path fill="#104455" d="M61.226 64.17a4.38 4.38 0 010 .648c-.044.413-.152.82-.32 1.212a6.787 6.787 0 01-2.398 3.042 9.192 9.192 0 01-1.179.693 7.007 7.007 0 01-2.163.693c-.284.035-.57.055-.856.062h-.561l-.155.013a6.566 6.566 0 01-.909 0 8.33 8.33 0 01-.78-.108 6.391 6.391 0 01-1.307-.39l-.081-.036-.191-.042a5.822 5.822 0 01-1.26-.461 4.205 4.205 0 01-1.08-.775 4.512 4.512 0 01-.716-.916 5.552 5.552 0 01-.474-1.124 5.798 5.798 0 01-.236-1.123 7.02 7.02 0 01.155-2.466 4.92 4.92 0 01.435-1.218 5 5 0 01.735-.99 8.438 8.438 0 012.14-1.575 9.768 9.768 0 012.658-1.04 5.321 5.321 0 011.388-.07l.172.013c.492.041.98.11 1.459.207.48.097.95.227 1.403.387a5.09 5.09 0 012.241 1.489c.27.318.517.645.747.98.252.35.469.716.648 1.093.171.375.3.762.387 1.154.042.215.073.429.098.647zm-7.314 4.489c.07-.029.103-.035.207-.09.104-.056.22-.082.303-.173a7.83 7.83 0 00.242-.276 5.557 5.557 0 01-.483 0c-.13-.002-.26-.01-.39-.024l-.034.016-.207.09v.064c.025.152.039.307.067.46l.16-.038zm.036-7.788c-.244.078-.48.171-.704.279l-.034.017a4.208 4.208 0 011.594.051 8.954 8.954 0 00-.856-.347zm-1.857 7.931c.1.014.19.036.28.036-.008-.12-.036-.239-.036-.358-.301.006-.6-.035-.881-.121a2.478 2.478 0 01-.873-.442c-.567-.545-.886-1.224-.906-1.929a4.038 4.038 0 01.067-1.117c-.042.124-.081.228-.115.345-.064.242-.11.488-.137.735.05.289.129.574.235.854.126.278.286.547.477.801.189.218.404.42.643.605.252.167.523.315.81.441.142.057.287.107.436.15zm3.493-4.138c.029-.134.042-.269.04-.404a2.663 2.663 0 00-.141-.62 4.138 4.138 0 00-.21-.398h-.015l-.028-.015a2.571 2.571 0 00-.297.207c-.266.233-.5.488-.699.76a4.763 4.763 0 00-.56 1.205c-.12.443-.193.893-.217 1.346.162-.014.322-.038.48-.07a4.705 4.705 0 01.856-.656 5 5 0 00.791-1.355zm-3.255 1.152c.055-.322.135-.642.241-.956a.679.679 0 01-.381 0 .486.486 0 01-.101-.042v.144c.02.228.07.454.146.675.028.06.061.12.095.179zm-.188 1.792a3.454 3.454 0 01-1.097-.55c.02.03.04.06.062.089.069.078.146.152.23.22.075.05.156.095.241.133.125.045.253.083.385.113.076.01.153.017.23.022zm-3.535-4.85c.213-.348.443-.695.701-1.03.237-.348.507-.682.808-.998l.115-.112a8.65 8.65 0 00-.841.609 5.326 5.326 0 00-.792.859c-.19.313-.336.641-.434.98a6.753 6.753 0 00-.222 1.324 5.356 5.356 0 01.665-1.638zm8.162-1.14c.76.306 1.422.746 1.933 1.284-.095-.13-.185-.256-.28-.38a6.36 6.36 0 00-.985-.924 7.098 7.098 0 00-1.08-.62 4.448 4.448 0 00-.511-.164.886.886 0 01-.41.044l.887.424a.287.287 0 01.108.096.21.21 0 01.035.125c.1.033.205.068.303.108zm13.249-47.206c.272.98.256 2.356.241 2.982-.013.565-.084 1.127-.137 1.689-.086.905-.252 1.9-.528 2.741-.182.557-.44 1.09-.718 1.605-.26.482-.624.901-.89 1.38-.35.633-.564 1.342-.956 1.95a14.027 14.027 0 01-1.684 2.149c-.832.862-2.255 1.68-3.268 2.302-.092.056-.197.09-.281.157-.12.095-.213.221-.326.326-.464.435-.933.865-1.402 1.294-.233.212-.473.415-.705.629-.263.243-.52.492-.78.74-.175.167-.356.33-.524.505-.294.306-1.74 1.95-1.805 2.028-.535.645-1.131 1.25-1.565 1.967-.446.735-1.02 2.066-1.232 3.075-.078.372-.153.747-.19 1.125-.037.36-.083.726-.032 1.084.128.883.34 1.753.564 2.616.078.3.225.577.34.865.156.392.319.782.474 1.174.103.261.196.526.3.786.132.326.249.454.27.832a.366.366 0 01-.07.243c-.143.18-.293.375-.5.472-.234.11-.518.047-.766.12-.142.042-.24.196-.387.22-.77.13-1.454.172-1.964-.558-.422-.603-.59-1.352-.963-1.987-.089-.152-.272-.224-.404-.342-.01-.01-.008-.046-.02-.037a.59.59 0 00-.16.172c-.01.02.018.043.023.066.003.013-.004.027 0 .04.153.464.292.934.472 1.388.075.192.365.559.379.823.015.272-.15.51-.372.655a1.25 1.25 0 01-1.008.136c-.158-.045-.322-.116-.433-.239-.743-.818-.945-1.312-1.333-2.302-.102-.26-.184-.529-.266-.797a13.85 13.85 0 01-.225-.805 21.292 21.292 0 01-.342-1.784 85.81 85.81 0 01-.23-1.68c-.026-.204-.027-.412-.062-.615-.003-.016-.032-.003-.045-.011-.204-.126-.454-.202-.604-.389a.903.903 0 01-.184-.596c.027-.512.18-1.01.297-1.51.075-.32.185-.63.28-.944.036-.117.097-.227.113-.347.037-.279.024-.563.045-.843.007-.095.025-.189.04-.283.027-.189.048-.379.083-.567.138-.74.424-1.87.682-2.452a14.99 14.99 0 011.274-2.347c.433-.637.985-1.186 1.51-1.75.207-.224 1.126-1.038 1.436-1.307 1.022-.887 1.142-.972 2.39-1.984.489-.396.984-.783 1.468-1.183.623-.515 1.485-1.325 2.006-1.823a60.385 60.385 0 002.026-2.011c.445-.466.96-1.012 1.36-1.501.375-.458.79-.89 1.09-1.4.72-1.232 1.303-2.202 1.455-3.531.091-.795-.048-1.635-.26-2.391-.103-.363-.394-.792-.649-1.09a10.394 10.394 0 00-.482-.528.68.68 0 00-.16-.128c-.757-.405-1.51-.815-2.287-1.18a9.796 9.796 0 00-1.187-.458 4.372 4.372 0 00-.69-.152 10.972 10.972 0 00-1.072-.117c-.74-.04-1.447.01-2.183.075-.793.07-2.306.3-2.797.44-.585.165-2.485.902-3.286 1.374-.867.512-1.766.986-2.561 1.605-.206.16-.686 1.475-.71 1.603-.15.8-.28 1.613-.28 2.428 0 .697.452 2.529.726 3.2.202.495.47.963.75 1.42.067.11.178.189.28.269.108.085.337.157.457.19.019.005.04-.004.059 0 .139.024.231.039.337.139a.38.38 0 01.093.134.319.319 0 01.02.152.376.376 0 01-.176.265.551.551 0 01-.17.073c-.208.05-.482-.025-.66-.077-.473-.14-.633-.31-1.032-.686-.076-.071-.093-.207-.188-.248-.092-.039-.197.044-.297.042a.614.614 0 01-.223-.05c-.066-.026-.122-.072-.179-.115-.02-.016-.063-.083-.05-.06.003.005.246.315.215.45-.009.04-.05.066-.067.104-.03.067-.031.146-.07.208-.044.067-.112.113-.17.168-.01.008-.038.007-.032.017.205.337.442.654.646.991a.358.358 0 01.05.16.374.374 0 01-.137.305.55.55 0 01-.169.098.672.672 0 01-.41.016.513.513 0 01-.305-.217c-.436-.693-.83-1.412-1.277-2.099-.12-.185-.301-.325-.418-.512-.782-1.254-1.124-2.094-1.352-3.675-.119-.82-.078-1.655-.065-2.483.005-.275.272-1.045.118-.817a7.34 7.34 0 00-.962 2.07c-.356 1.244-.313 2.672.16 3.88.218.56.593 1.045.923 1.546.221.337.472.654.73.965a5.82 5.82 0 001.116 1.059c.248.179.53.311.766.506.222.182.38.342.302.617-.023.08-.056.167-.123.217-.146.11-.31.217-.492.241-.496.067-1.013-.352-1.343-.612-1.196-.943-1.73-1.463-2.623-2.761-.36-.524-.707-1.067-.951-1.654-.214-.514-.408-1.063-.41-1.62-.003-1.184.005-2.413.396-3.531.454-1.3 1.364-2.391 2.085-3.563.143-.234.328-.44.505-.649.272-.324.52-.675.841-.951 1.679-1.448 2.884-2.274 5.006-3.022 2.093-.738 3.188-.803 5.27-.883.494-.02.99.047 1.483 0 .919-.087 1.823-.294 2.739-.4.447-.051.9-.055 1.35-.072.39-.015 2.085-.095 2.746-.011.737.093 1.488.142 2.2.353.938.277 1.866.625 2.719 1.103a10.883 10.883 0 012.27 1.691c.52.507.882 1.156 1.276 1.766.424.656.862 1.736 1.064 2.461zM58.059 29.398c.221-.17.44-.34.667-.504l.208-.148.724-.759c.216-.227.426-.468.64-.689.162-.176.333-.348.485-.53l.783-.922a15.8 15.8 0 00.926-1.212c.053-.08.103-.161.154-.243.365-.67.679-1.356.94-2.055l-.098.045a10.82 10.82 0 00-.561.317 15.03 15.03 0 01-.32.5l-1.23 1.765c-.294.428-.614.845-.925 1.267-.342.466-.674.94-1.03 1.402zm-2.938.419c-.079.1-.154.199-.23.3l-1.167 1.592-.062.092-.648 1.022c-.11.173-.239.362-.326.515-.087.152-.177.302-.266.452l1.108-.62c.39-.533.785-1.064 1.181-1.594l2.245-2.984.578-.775c-.244.219-.494.424-.747.645-.536.441-1.075.883-1.616 1.324zm4.59-21.614c.804.33 1.557.731 2.245 1.196a13.008 13.008 0 012.91 1.914c.333.295.638.609.914.938.28.326.537.665.769 1.013.444.675.76 1.397.937 2.144a6.393 6.393 0 00-.154-.916A8.89 8.89 0 0067 13.44l-.329-.733a7.86 7.86 0 00-.982-1.616 7.011 7.011 0 00-.617-.646 7.458 7.458 0 00-.614-.497 11.53 11.53 0 00-1.981-1.128 9.359 9.359 0 00-1.653-.483c-.368-.06-.738-.102-1.114-.135zm-9.733 27.073a8.45 8.45 0 01.381-.256l.37-.722.438-.835c-.216.259-.42.523-.608.793-.214.33-.407.67-.581 1.02z"/></svg>