<svg xmlns="http://www.w3.org/2000/svg" width="56" height="56"><defs><filter id="a" width="80" height="80" x="-14" y="-14" filterUnits="userSpaceOnUse"><feOffset dx="4" dy="4" in="SourceGraphic" result="FeOffset1025Out"/><feGaussianBlur in="FeOffset1025Out" result="FeGaussianBlur1026Out" stdDeviation="2.8 2.8"/></filter><mask id="b" width="2" height="2" x="-1" y="-1"><path fill="#fff" d="M3 3h42v42H3z"/><path d="M45 24c0 11.598-9.402 21-21 21S3 35.598 3 24 12.402 3 24 3s21 9.402 21 21z"/></mask></defs><g filter="url(#a)"><path fill="none" d="M45 24c0 11.598-9.402 21-21 21S3 35.598 3 24 12.402 3 24 3s21 9.402 21 21z" mask="url(&quot;#b&quot;)"/><path fill-opacity=".25" d="M45 24c0 11.598-9.402 21-21 21S3 35.598 3 24 12.402 3 24 3s21 9.402 21 21z"/></g><path fill="#ffe7c6" d="M45 24c0 11.598-9.402 21-21 21S3 35.598 3 24 12.402 3 24 3s21 9.402 21 21z"/></svg>